<svg xmlns="http://www.w3.org/2000/svg" width="303.979" height="295.083" viewBox="0 0 303.979 295.083">
  <g id="_2453842_327233-P9XOT9-408-ai" data-name="2453842_327233-P9XOT9-408-ai" transform="translate(-135.041 -234.038)">
    <g id="Group_193" data-name="Group 193" transform="translate(135.041 234.038)" opacity="0.2">
      <path id="Path_482" data-name="Path 482" d="M377.454,455.038l-81.425-.109a4.006,4.006,0,0,1-3.984-3.984l.273-151.607a3.948,3.948,0,0,1,3.929-3.929l81.479.109a3.96,3.96,0,0,1,3.929,3.984l-.218,151.607a3.96,3.96,0,0,1-3.984,3.929Z" transform="translate(-292.045 -295.408)" fill="#676767"/>
      <path id="Path_483" data-name="Path 483" d="M382.612,327.407l-73.348-.164v-6.276l73.348.109Z" transform="translate(-302.279 -310.598)" fill="#dadada"/>
      <path id="Path_484" data-name="Path 484" d="M382.477,356.329l-73.348-.164v-6.276l73.348.109Z" transform="translate(-302.199 -327.787)" fill="#dadada"/>
      <path id="Path_485" data-name="Path 485" d="M340.237,385.142H309.13v-6.331l31.107.055Z" transform="translate(-302.199 -344.975)" fill="#dadada"/>
      <path id="Path_486" data-name="Path 486" d="M382.477,414.173l-73.348-.109v-6.331l73.348.164Z" transform="translate(-302.199 -362.164)" fill="#dadada"/>
      <path id="Path_487" data-name="Path 487" d="M382.343,443.175,309,443.066V436.79l73.348.109Z" transform="translate(-302.119 -379.433)" fill="#dadada"/>
      <path id="Path_488" data-name="Path 488" d="M382.343,490.661,309,490.552v-6.276l73.348.109Z" transform="translate(-302.119 -407.654)" fill="#dadada"/>
      <path id="Path_489" data-name="Path 489" d="M382.343,520.256,309,520.147v-6.276l73.348.109Z" transform="translate(-302.119 -425.242)" fill="#dadada"/>
      <path id="Path_490" data-name="Path 490" d="M382.343,549.851,309,549.741v-6.276l73.348.109Z" transform="translate(-302.119 -442.831)" fill="#dadada"/>
      <path id="Path_491" data-name="Path 491" d="M382.343,579.445,309,579.336V573.06l73.348.109Z" transform="translate(-302.119 -460.419)" fill="#dadada"/>
      <path id="Path_492" data-name="Path 492" d="M382.343,609.04,309,608.931v-6.276l73.348.109Z" transform="translate(-302.119 -478.007)" fill="#dadada"/>
      <path id="Path_493" data-name="Path 493" d="M382.343,638.635,309,638.525v-6.276l73.348.109Z" transform="translate(-302.119 -495.595)" fill="#dadada"/>
    </g>
    <g id="Group_194" data-name="Group 194" transform="translate(349.517 234.038)" opacity="0.2">
      <path id="Path_494" data-name="Path 494" d="M906.122,409.523l-81.479-.164a3.948,3.948,0,0,1-3.929-3.929l.164-106.092a3.984,3.984,0,0,1,3.929-3.929l81.479.109a3.96,3.96,0,0,1,3.929,3.984l-.164,106.038A4,4,0,0,1,906.122,409.523Z" transform="translate(-820.713 -295.408)" fill="#676767"/>
      <path id="Path_495" data-name="Path 495" d="M911.011,327.407l-73.348-.164v-6.276l73.348.109Z" transform="translate(-830.787 -310.598)" fill="#dadada"/>
      <path id="Path_496" data-name="Path 496" d="M910.876,356.329l-73.348-.164v-6.276l73.348.109Z" transform="translate(-830.707 -327.787)" fill="#dadada"/>
      <path id="Path_497" data-name="Path 497" d="M868.636,385.142H837.528v-6.331l31.107.055Z" transform="translate(-830.707 -344.975)" fill="#dadada"/>
      <path id="Path_498" data-name="Path 498" d="M910.876,414.173l-73.348-.109v-6.331l73.348.164Z" transform="translate(-830.707 -362.164)" fill="#dadada"/>
      <path id="Path_499" data-name="Path 499" d="M910.742,443.175l-73.348-.109V436.79l73.348.109Z" transform="translate(-830.627 -379.433)" fill="#dadada"/>
      <path id="Path_500" data-name="Path 500" d="M910.742,490.661l-73.348-.109v-6.276l73.348.109Z" transform="translate(-830.627 -407.654)" fill="#dadada"/>
      <path id="Path_501" data-name="Path 501" d="M910.742,520.256l-73.348-.109v-6.276l73.348.109Z" transform="translate(-830.627 -425.242)" fill="#dadada"/>
      <path id="Path_502" data-name="Path 502" d="M910.742,549.851l-73.348-.109v-6.276l73.348.109Z" transform="translate(-830.627 -442.831)" fill="#dadada"/>
    </g>
    <path id="Path_505" data-name="Path 505" d="M561.938,662.767a10.178,10.178,0,1,1-10.151-10.205A10.167,10.167,0,0,1,561.938,662.767Z" transform="translate(-305.306 -273.63)" fill="#fff"/>
    <path id="Path_506" data-name="Path 506" d="M464.571,811.641c-5.294.819-18.61,9-31.38,15.936-.055-.055-3.984,12.388-2.347,4.038l-.982-.218c-.764,2.51.109-3.6-.491-1.037-1.2,5.239-2.183,10.478-3.82,15.663a64.624,64.624,0,0,0-2.347,11.9q1.364-.437,2.674-.982h0c8.459-3.22,19.92-8.4,25.213-14.353,0,0,4.2,15.554,3.984,20.684-.109,2.074-.218,5.13-.382,7.913a71.2,71.2,0,0,1,6.822,2.238c3.274-9.278,12.334-35.855,12.716-46.661C474.722,813.551,470.028,810.822,464.571,811.641Z" transform="translate(-234.953 -368.093)" fill="#1e223f"/>
    <path id="Path_507" data-name="Path 507" d="M494.631,830.269l18.992-2.62a1.647,1.647,0,0,0-1.255-1.692l-8.677-2.238a1.667,1.667,0,0,0-1.037.055l-5.021,1.965-.327.873C498.069,827.486,494.521,829.069,494.631,830.269Z" transform="translate(-277.401 -375.315)" fill="#ff9c92"/>
    <path id="Path_508" data-name="Path 508" d="M383.251,738.387v11.843l15.5-2.4.273-8.186Z" transform="translate(-211.209 -324.636)" fill="#ff9c92"/>
    <path id="Path_509" data-name="Path 509" d="M428.767,786.346l3.384-3.82-37.165-30.944a7.181,7.181,0,0,0-9.332,10.915l.546.436.382.273q.382.218.819.437l40.712,22.812a.58.58,0,0,0,.655-.109Z" transform="translate(-211.21 -331.501)" fill="#ff9c92"/>
    <path id="Path_510" data-name="Path 510" d="M350.334,860.373s-6.221-2.074-12.115-.327c-5.894,1.692,1.91,9.441,8.186,8.623,6.221-.819,3.929-8.3,3.929-8.3Z" transform="translate(-183.204 -396.523)" fill="#3e1156"/>
    <path id="Path_511" data-name="Path 511" d="M499.252,954.4,498,959.58c0,1.364,2.62,4.093,3.984,4.038l2.238-.163.055-10.642Z" transform="translate(-279.403 -452.071)" fill="#fff"/>
    <path id="Path_512" data-name="Path 512" d="M492.7,969.494s-3.875,2.511-3.6,5.785c.273,3.329,21.83,7.258,21.83,7.258s.928-.273-.273-1.2l-8.677-6.494s-3.493-3.438-5.73-3.711A7.9,7.9,0,0,1,492.7,969.494Z" transform="translate(-274.107 -461.985)"/>
    <path id="Path_513" data-name="Path 513" d="M370.751,635.59a9.96,9.96,0,1,1-9.932-9.933A9.945,9.945,0,0,1,370.751,635.59Z" transform="translate(-191.942 -257.64)" fill="#1d1d1b"/>
    <path id="Path_514" data-name="Path 514" d="M391.736,660.128a9.96,9.96,0,1,1-9.932-9.987,9.9,9.9,0,0,1,9.932,9.987Z" transform="translate(-204.413 -272.191)" fill="#1d1d1b"/>
    <path id="Path_515" data-name="Path 515" d="M376.266,604.84a9.96,9.96,0,1,1-9.933-9.987A9.969,9.969,0,0,1,376.266,604.84Z" transform="translate(-195.219 -239.333)" fill="#1d1d1b"/>
    <path id="Path_516" data-name="Path 516" d="M403.17,586.41a9.96,9.96,0,1,1-9.987-9.987A9.992,9.992,0,0,1,403.17,586.41Z" transform="translate(-211.209 -228.38)" fill="#1d1d1b"/>
    <path id="Path_517" data-name="Path 517" d="M427.653,580.222a9.96,9.96,0,1,1-9.932-9.987A9.945,9.945,0,0,1,427.653,580.222Z" transform="translate(-225.759 -224.702)" fill="#1d1d1b"/>
    <path id="Path_518" data-name="Path 518" d="M457.651,604.84a9.96,9.96,0,1,1-9.987-9.987A9.98,9.98,0,0,1,457.651,604.84Z" transform="translate(-243.587 -239.333)" fill="#1d1d1b"/>
    <path id="Path_519" data-name="Path 519" d="M416.353,612.911a9.96,9.96,0,1,1-9.987-9.987A9.945,9.945,0,0,1,416.353,612.911Z" transform="translate(-219.044 -244.13)" fill="#1d1d1b"/>
    <path id="Path_520" data-name="Path 520" d="M505.052,968.262l-2.4,4.748c-.327,1.364,1.583,4.639,2.947,4.857l2.238.328,2.456-10.315Z" transform="translate(-282.147 -461.026)" fill="#fff"/>
    <path id="Path_521" data-name="Path 521" d="M495.58,980.524s-4.366,1.583-4.857,4.857c-.437,3.274,19.647,12.006,19.647,12.006s.982-.054,0-1.255l-6.986-8.241s-2.62-4.147-4.748-4.912A7.911,7.911,0,0,1,495.58,980.524Z" transform="translate(-275.076 -468.54)"/>
    <path id="Path_522" data-name="Path 522" d="M385.66,658.407a5.055,5.055,0,0,1-4.966-5.13,5.457,5.457,0,0,1,5.567-5.021" transform="translate(-209.688 -271.07)" fill="#ffbbb0"/>
    <path id="Path_523" data-name="Path 523" d="M437.438,836.488a112.3,112.3,0,0,0-34.218,4.421.157.157,0,0,0-.109-.055l-46.661,5.785a21.7,21.7,0,0,0-1.583,6.986c0,11.351,12.17,20.52,27.123,20.52a35.942,35.942,0,0,0,6.494-.6h0c9.387-1.528,22.266-4.475,28.924-9.278,0,0,1.2,16.1-.109,21.066-.491,2.019-1.255,4.966-1.91,7.75,2.238.982,4.366,2.237,6.549,3.438,5.239-8.459,19.92-32.854,22.485-43.386C447.534,840.308,443.277,836.706,437.438,836.488Z" transform="translate(-194.34 -382.898)" fill="#292b51"/>
    <path id="Path_524" data-name="Path 524" d="M331.169,765.077s1.255-6.167,14.462-3.6c13.262,2.51,28.87-.109,35.31-5.73,0,0,4.093-17.682-7.422-31.162a12.971,12.971,0,0,1-3.111-10.533l.164-1.419a14.3,14.3,0,0,0-4.421-12.552l-8.35-7.968s-45.569,33.236-26.632,72.966Z" transform="translate(-177.518 -297.135)" fill="#662483"/>
    <path id="Path_525" data-name="Path 525" d="M578.026,731.929l-14.517,39.184" transform="translate(-318.338 -320.799)" fill="#fff"/>
    <path id="Path_526" data-name="Path 526" d="M562.419,770.734a.46.46,0,0,1-.382-.055.789.789,0,0,1-.491-1.037l14.517-39.184a.789.789,0,0,1,1.037-.491.834.834,0,0,1,.491,1.037l-14.517,39.239A.87.87,0,0,1,562.419,770.734Z" transform="translate(-317.139 -319.6)" fill="#dadada"/>
    <path id="Path_527" data-name="Path 527" d="M470.742,835.628l37.656-5.239a.732.732,0,0,1,.819.6l.109.655a.705.705,0,0,1-.655.819l-37.6,5.294a.7.7,0,0,1-.819-.6l-.109-.71a.732.732,0,0,1,.6-.818Z" transform="translate(-262.844 -379.31)" fill="#b2b2b2"/>
    <path id="Path_528" data-name="Path 528" d="M554.362,832.719l2.892-.437.109.928-2.838.382Z" transform="translate(-312.901 -380.439)" fill="#706f6f"/>
    <path id="Path_529" data-name="Path 529" d="M544.138,834.144l2.893-.382.109.873-2.892.437Z" transform="translate(-306.825 -381.318)" fill="#706f6f"/>
    <path id="Path_530" data-name="Path 530" d="M483.6,842.619l2.892-.382.109.873-2.892.437Z" transform="translate(-270.849 -386.355)" fill="#706f6f"/>
    <path id="Path_531" data-name="Path 531" d="M473.231,845.025a.441.441,0,0,1-.382.491.45.45,0,0,1-.546-.382.524.524,0,0,1,.382-.491A.45.45,0,0,1,473.231,845.025Z" transform="translate(-264.134 -387.779)" fill="#706f6f"/>
    <path id="Path_532" data-name="Path 532" d="M478.881,844.221a.441.441,0,0,1-.382.491.45.45,0,0,1-.546-.382.524.524,0,0,1,.382-.491A.489.489,0,0,1,478.881,844.221Z" transform="translate(-267.491 -387.302)" fill="#706f6f"/>
    <path id="Path_533" data-name="Path 533" d="M483.6,832.053l18.992-2.62a1.689,1.689,0,0,0-1.255-1.692L492.6,825.5a2.264,2.264,0,0,0-1.037.054l-5.021,1.965-.273.928C487.038,829.324,483.491,830.907,483.6,832.053Z" transform="translate(-270.846 -376.389)" fill="#ffbbb0"/>
    <path id="Path_534" data-name="Path 534" d="M372.22,740.135v11.843l15.5-2.4.273-8.186Z" transform="translate(-204.653 -325.675)" fill="#ffbbb0"/>
    <path id="Path_535" data-name="Path 535" d="M417.708,788.094l3.384-3.82-37.165-30.944a7.181,7.181,0,0,0-9.332,10.915,2.868,2.868,0,0,0,.546.437l.327.273a6.09,6.09,0,0,0,.819.437L417.054,788.2A.58.58,0,0,0,417.708,788.094Z" transform="translate(-204.627 -332.54)" fill="#ffbbb0"/>
    <path id="Path_536" data-name="Path 536" d="M391.637,624.313l-3.275,34.6c.982.273,1.965.6,2.947.873,1.255.327,2.565.709,3.766,1.146.546.218,1.091.382,1.637.655a4.344,4.344,0,0,1,1.856-.982,5.287,5.287,0,0,1,2.128-.382h.109l-.109-2.892L410.247,654a9.672,9.672,0,0,0,6.385-8.732l.6-20.465Z" transform="translate(-214.247 -256.841)" fill="#ffbbb0"/>
    <path id="Path_537" data-name="Path 537" d="M381.905,703.084c.218-.218,3.056-5.458,3.056-5.458l11.133,6.167-.655,4.693a.719.719,0,0,1-1.037.546Z" transform="translate(-210.409 -300.412)" fill="#fff"/>
    <path id="Path_538" data-name="Path 538" d="M416.881,707.631l.819-3.547,2.128,3.111v1.746a.724.724,0,0,1-1.255.491Z" transform="translate(-231.195 -304.25)" fill="#fff"/>
    <path id="Path_539" data-name="Path 539" d="M385.231,736.431H366.839v-6.713a9.2,9.2,0,1,1,18.392,0Z" transform="translate(-201.455 -314.003)" fill="#662483"/>
    <path id="Path_540" data-name="Path 540" d="M389.046,611.027a9.96,9.96,0,1,1-9.987-9.987A9.98,9.98,0,0,1,389.046,611.027Z" transform="translate(-202.814 -243.01)" fill="#1d1d1b"/>
    <path id="Path_541" data-name="Path 541" d="M419.851,594.347a9.96,9.96,0,1,1-9.987-9.987A9.945,9.945,0,0,1,419.851,594.347Z" transform="translate(-221.122 -233.097)" fill="#1d1d1b"/>
    <path id="Path_542" data-name="Path 542" d="M454.423,596.5a9.96,9.96,0,1,1-9.987-9.987A9.98,9.98,0,0,1,454.423,596.5Z" transform="translate(-241.668 -234.376)" fill="#1d1d1b"/>
    <path id="Path_543" data-name="Path 543" d="M432.759,647.775c0,1.146-.546,2.074-1.255,2.074s-1.31-.928-1.31-2.074c-.055-1.146.546-2.074,1.255-2.074S432.759,646.629,432.759,647.775Z" transform="translate(-239.105 -269.553)" fill="#1d1d1b"/>
    <path id="Path_544" data-name="Path 544" d="M450.117,647.1c.055,1.146-.546,2.074-1.255,2.074s-1.31-.928-1.31-2.074.546-2.074,1.255-2.074S450.117,645.957,450.117,647.1Z" transform="translate(-249.423 -269.153)" fill="#1d1d1b"/>
    <path id="Path_545" data-name="Path 545" d="M425.591,639.627c0,3.384-2.019,6.167-4.53,6.167s-4.584-2.783-4.584-6.167,2.074-6.167,4.584-6.167S425.591,636.243,425.591,639.627Z" transform="translate(-230.956 -262.277)" fill="none" stroke="#1d1d1b" stroke-miterlimit="10" stroke-width="2.69"/>
    <path id="Path_546" data-name="Path 546" d="M454.833,639.627c0,3.384-2.019,6.167-4.475,6.167-2.4,0-4.421-2.783-4.421-6.167s2.019-6.167,4.421-6.167C452.814,633.46,454.833,636.243,454.833,639.627Z" transform="translate(-248.464 -262.277)" fill="none" stroke="#1d1d1b" stroke-miterlimit="10" stroke-width="2.69"/>
    <path id="Path_547" data-name="Path 547" d="M442.255,639.11l6.876,10.969-7.095,1.037Z" transform="translate(-246.146 -265.635)" fill="#ff6252"/>
    <path id="Path_548" data-name="Path 548" d="M436.521,638.6l5.075-.437" transform="translate(-242.868 -265.076)" fill="none" stroke="#1d1d1b" stroke-miterlimit="10" stroke-width="2.69"/>
    <path id="Path_549" data-name="Path 549" d="M393.609,643.953h9.551" transform="translate(-217.365 -268.513)" fill="none" stroke="#1d1d1b" stroke-miterlimit="10" stroke-width="2.69"/>
    <path id="Path_550" data-name="Path 550" d="M430.632,674.74a6.473,6.473,0,0,1,2.674-.709,2.353,2.353,0,0,1,2.565,2.074c.164,1.583-1.364,2.62-3.274,3.493-1.091.491-4.8.982-6.713-.109-1.965-1.037-2.947-1.8-3.329-3.165a2.74,2.74,0,0,1,1.855-3.056,2.923,2.923,0,0,1,2.62.655A3.407,3.407,0,0,0,430.632,674.74Z" transform="translate(-234.523 -285.875)" fill="#ce3e3e"/>
    <path id="Path_551" data-name="Path 551" d="M440.293,685.161a5.92,5.92,0,0,0-3.711-.764,6.7,6.7,0,0,0-4.366,2.019,9.85,9.85,0,0,0,5.13.164A6.826,6.826,0,0,0,440.293,685.161Z" transform="translate(-240.309 -292.531)" fill="#ff7d7d"/>
    <path id="Path_552" data-name="Path 552" d="M873.617,610.637a12.8,12.8,0,1,1-12.825-12.825A12.8,12.8,0,0,1,873.617,610.637Z" transform="translate(-487.425 -241.092)" fill="#b17f4a"/>
    <path id="Path_553" data-name="Path 553" d="M786.063,812.179c5.294.819,18.61,9.059,31.38,15.936,0,0,3.984,12.443,2.347,4.039l.982-.218c.709,2.51-.109-3.547.437-1.037,1.2,5.294,2.237,10.533,3.82,15.663a65.7,65.7,0,0,1,2.4,11.9q-1.364-.437-2.674-.928h0c-8.459-3.275-19.974-8.459-25.268-14.408,0,0-4.148,15.554-3.929,20.684.109,2.128.218,5.13.327,7.968a61.374,61.374,0,0,0-6.767,2.238c-3.274-9.278-12.334-35.91-12.716-46.716-.491-13.207,4.148-15.936,9.66-15.117Z" transform="translate(-444.841 -368.413)" fill="#1e223f"/>
    <path id="Path_554" data-name="Path 554" d="M816.936,954.934l1.31,5.185c-.055,1.419-2.62,4.148-3.984,4.039l-2.238-.164-.054-10.642Z" transform="translate(-466 -452.391)" fill="#fff"/>
    <path id="Path_555" data-name="Path 555" d="M800.191,970.032s3.875,2.51,3.6,5.84c-.273,3.274-21.884,7.2-21.884,7.2s-.873-.218.273-1.2l8.732-6.44s3.493-3.438,5.73-3.711A8.359,8.359,0,0,0,800.191,970.032Z" transform="translate(-447.945 -462.305)"/>
    <path id="Path_556" data-name="Path 556" d="M802.9,830.847l-19.046-2.62a1.8,1.8,0,0,1,1.31-1.692l8.677-2.238a1.71,1.71,0,0,1,1.037.109l5.021,1.91.273.928c-.764.873,2.783,2.456,2.729,3.6Z" transform="translate(-449.291 -375.674)" fill="#936037"/>
    <path id="Path_557" data-name="Path 557" d="M919,738.925v11.843l-15.5-2.4-.327-8.186Z" transform="translate(-520.204 -324.956)" fill="#ff9c92"/>
    <path id="Path_558" data-name="Path 558" d="M825.039,786.884l-3.384-3.82,37.11-30.944a7.221,7.221,0,0,1,9.387,10.969,4.966,4.966,0,0,1-.546.382l-.382.273a3.551,3.551,0,0,1-.819.437l-40.712,22.812A.5.5,0,0,1,825.039,786.884Z" transform="translate(-471.756 -331.821)" fill="#936037"/>
    <path id="Path_559" data-name="Path 559" d="M953.689,860.911s6.221-2.074,12.115-.327-1.965,9.441-8.186,8.623C951.4,868.442,953.689,860.911,953.689,860.911Z" transform="translate(-549.979 -396.843)" fill="#dadada"/>
    <path id="Path_560" data-name="Path 560" d="M809.137,968.854l2.4,4.748c.273,1.364-1.583,4.584-2.947,4.8l-2.237.382L803.9,968.418Z" transform="translate(-461.203 -461.345)" fill="#fff"/>
    <path id="Path_561" data-name="Path 561" d="M800.382,981.2s4.366,1.528,4.8,4.8c.491,3.274-19.647,12.061-19.647,12.061s-.928-.054,0-1.255l7.04-8.3s2.62-4.148,4.693-4.912a8.425,8.425,0,0,0,3.111-2.4Z" transform="translate(-450.046 -468.94)"/>
    <path id="Path_562" data-name="Path 562" d="M917.461,655.616a5.1,5.1,0,0,0,4.257-5.785c-.437-2.729-3.384-4.584-6.167-4.2" transform="translate(-527.559 -269.48)" fill="#b17f4a"/>
    <path id="Path_563" data-name="Path 563" d="M755.216,837.051a114.588,114.588,0,0,1,34.273,4.421.048.048,0,0,0,.055-.055l46.715,5.785a21.965,21.965,0,0,1,1.528,7.04c0,11.3-12.116,20.52-27.069,20.52a35.921,35.921,0,0,1-6.494-.6h0c-9.387-1.583-22.266-4.475-28.924-9.332,0,0-1.2,16.1.055,21.066.546,2.074,1.31,4.966,1.965,7.75a57.831,57.831,0,0,0-6.549,3.493c-5.239-8.459-19.92-32.908-22.485-43.441C745.174,840.872,749.431,837.27,755.216,837.051Z" transform="translate(-427.528 -383.244)" fill="#292b51"/>
    <path id="Path_564" data-name="Path 564" d="M913.518,765.615s-1.2-6.112-14.462-3.6c-13.261,2.565-28.815-.109-35.255-5.73,0,0-4.093-17.682,7.422-31.107a13.486,13.486,0,0,0,3.111-10.588l-.218-1.419a14.594,14.594,0,0,1,4.475-12.552l8.3-7.968s45.624,33.236,26.632,72.966Z" transform="translate(-496.383 -297.454)" fill="#fff"/>
    <path id="Path_565" data-name="Path 565" d="M726.145,732.468l14.517,39.239" transform="translate(-414.993 -321.118)" fill="#fff"/>
    <path id="Path_566" data-name="Path 566" d="M739.354,771.3a.68.68,0,0,0,.382,0,.858.858,0,0,0,.491-1.037L725.71,731.027a.858.858,0,0,0-1.037-.491.809.809,0,0,0-.491,1.037L738.7,770.812A.765.765,0,0,0,739.354,771.3Z" transform="translate(-413.795 -319.951)" fill="#dadada"/>
    <path id="Path_567" data-name="Path 567" d="M797.218,836.221l-37.6-5.294a.7.7,0,0,0-.819.6l-.109.709a.732.732,0,0,0,.6.819l37.656,5.239a.732.732,0,0,0,.819-.6l.109-.655A.733.733,0,0,0,797.218,836.221Z" transform="translate(-434.33 -379.629)" fill="#b2b2b2"/>
    <path id="Path_568" data-name="Path 568" d="M766.543,833.337l-2.892-.382-.109.873,2.892.382Z" transform="translate(-437.219 -380.839)" fill="#706f6f"/>
    <path id="Path_569" data-name="Path 569" d="M776.9,834.737l-2.892-.436-.109.928,2.893.382Z" transform="translate(-443.375 -381.638)" fill="#706f6f"/>
    <path id="Path_570" data-name="Path 570" d="M837.436,843.211l-2.893-.437-.109.928,2.838.382Z" transform="translate(-479.351 -386.675)" fill="#706f6f"/>
    <path id="Path_571" data-name="Path 571" d="M850.831,845.578a.45.45,0,0,0,.382.546c.218,0,.491-.164.491-.382a.45.45,0,0,0-.382-.546A.524.524,0,0,0,850.831,845.578Z" transform="translate(-489.089 -388.114)" fill="#706f6f"/>
    <path id="Path_572" data-name="Path 572" d="M845.184,844.771a.489.489,0,0,0,.382.546.441.441,0,0,0,.491-.382.45.45,0,0,0-.382-.546A.524.524,0,0,0,845.184,844.771Z" transform="translate(-485.734 -387.634)" fill="#706f6f"/>
    <path id="Path_573" data-name="Path 573" d="M814.006,832.612l-18.992-2.565a1.709,1.709,0,0,1,1.255-1.746l8.677-2.183a1.355,1.355,0,0,1,1.037.055l5.021,1.91.273.928c-.764.873,2.838,2.456,2.729,3.6Z" transform="translate(-455.921 -376.73)" fill="#b17f4a"/>
    <path id="Path_574" data-name="Path 574" d="M930.032,740.673v11.843l-15.5-2.4-.327-8.186Z" transform="translate(-526.759 -325.995)" fill="#b17f4a"/>
    <path id="Path_575" data-name="Path 575" d="M836.069,788.665l-3.384-3.766,37.111-31h.054a7.2,7.2,0,0,1,9.332,10.969l-.546.437-.382.218a6.079,6.079,0,0,1-.819.491l-40.712,22.758a.453.453,0,0,1-.655-.109Z" transform="translate(-478.311 -332.893)" fill="#b17f4a"/>
    <path id="Path_576" data-name="Path 576" d="M873.344,622.295l8.077,31.38-11.352,5.184-1.419-2.674-9.878-2.074a9.6,9.6,0,0,1-7.477-7.859l-3.274-20.192Z" transform="translate(-487.425 -255.642)" fill="#b17f4a"/>
    <path id="Path_577" data-name="Path 577" d="M913.264,737.023h18.391v-6.767a9.2,9.2,0,1,0-18.391,0Z" transform="translate(-526.2 -314.323)" fill="#fff"/>
    <path id="Path_578" data-name="Path 578" d="M872.81,645.058c.218,1.091.982,1.91,1.692,1.746s1.092-1.2.819-2.292c-.218-1.146-.982-1.965-1.692-1.8S872.591,643.912,872.81,645.058Z" transform="translate(-502.118 -267.763)" fill="#1d1d1b"/>
    <path id="Path_579" data-name="Path 579" d="M852.235,647.9c.273,1.091,1.037,1.91,1.746,1.746.655-.164,1.037-1.2.819-2.292-.273-1.146-1.037-1.91-1.746-1.8C852.4,645.715,852.017,646.752,852.235,647.9Z" transform="translate(-489.893 -269.458)" fill="#1d1d1b"/>
    <path id="Path_580" data-name="Path 580" d="M842.371,638.82c0,3.384,2.019,6.112,4.475,6.112,2.4,0,4.421-2.729,4.421-6.112,0-3.438-2.019-6.167-4.421-6.167C844.391,632.653,842.371,635.382,842.371,638.82Z" transform="translate(-484.068 -261.798)" fill="none" stroke="#1d1d1b" stroke-miterlimit="10" stroke-width="2.69"/>
    <path id="Path_581" data-name="Path 581" d="M868.6,635.537c0,3.438,2.019,6.167,4.42,6.167,2.456,0,4.475-2.729,4.475-6.167,0-3.384-2.019-6.112-4.475-6.112C870.622,629.424,868.6,632.153,868.6,635.537Z" transform="translate(-499.657 -259.879)" fill="none" stroke="#1d1d1b" stroke-miterlimit="10" stroke-width="2.69"/>
    <path id="Path_582" data-name="Path 582" d="M858.75,642.876,853.4,654.664l7.149.109Z" transform="translate(-490.623 -267.874)" fill="#936037"/>
    <path id="Path_583" data-name="Path 583" d="M863.587,676.435a5.42,5.42,0,0,0-2.292-.6,1.933,1.933,0,0,0-2.128,1.746c-.164,1.31,1.146,2.183,2.729,2.892.928.437,4.038.819,5.676-.055s2.456-1.528,2.783-2.674a2.285,2.285,0,0,0-1.528-2.565,2.631,2.631,0,0,0-2.238.546A2.789,2.789,0,0,1,863.587,676.435Z" transform="translate(-494.041 -287.025)" fill="#fff"/>
    <path id="Path_584" data-name="Path 584" d="M863.088,640.859h2.238" transform="translate(-496.379 -266.675)" fill="none" stroke="#1d1d1b" stroke-miterlimit="10" stroke-width="2.69"/>
    <path id="Path_585" data-name="Path 585" d="M901.063,645.567H890.53" transform="translate(-512.689 -269.473)" fill="none" stroke="#1d1d1b" stroke-miterlimit="10" stroke-width="2.69"/>
    <path id="Path_586" data-name="Path 586" d="M637.832,575.094l-81.425-.109A3.96,3.96,0,0,1,552.478,571l.109-65.98a3.913,3.913,0,0,1,3.929-3.929L638,501.2a4,4,0,0,1,3.929,3.984l-.109,65.98A3.96,3.96,0,0,1,637.832,575.094Z" transform="translate(-311.782 -183.61)" fill="#fff"/>
    <path id="Path_587" data-name="Path 587" d="M642.507,533.036l-73.348-.109.055-6.276,73.348.109Z" transform="translate(-321.695 -198.8)" fill="#e6332a"/>
    <path id="Path_588" data-name="Path 588" d="M642.507,561.957l-73.348-.109v-6.276l73.348.109Z" transform="translate(-321.695 -215.988)" fill="#dadada"/>
    <path id="Path_589" data-name="Path 589" d="M600.212,590.825l-31.053-.055v-6.276l31.107.055Z" transform="translate(-321.695 -233.177)" fill="#dadada"/>
    <path id="Path_590" data-name="Path 590" d="M642.372,619.856l-73.348-.164v-6.276l73.4.109Z" transform="translate(-321.615 -250.365)" fill="#e6332a"/>
    <path id="Path_591" data-name="Path 591" d="M642.372,648.778l-73.348-.109v-6.331l73.348.109Z" transform="translate(-321.615 -267.554)" fill="#dadada"/>
    <path id="Path_592" data-name="Path 592" d="M637.832,369.411l-81.425-.109a3.96,3.96,0,0,1-3.929-3.984l.109-65.98a3.948,3.948,0,0,1,3.929-3.929l81.479.109a4,4,0,0,1,3.929,3.984l-.109,65.98A3.96,3.96,0,0,1,637.832,369.411Z" transform="translate(-311.782 -61.371)" fill="#fff"/>
    <path id="Path_593" data-name="Path 593" d="M642.507,327.407l-73.348-.164.055-6.276,73.348.109Z" transform="translate(-321.695 -76.561)" fill="#f9b233"/>
    <path id="Path_594" data-name="Path 594" d="M642.507,356.329l-73.348-.164v-6.276l73.348.109Z" transform="translate(-321.695 -93.749)" fill="#dadada"/>
    <path id="Path_595" data-name="Path 595" d="M600.212,385.142H569.159v-6.331l31.107.055Z" transform="translate(-321.695 -110.938)" fill="#dadada"/>
    <path id="Path_596" data-name="Path 596" d="M642.372,414.173l-73.348-.109v-6.331l73.4.164Z" transform="translate(-321.615 -128.126)" fill="#dadada"/>
    <path id="Path_597" data-name="Path 597" d="M642.372,443.175l-73.348-.109V436.79l73.348.109Z" transform="translate(-321.615 -145.395)" fill="#dadada"/>
    <path id="Path_603" data-name="Path 603" d="M544.857,781.658a4.53,4.53,0,1,1-4.53-4.53A4.518,4.518,0,0,1,544.857,781.658Z" transform="translate(-301.869 -347.661)" fill="#fff"/>
    <path id="Path_604" data-name="Path 604" d="M548.618,720.555a8.159,8.159,0,1,1-8.132-8.132A8.164,8.164,0,0,1,548.618,720.555Z" transform="translate(-299.79 -309.206)" fill="#fff"/>
  </g>
</svg>
