<svg width="456" height="430" viewBox="0 0 456 430" fill="none" xmlns="http://www.w3.org/2000/svg">
<g clip-path="url(#clip0_1450_758)">
<path d="M-2.00989 430H453.618C454.117 430 454.504 429.57 454.504 429.016C454.504 428.463 454.117 428.032 453.618 428.032H-2.00989C-2.50858 428.032 -2.89642 428.463 -2.89642 429.016C-2.89642 429.57 -2.50858 430 -2.00989 430Z" fill="black"/>
<path d="M241.248 428.638H112.062L103.972 407.902H241.248C245.542 407.902 249.421 410.542 250.972 414.53C253.632 421.323 248.589 428.638 241.248 428.638Z" fill="white"/>
<path fill-rule="evenodd" clip-rule="evenodd" d="M112.062 429.518H241.248C244.988 429.518 248.479 427.675 250.584 424.623C252.69 421.57 253.161 417.665 251.803 414.2C250.141 409.91 245.874 407.022 241.248 407.022H103.972C103.667 407.022 103.39 407.16 103.224 407.407C103.058 407.655 103.03 407.957 103.141 408.232L111.231 428.941C111.369 429.298 111.702 429.518 112.062 429.518ZM241.248 408.782C245.154 408.782 248.728 411.23 250.141 414.833C251.304 417.803 250.917 420.993 249.116 423.633C247.315 426.245 244.434 427.758 241.248 427.758H112.671L105.274 408.782H241.248Z" fill="black"/>
<path d="M162.844 428.638H37.9525C32.0237 428.638 26.9815 424.402 25.9564 418.627L10.4142 324.271C9.11206 316.874 14.8469 310.081 22.438 310.081H132.785C138.686 310.081 143.756 314.288 144.781 320.064L162.844 428.638Z" fill="white"/>
<path fill-rule="evenodd" clip-rule="evenodd" d="M162.844 429.518C163.094 429.518 163.343 429.408 163.509 429.215C163.675 428.995 163.758 428.748 163.703 428.473L145.667 319.926C144.559 313.711 139.129 309.174 132.785 309.174H22.438C18.5593 309.174 14.9024 310.879 12.409 313.821C9.91554 316.764 8.86276 320.642 9.55537 324.437L25.0699 418.765C26.1781 425.008 31.5804 429.518 37.9525 429.518H162.844ZM22.438 310.961H132.785C138.27 310.961 142.952 314.839 143.922 320.229L161.791 427.758H37.9525C32.467 427.758 27.7849 423.853 26.8153 418.49L11.3008 324.134C10.719 320.862 11.6332 317.506 13.7664 314.949C15.9274 312.419 19.0857 310.961 22.438 310.961Z" fill="black"/>
<path d="M162.816 428.638H153.702L135.638 320.064C134.613 314.289 129.543 310.053 123.642 310.053H132.785C138.686 310.053 143.756 314.289 144.781 320.064L162.816 428.638Z" fill="black"/>
<path fill-rule="evenodd" clip-rule="evenodd" d="M153.674 429.518H162.816C163.094 429.518 163.343 429.408 163.509 429.188C163.675 428.995 163.758 428.748 163.703 428.473L145.667 319.926C144.559 313.684 139.129 309.174 132.785 309.174H123.642C123.144 309.174 122.756 309.586 122.756 310.054C122.756 310.549 123.144 310.961 123.642 310.961C129.128 310.961 133.81 314.839 134.78 320.229L152.815 428.775C152.871 429.188 153.258 429.518 153.674 429.518ZM161.791 427.73H154.45L136.525 319.926C135.832 316.049 133.45 312.831 130.236 310.961H132.785C138.27 310.961 142.952 314.839 143.894 320.229L161.791 427.73Z" fill="black"/>
<path d="M80.8112 384.444C75.3257 384.444 70.3112 381.034 67.984 376.221C69.2307 376.606 70.5051 376.799 71.835 376.799C78.8719 376.799 83.9972 371.133 83.2769 364.148C83.1107 362.58 82.6397 361.068 81.9748 359.693C87.3494 361.288 91.6436 366.101 92.2254 371.793C92.9734 378.779 87.8481 384.444 80.8112 384.444Z" fill="#71FFCC"/>
<path d="M306.963 216.467C307.268 216.467 307.545 216.33 307.711 216.055C307.96 215.615 307.822 215.092 307.406 214.845C304.802 213.332 303.555 211.545 303.527 209.427C303.444 201.617 319.402 191.854 319.568 191.744C319.984 191.497 320.122 190.947 319.873 190.534C319.596 190.122 319.07 189.984 318.654 190.259C317.961 190.672 301.671 200.654 301.754 209.427C301.782 212.205 303.361 214.542 306.492 216.357C306.64 216.431 306.797 216.467 306.963 216.467Z" fill="black"/>
<path d="M316.216 187.206C316.216 193.669 321.48 198.894 327.99 198.894C334.501 198.894 339.793 193.669 339.793 187.206C339.793 180.744 334.501 175.519 327.99 175.519C321.48 175.519 316.216 180.744 316.216 187.206Z" fill="#BF92FB"/>
<path fill-rule="evenodd" clip-rule="evenodd" d="M327.991 199.774C334.972 199.774 340.679 194.137 340.679 187.206C340.679 180.276 334.972 174.638 327.991 174.638C321.009 174.638 315.33 180.276 315.33 187.206C315.33 194.137 321.009 199.774 327.991 199.774ZM327.991 176.398C334.002 176.398 338.878 181.239 338.878 187.206C338.878 193.174 334.002 198.014 327.991 198.014C321.979 198.014 317.103 193.174 317.103 187.206C317.103 181.239 321.979 176.398 327.991 176.398Z" fill="black"/>
<path d="M358.659 122.937C358.659 122.937 333.615 124.504 323.669 142.297C314 159.595 332.091 197.987 327.159 207.172C322.256 216.33 322.782 239.376 345.749 233.161C368.688 226.945 374.506 201.782 374.506 201.782L358.576 161.218C358.576 161.218 350.376 147.77 349.323 146.863C348.27 145.982 358.659 122.937 358.659 122.937Z" fill="black"/>
<path fill-rule="evenodd" clip-rule="evenodd" d="M338.629 235.086C340.762 235.086 343.173 234.756 345.971 234.013C369.187 227.716 375.337 202.25 375.393 201.975C375.421 201.81 375.421 201.617 375.337 201.452L359.38 160.916C359.361 160.861 359.343 160.815 359.324 160.778C357.496 157.78 351.705 148.32 350.154 146.45C350.32 144.333 355.64 131.792 359.463 123.294C359.601 123.019 359.574 122.689 359.38 122.442C359.213 122.194 358.909 122.029 358.604 122.057C357.551 122.112 332.95 123.844 322.893 141.857C317.103 152.225 320.843 169.221 324.112 184.236C326.273 193.999 328.295 203.212 326.384 206.76C323.392 212.342 322.089 223.59 327.436 230.218C329.376 232.638 332.811 235.086 338.629 235.086ZM373.592 201.837C372.899 204.477 366.444 226.643 345.5 232.308C337.826 234.398 332.202 233.326 328.822 229.118C324.029 223.15 325.275 212.59 327.963 207.585C330.151 203.46 328.268 194.797 325.857 183.851C322.81 169.881 318.987 152.5 324.444 142.71C332.645 128.024 351.733 124.642 357.219 123.982C347.245 146.258 348.187 147.055 348.741 147.55C349.406 148.183 353.894 155.25 357.773 161.631L373.592 201.837Z" fill="black"/>
<path d="M180.935 232.033C180.935 232.033 169.078 242.704 171.516 251.669C171.765 252.576 181.351 263.219 184.925 265.199C196.893 271.8 201.852 272.322 201.852 272.322C206.95 279.17 242.134 340.992 261.971 344.65C282.805 348.472 314.36 310.439 314.36 310.439L287.459 274.357L266.597 293.03L221.495 248.286C218.78 242.154 201.63 215.423 196.893 220.07C192.266 224.608 195.203 230.383 195.369 230.768C194.732 230.136 172.568 209.455 167.166 213.773C161.681 218.145 180.935 232.033 180.935 232.033Z" fill="white"/>
<path fill-rule="evenodd" clip-rule="evenodd" d="M265.046 345.805C285.935 345.805 313.806 312.474 315.052 310.989C315.302 310.686 315.33 310.246 315.08 309.916L288.179 273.835C288.041 273.615 287.791 273.505 287.542 273.477C287.293 273.45 287.043 273.532 286.877 273.697L266.625 291.82L222.243 247.791C219.721 242.264 205.703 219.988 198.915 218.723C197.586 218.475 196.727 218.97 196.256 219.438C193.374 222.27 193.153 225.515 193.541 227.881C186.892 221.94 171.543 209.125 166.612 213.085C165.725 213.773 165.254 214.763 165.282 215.89C165.421 221.143 176.198 229.586 179.55 232.116C176.863 234.756 168.468 243.804 170.657 251.916C171.072 253.346 181.074 264.072 184.481 265.969C194.732 271.607 199.913 272.872 201.353 273.147C202.268 274.44 203.958 277.107 206.202 280.71C217.837 299.163 245.016 342.422 261.804 345.502C262.857 345.704 263.938 345.805 265.046 345.805ZM313.224 310.411C309.318 314.949 280.893 347.207 262.137 343.77C246.124 340.827 219.223 298.036 207.725 279.775C205.26 275.842 203.487 273.01 202.572 271.8C202.434 271.607 202.212 271.47 201.963 271.442C201.907 271.442 196.948 270.81 185.368 264.429C181.932 262.532 173.012 252.549 172.374 251.394C170.158 243.034 181.406 232.776 181.517 232.666C181.739 232.501 181.822 232.226 181.822 231.978C181.794 231.703 181.683 231.456 181.462 231.318C177.5 228.458 167.166 220.098 167.083 215.863C167.055 215.258 167.277 214.818 167.72 214.46C170.851 211.957 183.983 221.308 194.76 231.401C195.092 231.703 195.563 231.731 195.923 231.456C196.256 231.208 196.367 230.741 196.173 230.356C195.896 229.778 193.43 224.69 197.502 220.703C197.696 220.538 197.973 220.345 198.583 220.455C204.235 221.528 217.921 242.401 220.691 248.644C220.728 248.754 220.793 248.845 220.885 248.919L265.988 293.663C266.32 293.993 266.847 294.02 267.207 293.69L287.32 275.65L313.224 310.411Z" fill="black"/>
<path d="M181.268 232.116L191.906 239.981C193.652 241.246 194.039 243.638 192.793 245.289C191.574 246.966 189.164 247.269 187.418 245.976L176.78 238.138C175.034 236.873 174.619 234.481 175.865 232.803C176.503 231.978 177.417 231.483 178.386 231.373C179.356 231.236 180.409 231.483 181.268 232.116Z" fill="white"/>
<path fill-rule="evenodd" clip-rule="evenodd" d="M189.801 247.654C190.004 247.654 190.207 247.645 190.41 247.626C191.657 247.461 192.765 246.829 193.513 245.811C195.064 243.776 194.566 240.834 192.432 239.266L181.794 231.428C180.769 230.658 179.522 230.328 178.275 230.493C177.001 230.658 175.893 231.291 175.145 232.281C174.397 233.298 174.12 234.536 174.314 235.773C174.535 237.011 175.228 238.111 176.253 238.853L186.892 246.691C187.75 247.324 188.748 247.654 189.801 247.654ZM178.885 232.226C179.55 232.226 180.187 232.446 180.741 232.831L191.38 240.669C192.71 241.659 193.042 243.501 192.1 244.766C191.629 245.371 190.964 245.756 190.188 245.866C189.385 245.976 188.609 245.756 187.944 245.289L177.306 237.423C176.641 236.956 176.225 236.268 176.087 235.471C175.948 234.701 176.142 233.958 176.585 233.353C177.029 232.748 177.721 232.336 178.497 232.253C178.626 232.235 178.756 232.226 178.885 232.226Z" fill="black"/>
<path d="M177.029 238.386L187.307 245.949C188.97 247.159 189.357 249.469 188.166 251.064C186.975 252.686 184.648 252.961 182.958 251.724L172.707 244.189C171.017 242.951 170.629 240.641 171.821 239.046C172.43 238.248 173.317 237.753 174.259 237.643C175.2 237.533 176.198 237.753 177.029 238.386Z" fill="white"/>
<path fill-rule="evenodd" clip-rule="evenodd" d="M185.257 253.374C185.46 253.374 185.663 253.365 185.867 253.346C187.086 253.181 188.166 252.576 188.886 251.586C189.607 250.624 189.884 249.441 189.69 248.231C189.496 247.021 188.831 245.949 187.834 245.234L177.555 237.671C176.558 236.928 175.367 236.598 174.148 236.763C172.929 236.928 171.848 237.533 171.128 238.523C169.632 240.503 170.103 243.364 172.181 244.876L182.431 252.439C183.262 253.071 184.26 253.374 185.257 253.374ZM176.502 239.073L186.781 246.636C187.39 247.104 187.806 247.764 187.944 248.506C188.055 249.249 187.889 249.964 187.446 250.541C187.03 251.119 186.365 251.504 185.617 251.586C184.869 251.696 184.121 251.476 183.484 251.036L173.233 243.474C171.959 242.511 171.654 240.778 172.541 239.568C172.984 238.991 173.621 238.606 174.369 238.523C175.117 238.413 175.893 238.633 176.502 239.073Z" fill="black"/>
<path d="M174.563 245.591L183.235 251.971C184.648 253.016 184.869 255.052 183.761 256.537C182.653 258.022 180.63 258.379 179.218 257.334L171.266 251.476C169.881 250.459 168.912 247.874 170.02 246.389C170.574 245.646 171.35 245.179 172.181 245.041C173.012 244.904 173.871 245.069 174.563 245.591Z" fill="white"/>
<path fill-rule="evenodd" clip-rule="evenodd" d="M181.046 258.819C182.32 258.819 183.623 258.186 184.481 257.059C185.894 255.189 185.562 252.576 183.761 251.256L175.117 244.876C174.231 244.243 173.123 243.968 172.014 244.188C170.934 244.353 169.964 244.958 169.299 245.866C167.886 247.736 168.939 250.871 170.74 252.191L178.691 258.049C179.384 258.571 180.215 258.819 181.046 258.819ZM174.037 246.306L182.681 252.686C183.706 253.429 183.872 254.914 183.068 256.014C182.237 257.086 180.769 257.361 179.744 256.619L171.82 250.789C170.712 249.964 169.992 247.901 170.712 246.911C171.128 246.389 171.682 246.031 172.319 245.921C172.956 245.811 173.566 245.949 174.037 246.306Z" fill="black"/>
<path d="M195.397 230.768C195.397 230.768 196.533 237.726 200.744 240.393C200.744 240.393 198.583 244.409 199.22 248.781C199.83 253.154 203.32 255.079 203.32 255.079" fill="white"/>
<path d="M203.32 255.959C203.625 255.959 203.93 255.794 204.096 255.492C204.346 255.079 204.179 254.529 203.764 254.309C203.625 254.227 200.661 252.494 200.107 248.644C199.525 244.629 201.52 240.834 201.52 240.806C201.741 240.394 201.603 239.898 201.215 239.651C197.392 237.231 196.283 230.686 196.256 230.631C196.2 230.136 195.729 229.806 195.258 229.888C194.76 229.971 194.427 230.411 194.51 230.906C194.566 231.181 195.646 237.616 199.636 240.669C198.999 242.071 197.835 245.344 198.334 248.891C199.026 253.649 202.739 255.767 202.905 255.849C203.034 255.922 203.173 255.959 203.32 255.959Z" fill="black"/>
<path d="M325.026 242.759C325.026 242.759 317.657 244.299 306.437 250.899C295.189 257.499 275.02 275.815 275.02 275.815C268.952 280.105 301.034 324.712 307.101 320.422L343.727 283.35L325.026 242.759Z" fill="white"/>
<path d="M307.101 320.422L315.413 312.006C308.126 310.274 287.653 280.105 284.522 268.39C282.5 270.452 275.019 275.815 275.019 275.815C268.952 280.105 301.034 324.712 307.101 320.422Z" fill="#FEC524"/>
<path fill-rule="evenodd" clip-rule="evenodd" d="M306.132 321.604C306.686 321.604 307.184 321.457 307.628 321.164C307.665 321.127 307.702 321.091 307.739 321.054L344.364 283.955C344.641 283.708 344.696 283.295 344.53 282.965L324.86 242.236C324.694 241.878 324.334 241.686 323.973 241.741C323.724 241.741 318.211 242.401 306.935 249.001C295.881 255.491 275.768 273.945 274.465 275.127C269.617 278.73 282.888 297.816 285.603 301.611C289.869 307.551 294.247 312.804 297.959 316.434C301.533 319.899 304.22 321.604 306.132 321.604ZM306.52 319.734C305.744 320.174 303.417 319.239 299.206 315.169C295.576 311.621 291.254 306.451 287.071 300.593C282.943 294.818 279.508 289.18 277.374 284.725C274.881 279.472 274.826 277.025 275.546 276.53C275.564 276.511 275.592 276.484 275.629 276.447C275.851 276.255 296.823 257.004 307.849 250.514C316.715 245.316 321.868 243.941 323.558 243.584L342.674 283.185L306.52 319.734Z" fill="black"/>
<path d="M306.464 275.265C303.721 338.407 313.335 352.02 312.421 356.255C311.894 358.62 308.043 412.632 304.746 428.638H446.787L431.688 354.055C431.688 354.055 451.275 271.305 439.612 250.789C433.378 239.871 415.509 236.736 393.678 235.581C389.328 235.333 384.84 235.196 380.269 235.058C361.541 234.563 346.636 236.846 336.385 239.101C328.766 240.806 323.752 242.484 321.702 242.951" fill="white"/>
<path d="M304.746 429.518H446.787C447.064 429.518 447.314 429.38 447.48 429.188C447.646 428.968 447.701 428.72 447.646 428.445L432.603 354.083C433.877 348.637 451.94 270.645 440.36 250.376C433.572 238.413 413.93 235.773 393.705 234.701C389.938 234.481 385.782 234.316 380.269 234.178C365.17 233.766 350.348 235.141 336.191 238.248C331.093 239.376 327.132 240.503 324.5 241.273C323.198 241.631 322.172 241.933 321.508 242.071C321.037 242.181 320.732 242.649 320.843 243.144C320.953 243.611 321.424 243.914 321.895 243.804C322.616 243.639 323.669 243.336 324.998 242.951C327.603 242.208 331.537 241.081 336.579 239.981C350.597 236.901 365.281 235.526 380.241 235.938C385.727 236.103 389.854 236.241 393.622 236.461C412.378 237.451 432.436 240.008 438.836 251.229C450.195 271.222 431.023 353.038 430.829 353.863C430.811 353.991 430.811 354.119 430.829 354.248L445.707 427.73H305.827C308.154 415.575 310.62 386.534 312.116 368.961C312.698 362.305 313.141 357.053 313.279 356.448C313.556 355.183 313.141 353.56 312.393 350.617C310.26 342.285 305.273 322.786 307.351 275.292C307.378 274.797 306.99 274.385 306.492 274.385C305.993 274.357 305.605 274.715 305.577 275.21C303.5 322.979 308.514 342.642 310.647 351.057C311.312 353.56 311.728 355.238 311.534 356.063C311.395 356.778 311.035 360.71 310.343 368.823C308.819 386.864 306.215 417.087 303.887 428.445C303.832 428.72 303.888 428.968 304.054 429.188C304.248 429.38 304.497 429.518 304.746 429.518Z" fill="black"/>
<path d="M358.881 257.967L359.047 258.104L365.835 275.21C365.835 275.21 398 264.347 412.711 237.423L399.717 235.966L364.644 249.304L358.881 257.967Z" fill="#FEC524"/>
<path fill-rule="evenodd" clip-rule="evenodd" d="M365.835 276.09C365.927 276.09 366.029 276.071 366.14 276.035C366.444 275.925 398.775 264.759 413.514 237.836C413.653 237.588 413.653 237.286 413.514 237.011C413.376 236.763 413.126 236.571 412.822 236.543L399.828 235.086C399.68 235.067 399.542 235.086 399.413 235.141L364.339 248.506C364.145 248.561 364.006 248.671 363.895 248.836L358.133 257.499C357.884 257.857 357.967 258.379 358.299 258.654L365.004 275.512C365.142 275.87 365.475 276.09 365.835 276.09ZM411.298 238.138C397.944 261.349 371.293 272.212 366.361 274.082L359.961 257.967L365.225 250.046L399.856 236.873L411.298 238.138Z" fill="black"/>
<path d="M268.121 381.969C268.121 381.969 263.079 385.709 270.531 389.586C278.012 393.464 314.859 390.549 314.859 390.549L410.439 403.089C427.2 405.015 443.38 391.402 442.632 374.708L446.787 301.143L397.723 300.813L394.176 360.27L321.757 355.155C321.757 355.155 316.881 336.95 308.958 339.37C301.062 341.79 309.124 352.983 309.124 352.983C309.124 352.983 273.163 345.915 269.728 350.92C266.348 355.815 284.965 362.663 285.741 362.965C285.021 362.883 268.093 361.535 264.88 364.423C261.555 367.338 264.575 371.381 268.093 372.316C268.093 372.316 260.17 377.101 268.121 381.969Z" fill="white"/>
<path fill-rule="evenodd" clip-rule="evenodd" d="M413.542 404.162C421.105 404.162 428.724 401.164 434.431 395.884C440.554 390.219 443.851 382.491 443.518 374.708L447.674 301.198C447.702 300.951 447.591 300.703 447.424 300.538C447.258 300.373 447.037 300.263 446.787 300.263L397.75 299.933C397.307 299.933 396.864 300.291 396.836 300.758L393.345 359.335L322.45 354.33C321.674 351.745 318.488 341.9 313.335 339.067C311.811 338.242 310.26 338.049 308.708 338.544C306.741 339.122 305.467 340.277 304.913 341.9C303.832 345.09 305.882 349.352 307.268 351.745C298.236 350.04 272.277 345.64 268.98 350.425C268.426 351.25 268.287 352.213 268.592 353.175C269.645 356.42 275.795 359.693 280.477 361.755C274.604 361.563 266.597 361.673 264.27 363.763C262.857 365.028 262.275 366.623 262.691 368.301C263.079 370.006 264.492 371.628 266.293 372.563C265.157 373.553 263.688 375.231 263.688 377.293C263.688 379.026 264.713 380.649 266.736 382.079C266.126 382.794 265.461 383.921 265.572 385.296C265.739 387.166 267.262 388.871 270.116 390.356C277.624 394.262 312.337 391.649 314.831 391.456L410.328 403.969C411.399 404.098 412.471 404.162 413.542 404.162ZM445.845 302.023L441.745 374.653C441.745 374.672 441.745 374.699 441.745 374.736C442.077 382.024 438.975 389.256 433.212 394.592C427.062 400.284 418.584 403.144 410.55 402.209L314.969 389.696C314.914 389.678 314.859 389.669 314.803 389.669C314.415 389.696 278.122 392.501 270.947 388.789C268.703 387.634 267.456 386.369 267.345 385.159C267.235 383.756 268.647 382.684 268.647 382.656C268.897 382.491 269.035 382.216 269.008 381.914C269.008 381.611 268.841 381.364 268.592 381.199C266.514 379.934 265.461 378.613 265.461 377.293C265.489 375.011 268.537 373.113 268.564 373.086C268.869 372.893 269.035 372.563 268.98 372.206C268.925 371.848 268.675 371.573 268.343 371.463C266.431 370.968 264.769 369.456 264.409 367.888C264.159 366.843 264.52 365.908 265.461 365.083C267.456 363.295 277.042 363.158 285.63 363.818C286.074 363.873 286.517 363.57 286.6 363.13C286.683 362.718 286.489 362.278 286.046 362.113C280.256 359.995 271.279 355.733 270.282 352.653C270.144 352.185 270.199 351.8 270.448 351.415C272.72 348.142 295.271 351.167 308.958 353.863C309.318 353.945 309.678 353.78 309.872 353.478C310.066 353.175 310.066 352.763 309.844 352.488C308.597 350.727 305.55 345.53 306.603 342.477C306.963 341.377 307.822 340.635 309.207 340.222C310.315 339.892 311.395 340.002 312.476 340.607C317.629 343.44 320.87 355.265 320.898 355.403C321.009 355.76 321.314 356.035 321.702 356.063L394.121 361.15C394.37 361.178 394.592 361.095 394.758 360.958C394.952 360.793 395.063 360.573 395.063 360.325L398.581 301.721L445.845 302.023Z" fill="black"/>
<path d="M284.716 374.681C285.159 374.681 285.547 374.323 285.603 373.856C285.63 373.388 285.27 372.948 284.799 372.921L268.177 371.436C267.678 371.408 267.262 371.766 267.207 372.233C267.179 372.728 267.539 373.168 268.01 373.196L284.633 374.681C284.651 374.681 284.679 374.681 284.716 374.681Z" fill="black"/>
<path d="M284.882 383.866C285.326 383.866 285.713 383.509 285.769 383.041C285.797 382.546 285.409 382.134 284.91 382.106L268.177 381.061C267.678 381.034 267.262 381.419 267.235 381.886C267.207 382.381 267.595 382.794 268.066 382.821L284.799 383.866C284.836 383.866 284.864 383.866 284.882 383.866Z" fill="black"/>
<path d="M437.312 247.709C437.312 247.709 447.979 257.004 449.89 278.482C451.774 299.961 451.303 320.971 451.303 320.971C450.888 327.187 392.403 320.724 392.819 314.509C392.819 314.509 396.587 290.335 399.607 276.365" fill="white"/>
<path d="M392.819 314.509C392.403 320.724 450.887 327.187 451.303 320.971C451.303 320.971 451.303 312.666 451.303 308.624C440.443 311.264 402.737 305.846 394.592 300.813C393.927 304.911 392.819 314.509 392.819 314.509Z" fill="#FEC524"/>
<path d="M439.307 324.327C444.543 324.327 448.671 323.942 450.583 323.007C451.58 322.512 452.134 321.852 452.19 321.026C452.19 320.779 452.633 299.686 450.777 278.4C448.865 256.839 438.365 247.434 437.894 247.049C437.534 246.719 436.98 246.746 436.648 247.131C436.315 247.489 436.37 248.039 436.731 248.369C436.841 248.451 447.147 257.747 449.004 278.565C450.86 299.741 450.417 320.751 450.389 320.944C450.389 320.999 450.278 321.191 449.779 321.411C442.826 324.822 402.045 320.421 394.564 315.471C393.872 315.004 393.706 314.674 393.706 314.591C393.733 314.426 397.501 290.335 400.493 276.557C400.576 276.09 400.272 275.622 399.801 275.512C399.33 275.402 398.859 275.705 398.748 276.172C395.756 290.005 391.988 314.151 391.932 314.399C391.877 315.334 392.431 316.186 393.567 316.929C399.524 320.889 424.07 324.327 439.307 324.327Z" fill="black"/>
<path d="M358.881 257.967L340.652 269.902C340.652 269.902 331.204 257.802 331.26 240.338L337.272 238.908L347.966 249.166L358.881 257.967Z" fill="#FEC524"/>
<path fill-rule="evenodd" clip-rule="evenodd" d="M340.652 270.782C340.818 270.782 340.984 270.727 341.15 270.617L359.38 258.709C359.601 258.572 359.768 258.297 359.768 258.022C359.795 257.747 359.657 257.472 359.435 257.307L348.547 248.479L337.881 238.276C337.659 238.084 337.355 238.001 337.05 238.056L331.038 239.486C330.65 239.569 330.373 239.926 330.373 240.339C330.318 257.912 339.543 269.93 339.959 270.425C340.125 270.645 340.374 270.782 340.652 270.782ZM357.385 257.912L340.873 268.692C339.017 265.997 332.34 255.354 332.146 241.026L336.995 239.899L347.356 249.799L357.385 257.912Z" fill="black"/>
<path d="M336.385 239.101C337.742 247.984 347.467 257.554 358.881 257.967C375.781 258.599 394.924 246.911 399.773 235.966C399.754 235.966 399.736 235.966 399.717 235.966C394.786 235.691 390.769 231.951 390.132 227.055C388.719 216.303 390.076 204.78 393.983 193.367L340.014 200.599C340.014 200.599 347.744 215.89 348.021 228.348C348.132 233.106 344.724 237.258 340.042 238.303C338.463 238.661 337.05 238.963 336.385 239.101Z" fill="white"/>
<path fill-rule="evenodd" clip-rule="evenodd" d="M360.183 258.874C377.415 258.874 395.839 246.994 400.604 236.323C400.715 236.048 400.687 235.746 400.548 235.498C400.382 235.251 400.133 235.113 399.828 235.086C395.285 234.838 391.6 231.428 391.018 226.946C389.633 216.468 390.963 204.945 394.814 193.642C394.924 193.339 394.869 193.037 394.675 192.789C394.481 192.569 394.176 192.432 393.872 192.487L339.903 199.72C339.626 199.747 339.377 199.912 339.239 200.187C339.1 200.435 339.1 200.737 339.239 200.985C339.294 201.15 346.857 216.248 347.134 228.348C347.245 232.666 344.17 236.461 339.848 237.451C338.269 237.781 336.856 238.111 336.191 238.248C335.748 238.358 335.443 238.771 335.526 239.238C336.884 248.176 346.774 258.407 358.853 258.874C359.297 258.874 359.74 258.874 360.183 258.874ZM398.443 236.708C393.041 246.856 375.227 257.692 358.909 257.087C348.076 256.702 339.128 247.819 337.41 239.788C338.158 239.623 339.155 239.403 340.236 239.156C345.389 238.001 349.046 233.463 348.907 228.321C348.658 217.595 343.145 205.082 341.344 201.315L392.68 194.412C389.079 205.55 387.888 216.853 389.245 227.193C389.91 232.061 393.678 235.911 398.443 236.708Z" fill="black"/>
<path d="M393.983 193.367C393.983 193.367 406.533 187.399 403.596 176.591C400.687 165.866 389.3 175.519 389.3 175.519C389.3 175.519 390.797 164.408 387.832 154.7C382.956 138.667 363.785 126.347 345.915 132.452C344.558 132.92 343.228 133.47 341.898 134.157C315.385 147.715 317.823 210.967 343.533 218.613C355.113 222.05 365.087 219.355 373.066 214.653" fill="white"/>
<path d="M353.977 221.06C360.626 221.06 367.165 219.163 373.509 215.422C373.952 215.175 374.091 214.625 373.814 214.212C373.564 213.772 373.038 213.635 372.595 213.91C363.314 219.383 353.617 220.703 343.81 217.76C333.476 214.68 325.996 201.562 324.333 183.549C322.644 165.426 327.547 142.49 342.314 134.955C343.56 134.295 344.863 133.745 346.22 133.277C353.811 130.692 362.233 131.379 369.907 135.285C378.108 139.437 384.508 146.807 386.973 154.948C389.855 164.353 388.442 175.299 388.442 175.409C388.386 175.766 388.552 176.124 388.885 176.289C389.217 176.481 389.605 176.426 389.882 176.206C389.938 176.151 395.589 171.421 399.468 172.603C401.019 173.071 402.1 174.501 402.737 176.811C405.452 186.794 393.705 192.514 393.595 192.569C393.151 192.762 392.957 193.284 393.179 193.724C393.401 194.164 393.927 194.357 394.37 194.164C394.509 194.082 407.53 187.756 404.455 176.371C403.651 173.401 402.155 171.586 399.994 170.926C396.642 169.881 392.625 172.108 390.381 173.621C390.686 169.908 390.935 161.851 388.691 154.425C386.059 145.845 379.355 138.09 370.711 133.717C362.593 129.592 353.7 128.849 345.638 131.627C344.198 132.094 342.812 132.699 341.483 133.387C325.996 141.307 320.815 165.013 322.56 183.686C324.306 202.47 332.257 216.165 343.283 219.465C346.866 220.529 350.431 221.06 353.977 221.06Z" fill="black"/>
<path d="M332.202 159.321C349.849 168.863 378.136 157.45 378.136 157.45C378.136 157.45 387.084 158.578 389.301 175.519C389.301 175.519 400.687 165.866 403.596 176.591C406.533 187.399 393.983 193.367 393.983 193.367C389.827 204.285 387.5 228.211 392.431 232.308C400.299 234.893 417.947 235.113 423.848 229.668C430.885 223.178 417.005 167.791 417.005 167.791C417.005 167.791 417.642 148.568 405.175 136.907C392.736 125.219 356.831 111.661 338.546 128.629C331.814 134.872 316.992 151.125 332.202 159.321Z" fill="black"/>
<path fill-rule="evenodd" clip-rule="evenodd" d="M405.979 234.976C413.32 234.976 420.884 233.628 424.458 230.328C431.633 223.7 419.443 173.951 417.892 167.681C417.919 165.838 418.002 147.715 405.785 136.275C392.32 123.652 356.332 110.919 337.936 127.997C333.587 132.012 323.641 142.325 324.777 151.098C325.248 154.838 327.603 157.863 331.758 160.118C348.907 169.358 375.171 159.568 378.219 158.385C379.465 158.688 386.502 161.053 388.442 175.629C388.469 175.959 388.691 176.234 388.996 176.344C389.301 176.454 389.633 176.399 389.882 176.206C389.938 176.151 395.589 171.421 399.468 172.603C401.02 173.071 402.1 174.501 402.737 176.811C405.425 186.794 394.093 192.322 393.595 192.569C393.401 192.652 393.235 192.844 393.151 193.037C389.245 203.295 386.17 228.266 391.849 232.996C391.942 233.051 392.043 233.097 392.154 233.133C395.673 234.288 400.77 234.976 405.979 234.976ZM361.596 121.617C377.997 121.617 396.199 129.702 404.566 137.54C416.589 148.815 416.118 167.571 416.118 167.763C416.1 167.837 416.1 167.91 416.118 167.983C421.659 190.067 428.142 224.525 423.238 229.036C417.892 233.986 400.881 234.068 392.874 231.511C388.83 227.688 390.492 205.357 394.703 193.972C396.725 192.899 407.253 186.712 404.455 176.371C403.651 173.401 402.155 171.586 399.994 170.926C396.421 169.826 392.071 172.411 389.965 173.896C387.361 157.89 378.607 156.625 378.246 156.57C378.08 156.552 377.923 156.58 377.775 156.653C377.498 156.763 349.683 167.763 332.617 158.55C328.988 156.598 326.938 154.013 326.522 150.878C325.497 142.902 335 133.112 339.128 129.289C345.056 123.789 353.091 121.617 361.596 121.617Z" fill="black"/>
<path d="M363.674 178.021C363.452 180.166 361.956 181.761 360.322 181.596C358.687 181.431 357.524 179.561 357.717 177.444C357.939 175.298 359.435 173.703 361.097 173.868C362.732 174.033 363.896 175.903 363.674 178.021Z" fill="black"/>
<path d="M339.903 175.794C339.71 177.939 338.186 179.534 336.551 179.369C334.917 179.204 333.753 177.334 333.975 175.216C334.169 173.099 335.692 171.503 337.327 171.668C338.962 171.806 340.125 173.676 339.903 175.794Z" fill="black"/>
<path d="M356.665 170.266C356.665 170.266 362.039 167.488 367.608 173.153L356.665 170.266Z" fill="white"/>
<path d="M367.608 174.033C367.83 174.033 368.051 173.951 368.245 173.786C368.578 173.456 368.605 172.878 368.245 172.521C362.289 166.471 356.332 169.441 356.249 169.468C355.833 169.716 355.667 170.238 355.889 170.678C356.111 171.091 356.637 171.283 357.08 171.036C357.302 170.953 361.984 168.671 366.971 173.758C367.165 173.951 367.386 174.033 367.608 174.033Z" fill="black"/>
<path d="M332.783 168.478C332.783 168.478 338.158 165.701 343.727 171.366L332.783 168.478Z" fill="white"/>
<path d="M343.727 172.246C343.948 172.246 344.17 172.163 344.364 171.998C344.696 171.668 344.724 171.091 344.364 170.761C338.407 164.683 332.423 167.653 332.368 167.681C331.952 167.928 331.758 168.451 332.008 168.891C332.229 169.303 332.756 169.496 333.199 169.276C333.393 169.166 338.103 166.883 343.089 171.971C343.283 172.163 343.505 172.246 343.727 172.246Z" fill="black"/>
<path d="M349.129 176.784C347.928 180.707 346.728 184.631 345.527 188.554C345.25 189.489 344.946 190.452 345.14 191.414C345.361 192.652 346.386 193.642 347.55 194.192C348.713 194.714 349.988 194.879 351.262 195.044" fill="white"/>
<path d="M351.262 195.924C351.705 195.924 352.093 195.594 352.149 195.154C352.204 194.659 351.844 194.219 351.373 194.164C350.182 194.027 348.963 193.862 347.91 193.394C346.885 192.899 346.165 192.102 345.998 191.249C345.86 190.479 346.137 189.599 346.386 188.802L349.988 177.059C350.126 176.591 349.877 176.096 349.406 175.959C348.935 175.794 348.436 176.069 348.298 176.536L344.669 188.279C344.392 189.214 344.031 190.397 344.253 191.579C344.53 192.982 345.61 194.274 347.162 194.989C348.464 195.594 349.877 195.759 351.151 195.924C351.188 195.924 351.225 195.924 351.262 195.924Z" fill="black"/>
<path d="M358.659 202.442C355.418 204.917 351.318 205.632 347.661 204.422L358.659 202.442Z" fill="white"/>
<path d="M351.235 205.88C354.033 205.88 356.831 204.945 359.186 203.157C359.574 202.854 359.657 202.304 359.352 201.919C359.047 201.534 358.493 201.452 358.105 201.754C355.141 204.009 351.318 204.697 347.938 203.597C347.467 203.432 346.968 203.679 346.802 204.147C346.636 204.615 346.913 205.11 347.356 205.275C348.63 205.687 349.932 205.88 351.235 205.88Z" fill="black"/>
<path d="M399.69 175.849C406.228 173.841 411.741 169.524 416.229 165.508C420.828 161.383 429.777 167.076 427.671 175.986C425.677 184.374 408.998 185.584 401.352 188.829L399.69 175.849Z" fill="white"/>
<path fill-rule="evenodd" clip-rule="evenodd" d="M401.352 189.709C401.463 189.709 401.574 189.682 401.684 189.627C403.818 188.747 406.699 187.977 409.746 187.179C417.836 185.089 426.979 182.696 428.53 176.179C429.943 170.321 426.923 166.196 423.931 164.436C421.05 162.731 417.781 162.923 415.62 164.848C411.547 168.506 406.034 172.961 399.413 174.996C398.997 175.134 398.748 175.519 398.803 175.959L400.465 188.939C400.493 189.214 400.659 189.462 400.909 189.599C401.038 189.672 401.186 189.709 401.352 189.709ZM419.858 165.013C420.884 165.013 421.964 165.343 423.017 165.948C425.51 167.406 427.976 170.843 426.812 175.766C425.51 181.239 416.894 183.494 409.303 185.474C406.671 186.162 404.15 186.822 402.072 187.592L400.659 176.454C407.281 174.226 412.738 169.826 416.811 166.168C417.67 165.398 418.723 165.013 419.858 165.013Z" fill="black"/>
<path d="M382.319 183.109C382.319 189.571 387.611 194.797 394.121 194.797C400.632 194.797 405.895 189.571 405.895 183.109C405.895 176.646 400.632 171.393 394.121 171.393C387.611 171.393 382.319 176.646 382.319 183.109Z" fill="white"/>
<path fill-rule="evenodd" clip-rule="evenodd" d="M394.121 195.677C401.103 195.677 406.782 190.039 406.782 183.109C406.782 176.179 401.103 170.513 394.121 170.513C387.14 170.513 381.432 176.179 381.432 183.109C381.432 190.039 387.14 195.677 394.121 195.677ZM394.121 172.301C400.133 172.301 405.009 177.141 405.009 183.109C405.009 189.077 400.133 193.917 394.121 193.917C388.109 193.917 383.233 189.077 383.233 183.109C383.233 177.141 388.109 172.301 394.121 172.301Z" fill="black"/>
<path d="M387.749 183.109C387.749 186.574 390.603 189.407 394.121 189.407C397.612 189.407 400.465 186.574 400.465 183.109C400.465 179.616 397.612 176.784 394.121 176.784C390.603 176.784 387.749 179.616 387.749 183.109Z" fill="#BF92FB"/>
<path d="M316.493 218.42C328.24 218.42 343.2 213.25 344.031 212.948C344.502 212.783 344.724 212.288 344.585 211.82C344.419 211.352 343.893 211.132 343.449 211.27C343.172 211.38 317.019 220.428 307.406 214.845C306.963 214.598 306.436 214.735 306.187 215.148C305.938 215.56 306.076 216.11 306.492 216.358C309.068 217.843 312.587 218.42 316.493 218.42Z" fill="black"/>
<path d="M340.319 210.665C340.319 212.727 342.009 214.405 344.114 214.405C346.192 214.405 347.882 212.727 347.882 210.665C347.882 208.575 346.192 206.897 344.114 206.897C342.009 206.897 340.319 208.575 340.319 210.665Z" fill="black"/>
<path fill-rule="evenodd" clip-rule="evenodd" d="M344.115 215.312C346.691 215.312 348.797 213.222 348.797 210.665C348.797 208.107 346.691 206.017 344.115 206.017C341.538 206.017 339.432 208.107 339.432 210.665C339.432 213.222 341.538 215.312 344.115 215.312ZM344.115 207.777C345.694 207.777 346.996 209.07 346.996 210.665C346.996 212.232 345.694 213.525 344.115 213.525C342.508 213.525 341.206 212.232 341.206 210.665C341.206 209.07 342.508 207.777 344.115 207.777Z" fill="black"/>
<path d="M77.6099 277.575L71.8475 272.68L79.4385 257.307L85.3672 253.237L82.9292 275.21C82.8738 277.905 79.6878 279.335 77.6099 277.575Z" fill="#71FFCC"/>
<path fill-rule="evenodd" clip-rule="evenodd" d="M79.7155 279.225C80.2696 279.225 80.8514 279.115 81.4055 278.867C82.8739 278.207 83.7881 276.805 83.8435 275.21L86.2538 253.319C86.2815 252.989 86.1153 252.659 85.8105 252.466C85.5335 252.301 85.1456 252.302 84.8686 252.522L78.9398 256.592C78.8105 256.665 78.7182 256.775 78.6628 256.922L71.044 272.295C70.8778 272.652 70.9609 273.092 71.2657 273.34L77.0282 278.235C77.8039 278.895 78.7459 279.225 79.7155 279.225ZM84.2591 255.079L82.0427 275.1C82.0427 276.09 81.5163 276.887 80.6852 277.245C79.8264 277.63 78.9121 277.492 78.1918 276.887L72.9557 272.46L80.1588 257.912L84.2591 255.079Z" fill="black"/>
<path d="M78.7182 261.294L66.8608 285.33L34.5851 230.768C33.1167 228.266 35.4162 225.213 38.2697 225.955L105.896 243.529L84.4531 256.262" fill="#71FFCC"/>
<path d="M66.8606 286.21C66.8606 286.21 66.8698 286.21 66.8883 286.21C67.2207 286.21 67.4978 286.018 67.664 285.715L79.5216 261.679C79.7432 261.239 79.5493 260.717 79.106 260.497C78.6627 260.277 78.1363 260.469 77.9147 260.909L66.7775 283.46L35.3606 230.3C34.7511 229.31 35.0559 228.293 35.5268 227.688C35.9978 227.055 36.8844 226.505 38.0202 226.808L103.597 243.858L83.982 255.491C83.5664 255.739 83.4279 256.289 83.6772 256.701C83.9543 257.114 84.4806 257.251 84.8962 257.004L106.339 244.298C106.644 244.106 106.81 243.748 106.755 243.418C106.727 243.061 106.45 242.758 106.118 242.676L38.4912 225.103C36.8289 224.663 35.139 225.24 34.0862 226.615C33.0611 227.963 32.9503 229.723 33.8368 231.208L66.0849 285.77C66.2511 286.045 66.5282 286.21 66.8606 286.21Z" fill="black"/>
<path d="M25.1252 226.946L58.3428 251.751L25.1252 226.946Z" fill="white"/>
<path d="M68.1904 252.631C68.4398 252.631 68.7168 252.494 68.883 252.274C69.1878 251.889 69.1047 251.339 68.7169 251.036L35.5269 226.23C35.1113 225.955 34.5572 226.01 34.2802 226.423C33.9754 226.808 34.0586 227.358 34.4464 227.661L67.6363 252.439C67.8026 252.576 67.9965 252.631 68.1904 252.631Z" fill="black"/>
<path d="M0.468246 130.857C0.468246 168.808 39.2545 199.582 87.0724 199.582C104.997 199.582 121.648 195.264 135.472 187.867L160.877 190.699L153.314 175.134C166.03 163.171 173.677 147.715 173.677 130.857C173.677 92.8781 134.918 62.132 87.0724 62.132C39.2545 62.132 0.468246 92.8781 0.468246 130.857Z" fill="white"/>
<path fill-rule="evenodd" clip-rule="evenodd" d="M87.0724 200.462C104.471 200.462 121.26 196.419 135.638 188.774L160.794 191.579C161.099 191.607 161.431 191.469 161.625 191.194C161.791 190.947 161.819 190.589 161.681 190.314L154.422 175.326C167.415 162.868 174.563 147.083 174.563 130.857C174.563 92.4656 135.334 61.2245 87.0724 61.2245C38.8389 61.2245 -0.418274 92.4656 -0.418274 130.857C-0.418274 169.248 38.8389 200.462 87.0724 200.462ZM135.472 186.987C135.324 186.987 135.177 187.023 135.029 187.097C120.872 194.687 104.277 198.702 87.0724 198.702C39.8086 198.702 1.35478 168.258 1.35478 130.857C1.35478 93.4282 39.8086 63.0121 87.0724 63.0121C134.336 63.0121 172.79 93.4282 172.79 130.857C172.79 146.808 165.67 162.291 152.704 174.474C152.427 174.749 152.344 175.161 152.538 175.519L159.381 189.627L135.555 186.987C135.537 186.987 135.509 186.987 135.472 186.987Z" fill="black"/>
<path d="M97.0461 172.576L102.919 198.427C104.637 198.179 106.355 197.904 108.045 197.547C110.538 197.079 113.004 196.502 115.386 195.814C115.996 195.677 116.578 195.512 117.16 195.319C121.648 193.999 125.97 192.404 130.098 190.507L127.743 189.242C127.724 189.242 127.715 189.242 127.715 189.242L113.503 181.514L99.9827 174.143L97.0461 172.576Z" fill="white"/>
<path fill-rule="evenodd" clip-rule="evenodd" d="M102.919 199.307C102.956 199.307 102.993 199.307 103.03 199.307C104.831 199.06 106.576 198.757 108.239 198.427C110.677 197.96 113.17 197.355 115.636 196.667C116.218 196.529 116.827 196.337 117.409 196.172C121.897 194.852 126.302 193.229 130.485 191.332C130.79 191.194 130.984 190.892 130.984 190.562C131.012 190.232 130.818 189.902 130.541 189.737L128.158 188.444C128.14 188.444 128.112 188.435 128.075 188.417L97.4894 171.806C97.1569 171.641 96.7968 171.669 96.5197 171.861C96.2427 172.081 96.1042 172.439 96.1873 172.769L102.033 198.62C102.144 199.032 102.504 199.307 102.919 199.307ZM128.103 190.452C124.501 191.992 120.733 193.367 116.91 194.467C116.328 194.659 115.747 194.824 115.165 194.962C112.727 195.649 110.289 196.227 107.879 196.695C106.521 196.97 105.08 197.217 103.584 197.437L98.3483 174.281L127.299 190.012C127.318 190.03 127.346 190.039 127.383 190.039L128.103 190.452Z" fill="black"/>
<path d="M99.5948 180.331L108.045 197.547C110.538 197.079 113.004 196.502 115.386 195.814C115.996 195.677 116.578 195.512 117.159 195.319C121.648 193.999 125.969 192.404 130.097 190.507C132.175 189.572 134.198 188.554 136.165 187.482C136.349 187.39 136.534 187.298 136.719 187.207C133.062 178.269 127.05 165.178 121.62 161.356C115.663 157.148 108.571 155.003 104.526 154.04C102.531 153.573 101.257 153.38 101.257 153.38L99.9827 174.144L99.5948 180.331Z" fill="white"/>
<path fill-rule="evenodd" clip-rule="evenodd" d="M108.045 198.427C108.1 198.427 108.165 198.427 108.239 198.427C110.677 197.959 113.17 197.354 115.636 196.667C116.218 196.529 116.827 196.337 117.409 196.172C121.897 194.852 126.302 193.229 130.485 191.332C132.48 190.424 134.53 189.379 136.58 188.279L137.134 187.976C137.522 187.756 137.716 187.289 137.522 186.876C133.505 177.004 127.576 164.463 122.146 160.64C115.968 156.295 108.599 154.095 104.748 153.188C102.726 152.693 101.451 152.5 101.396 152.5C101.146 152.473 100.897 152.528 100.703 152.693C100.509 152.858 100.398 153.078 100.371 153.325L98.7083 180.276C98.6899 180.423 98.7176 180.57 98.7915 180.716L107.269 197.932C107.408 198.262 107.712 198.427 108.045 198.427ZM135.583 186.794C133.616 187.866 131.649 188.856 129.737 189.709C125.637 191.579 121.315 193.174 116.91 194.467C116.328 194.659 115.747 194.824 115.165 194.962C112.948 195.594 110.732 196.117 108.543 196.557L100.481 180.139L102.088 154.425C102.642 154.535 103.39 154.673 104.332 154.893C108.045 155.8 115.193 157.918 121.121 162.071C125.028 164.821 130.153 173.593 135.583 186.794Z" fill="black"/>
<path d="M104.526 154.04C102.365 153.298 99.8165 152.638 96.9629 152.033C96.4366 151.923 95.9102 151.813 95.3838 151.73C94.6357 151.593 93.86 151.455 93.0566 151.318C92.4471 151.208 91.8191 151.107 91.1727 151.015C90.7294 150.96 90.2585 150.878 89.7875 150.823C88.8455 150.685 87.8759 150.575 86.9062 150.465C86.4075 150.41 85.9088 150.355 85.4102 150.3C84.7083 150.208 83.9972 150.135 83.2769 150.08C83.0553 150.053 82.8613 150.053 82.6397 150.025C81.9933 149.97 81.3561 149.915 80.7281 149.86C80.6727 149.86 80.645 149.86 80.6173 149.86C79.3706 149.75 78.0962 149.668 76.8218 149.613C76.1569 149.576 75.492 149.539 74.8271 149.503C72.6938 149.42 70.5051 149.365 68.3165 149.31C67.513 149.31 66.7096 149.31 65.9062 149.31C65.1305 149.31 64.3548 149.319 63.5791 149.338C62.7664 149.338 61.9537 149.347 61.141 149.365C60.7255 149.393 60.2822 149.393 59.8666 149.42C59.5619 149.42 59.2294 149.42 58.897 149.448C58.5276 149.448 58.1582 149.466 57.7888 149.503C57.4009 149.503 57.0408 149.53 56.6529 149.558C55.8403 149.576 55.0183 149.613 54.1872 149.668C52.1094 149.805 50.0592 149.97 48.0368 150.19C47.8152 150.208 47.6028 150.227 47.3996 150.245C47.3442 150.245 47.2888 150.273 47.2334 150.273C47.1411 150.273 47.0487 150.282 46.9564 150.3C46.5408 150.355 46.0975 150.41 45.6543 150.465C45.211 150.52 44.74 150.575 44.2691 150.63C43.5487 150.722 42.8284 150.823 42.1081 150.933C40.8706 151.098 39.6516 151.29 38.4511 151.51C37.8601 151.62 37.2598 151.73 36.6503 151.84C36.207 151.95 35.7637 152.033 35.3482 152.115C35.2927 152.133 35.2558 152.143 35.2374 152.143C35.2097 152.143 35.2097 152.143 35.182 152.143C35.1543 152.143 35.1543 152.17 35.1266 152.17C34.868 152.225 34.6186 152.28 34.3785 152.335C33.7967 152.445 33.2426 152.583 32.6608 152.72C27.4247 154.013 22.9089 155.663 19.5012 157.753C17.5065 158.963 15.8997 160.31 14.7638 161.823C13.8772 163.006 13.1569 164.381 12.6028 165.948C19.335 174.941 28.5883 182.614 39.587 188.361C39.6147 188.361 39.6424 188.389 39.6701 188.389C53.3007 195.484 69.5632 199.582 87.0724 199.582C92.5025 199.582 97.7664 199.197 102.919 198.427C104.637 198.179 106.355 197.904 108.045 197.547C110.538 197.079 113.004 196.502 115.386 195.814C115.026 191.497 114.611 187.316 114.112 183.356" fill="white"/>
<path fill-rule="evenodd" clip-rule="evenodd" d="M87.0724 200.462C92.4747 200.462 97.8494 200.077 103.03 199.307C104.831 199.06 106.576 198.757 108.239 198.427C110.677 197.959 113.17 197.354 115.636 196.667C116.051 196.557 116.328 196.172 116.273 195.759C115.885 191.084 115.469 186.987 114.998 183.246C114.943 182.751 114.5 182.421 114.001 182.476C113.53 182.531 113.17 182.971 113.225 183.466C113.669 186.987 114.057 190.809 114.444 195.182C112.256 195.759 110.039 196.254 107.878 196.694C106.272 197.024 104.554 197.299 102.781 197.574C97.6555 198.317 92.3916 198.702 87.0724 198.702C70.2835 198.702 54.0486 194.879 40.0856 187.592C40.0671 187.592 40.0487 187.582 40.0302 187.564C40.0302 187.564 40.0209 187.564 40.0025 187.564C29.3085 181.981 20.1937 174.474 13.6001 165.811C14.0988 164.491 14.736 163.336 15.484 162.346C16.5091 160.998 18.0328 159.706 19.9444 158.523C23.1582 156.57 27.5078 154.893 32.8824 153.573C33.4365 153.435 33.9906 153.325 34.5447 153.188C34.8217 153.133 35.0711 153.078 35.2927 153.023C35.3296 153.023 35.3758 153.014 35.4312 152.995C35.4497 152.995 35.4774 152.995 35.5143 152.995C35.8468 152.913 36.1239 152.858 36.4286 152.803L36.8442 152.72C37.4167 152.61 37.9985 152.5 38.5896 152.39C39.8455 152.152 41.0552 151.959 42.2188 151.813C42.9391 151.703 43.6595 151.602 44.3798 151.51C44.8046 151.455 45.2294 151.4 45.6542 151.345L45.765 151.318C46.2083 151.263 46.6423 151.217 47.0671 151.18L47.455 151.125C47.6766 151.107 47.9075 151.089 48.1476 151.07C49.9761 150.878 51.9985 150.713 54.2426 150.575C55.0553 150.52 55.8771 150.474 56.7083 150.438C57.0961 150.41 57.4286 150.383 57.7887 150.383C58.1766 150.355 58.5645 150.328 58.9246 150.328C59.2571 150.309 59.571 150.3 59.8666 150.3L61.1687 150.245C61.9999 150.245 62.7756 150.218 63.579 150.218C64.3824 150.19 65.1304 150.19 65.9061 150.19H68.3164C70.5051 150.245 72.666 150.3 74.7716 150.383C75.4365 150.419 76.0922 150.456 76.7386 150.493C78.0407 150.575 79.3151 150.63 80.5618 150.74C80.5988 150.74 80.6542 150.74 80.728 150.74L83.1937 150.96C83.8956 151.015 84.6067 151.089 85.327 151.18L86.7953 151.345C87.765 151.455 88.7347 151.565 89.6489 151.703L89.8151 151.73C90.203 151.785 90.6463 151.84 91.0341 151.895C91.6806 151.987 92.3085 152.088 92.918 152.198C92.918 152.198 92.9273 152.198 92.9457 152.198C93.7215 152.326 94.4787 152.454 95.2175 152.583C95.7439 152.693 96.2703 152.803 96.7689 152.885C99.6225 153.49 102.116 154.15 104.249 154.865C104.692 155.03 105.219 154.783 105.385 154.343C105.524 153.875 105.274 153.38 104.831 153.215C102.642 152.445 100.038 151.758 97.1291 151.18C96.6027 151.07 96.0763 150.96 95.5499 150.85C94.7742 150.713 93.9985 150.575 93.1951 150.438C93.1766 150.438 93.1674 150.438 93.1674 150.438C92.5579 150.346 91.9391 150.254 91.3112 150.163C90.8956 150.08 90.48 150.025 90.0368 149.97L89.8982 149.943C88.9563 149.833 87.9866 149.695 86.9893 149.585L85.5209 149.42C84.8006 149.347 84.0711 149.274 83.3323 149.2L80.7835 148.98C80.7096 148.98 80.6542 148.98 80.6172 148.98C79.426 148.87 78.1515 148.788 76.8494 148.733C76.1845 148.678 75.5196 148.65 74.8547 148.623C72.7215 148.54 70.5328 148.458 68.3442 148.43H65.9061C65.1304 148.43 64.3547 148.43 63.579 148.43C62.7479 148.458 61.9721 148.458 61.141 148.485L59.8666 148.513C59.5064 148.54 59.174 148.54 58.8415 148.568C58.509 148.568 58.1212 148.595 57.7333 148.595C57.3639 148.614 56.9853 148.632 56.5975 148.65C55.794 148.705 54.9629 148.733 54.1317 148.788C51.86 148.953 49.8375 149.118 47.9536 149.31C47.732 149.329 47.5381 149.347 47.3719 149.365L46.8732 149.42C46.4299 149.475 45.9866 149.53 45.5434 149.585H45.4326C45.0078 149.64 44.5829 149.695 44.1581 149.75C43.4378 149.842 42.7083 149.943 41.9695 150.053C40.8059 150.218 39.5592 150.41 38.2848 150.658C37.6753 150.768 37.075 150.878 36.484 150.988L36.0684 151.07C35.7544 151.125 35.4497 151.189 35.1542 151.263C35.1172 151.263 35.0803 151.272 35.0434 151.29C35.0249 151.29 34.9972 151.29 34.9603 151.29C34.6832 151.345 34.4154 151.409 34.1569 151.483C33.6028 151.593 33.0209 151.73 32.4669 151.868C26.8983 153.243 22.3824 154.948 19.0302 157.01C16.8969 158.303 15.2347 159.733 14.0711 161.273C13.1292 162.511 12.3534 163.996 11.7716 165.673C11.6885 165.948 11.7162 166.251 11.9101 166.471C18.67 175.519 28.0895 183.356 39.1713 189.132C39.2083 189.15 39.236 189.159 39.2544 189.159C53.4668 196.557 70.0064 200.462 87.0724 200.462ZM35.2373 151.263C35.2004 151.263 35.1726 151.263 35.1542 151.263C35.1819 151.263 35.2096 151.263 35.2373 151.263Z" fill="black"/>
<path d="M32.6609 152.72C35.182 156.845 52.4142 177.829 72.8601 174.831C94.1371 171.723 97.711 160.393 96.963 152.033C79.7308 148.485 51.6107 148.1 32.6609 152.72Z" fill="#BF92FB"/>
<path d="M11.3283 164.188C11.7347 164.793 12.1595 165.38 12.6028 165.948C19.3349 174.941 28.5882 182.614 39.5869 188.362C39.0882 186.849 38.5618 185.391 38.0077 184.016C37.8969 183.769 37.7861 183.494 37.703 183.246C37.5367 182.916 37.3982 182.559 37.232 182.201L19.5011 157.753L19.418 157.67C19.3349 157.725 19.2518 157.78 19.1687 157.835C19.0209 157.909 18.8732 157.991 18.7254 158.083C18.6423 158.138 18.5315 158.193 18.4484 158.275C17.0077 159.183 14.2373 161.108 11.3283 164.188Z" fill="white"/>
<path d="M39.6701 189.269C39.7624 189.269 39.8548 189.251 39.9471 189.214C40.4181 189.049 40.6675 188.554 40.5012 188.087C39.9471 186.464 39.393 185.034 38.8112 183.686C38.7558 183.466 38.645 183.246 38.5342 182.999L38.5065 182.916C38.3588 182.568 38.211 182.211 38.0632 181.844C37.8693 181.404 37.3429 181.211 36.8996 181.404C36.4287 181.596 36.2347 182.119 36.4287 182.559C36.5672 182.916 36.7334 183.246 36.8719 183.604L36.9274 183.714C37.0013 183.916 37.0843 184.117 37.1767 184.319C37.7308 185.667 38.2849 187.097 38.839 188.664C38.9498 189.049 39.3099 189.269 39.6701 189.269Z" fill="black"/>
<path d="M11.2454 164.958C11.4947 164.958 11.7163 164.876 11.8826 164.683C13.9881 162.511 16.2599 160.641 18.6148 159.211C18.7256 159.128 18.8087 159.073 18.8918 159.018C19.0303 158.936 19.0857 158.908 19.1689 158.853C19.3628 158.743 19.4736 158.661 19.6122 158.606L19.8615 158.441C20.277 158.221 20.4433 157.671 20.1939 157.258C19.9723 156.818 19.4182 156.681 19.0026 156.901L18.7533 157.038C18.5871 157.13 18.4301 157.221 18.2823 157.313C18.1715 157.396 18.0607 157.451 17.9222 157.561C17.8667 157.588 17.7559 157.643 17.6451 157.726C15.1794 159.238 12.7969 161.163 10.6082 163.473C10.2758 163.831 10.2757 164.381 10.6359 164.711C10.8021 164.876 11.0237 164.958 11.2454 164.958Z" fill="black"/>
<path d="M35.1265 152.17C35.1265 152.17 55.3507 171.173 72.0565 169.386C95.6884 166.883 93.0288 151.153 93.0288 151.153C90.3969 150.52 87.294 149.97 83.8586 149.53C79.0104 145.873 81.2544 126.567 82.9444 122.359C84.7175 117.931 58.0935 111.469 58.0935 111.469C58.0935 111.469 59.4233 144.112 48.3415 150.108C48.3415 150.108 48.3323 150.108 48.3138 150.108C43.6594 150.823 35.1265 152.17 35.1265 152.17Z" fill="white"/>
<path fill-rule="evenodd" clip-rule="evenodd" d="M69.7848 170.403C70.579 170.403 71.364 170.358 72.1397 170.266C80.9774 169.331 87.2941 166.471 90.868 161.768C94.802 156.653 93.9432 151.235 93.9155 151.015C93.8601 150.658 93.583 150.383 93.2505 150.3C90.6186 149.668 87.5988 149.118 84.2189 148.705C80.1463 145.075 82.0856 126.924 83.7756 122.689C83.9418 122.277 84.0526 121.644 83.6371 120.847C81.2822 116.309 60.6701 111.194 58.3152 110.616C58.0382 110.561 57.7611 110.616 57.5395 110.781C57.3178 110.974 57.207 111.249 57.207 111.524C57.2347 111.826 58.3706 143.425 48.0368 149.255C43.3548 149.97 34.9881 151.29 34.9881 151.29C34.6556 151.345 34.3786 151.565 34.2954 151.895C34.1846 152.225 34.2954 152.583 34.517 152.803C35.3205 153.545 53.4392 170.403 69.7848 170.403ZM92.1978 151.868C92.2809 153.27 92.2255 157.12 89.4273 160.751C86.1582 165.013 80.2571 167.626 71.9458 168.506C58.3152 169.963 41.9142 156.873 37.1213 152.748C39.8917 152.308 45.1556 151.483 48.4524 150.988C48.5078 150.969 48.5632 150.951 48.6186 150.933C48.6741 150.933 48.7294 150.914 48.7848 150.878C59.1186 145.295 59.1463 118.646 59.0355 112.624C67.6239 114.796 80.6173 118.921 82.0579 121.672C82.1688 121.892 82.141 122.002 82.1133 122.029C80.4234 126.292 77.9023 146.147 83.3323 150.245C83.4616 150.337 83.6001 150.392 83.7479 150.41C86.8785 150.795 89.7321 151.29 92.1978 151.868Z" fill="black"/>
<path d="M83.8587 149.53C83.8587 149.53 82.0025 151.758 77.2928 152.143L83.8587 149.53Z" fill="white"/>
<path d="M77.2927 153.023C77.3297 153.023 77.3574 153.023 77.3758 153.023C82.3903 152.61 84.4682 150.218 84.5513 150.108C84.8561 149.723 84.8006 149.173 84.4405 148.87C84.0526 148.54 83.4985 148.595 83.1938 148.98C83.1661 149.008 81.4207 150.905 77.2373 151.263C76.7386 151.318 76.3785 151.73 76.4062 152.225C76.4616 152.693 76.8495 153.023 77.2927 153.023Z" fill="black"/>
<path d="M65.8507 128.794C72.3058 135.312 82.0578 140.482 93.943 131.957C104.194 124.614 106.438 99.3684 98.0987 84.5453C95.7438 80.3102 92.5024 76.9276 88.3467 75.0575C75.0208 69.0348 62.0275 76.7076 59.9219 85.7554C58.3428 92.5756 59.0908 103.741 59.0908 103.741C59.0908 103.741 52.0816 97.5258 50.1423 105.584C48.2029 113.779 57.3177 116.804 57.3177 116.804C57.3177 116.804 60.3929 123.294 65.8507 128.794Z" fill="white"/>
<path fill-rule="evenodd" clip-rule="evenodd" d="M81.5592 137.32C85.4933 137.32 89.8429 136.027 94.4695 132.7C105.025 125.109 107.38 99.2308 98.8745 84.1328C96.2703 79.4301 92.835 76.13 88.707 74.2599C82.1687 71.2898 74.9102 71.3173 68.7875 74.2874C63.7453 76.7625 60.116 80.9701 59.0632 85.5628C57.8442 90.8155 57.9551 98.4333 58.1213 101.926C56.7361 101.073 54.6582 100.166 52.7466 100.771C51.0566 101.293 49.893 102.833 49.2835 105.391C47.3996 113.256 54.9075 116.804 56.6806 117.519C57.3732 118.894 60.3376 124.504 65.2136 129.399C69.2585 133.497 74.827 137.32 81.5592 137.32ZM78.6503 73.8199C81.7809 73.8199 84.9669 74.5074 87.9867 75.855C91.7545 77.56 94.8851 80.6401 97.3231 84.9853C105.468 99.4508 103.39 124.119 93.4445 131.242C84.1635 137.925 75.0764 136.88 66.488 128.162C61.2242 122.827 58.149 116.501 58.1213 116.419C58.0105 116.226 57.8165 116.061 57.5949 115.979C57.2624 115.869 49.2835 113.091 51.0012 105.804C51.4722 103.906 52.2202 102.778 53.273 102.448C55.1015 101.871 57.678 103.658 58.5091 104.401C58.7585 104.621 59.1463 104.676 59.4788 104.539C59.8112 104.374 60.0052 104.043 59.9775 103.686C59.9775 103.576 59.2571 92.5481 60.7809 85.9478C61.7228 81.8777 65.0197 78.11 69.5909 75.8825C72.4168 74.5074 75.492 73.8199 78.6503 73.8199Z" fill="black"/>
<path d="M57.7057 125.219L57.3178 116.804C57.3178 116.804 48.203 113.779 50.1423 105.583C52.0817 97.5257 59.0909 103.741 59.0909 103.741C59.0909 103.741 62.1938 105.308 64.1331 104.676C66.0724 104.043 64.1331 95.0231 64.1331 95.0231C64.1331 95.0231 74.827 89.4404 73.3864 85.1502C71.918 80.8326 80.5064 89.9354 84.3296 85.1502C87.6819 80.9426 85.1885 78.0825 84.4959 77.4225C85.6041 78.385 92.0869 83.8852 98.0988 84.5452C101.146 84.8752 104.055 83.9952 106.105 80.6676C112.561 70.1347 98.542 72.3898 98.542 72.3898C98.542 72.3898 105.247 59.6568 94.5526 59.9868C83.831 60.3443 84.4128 65.8995 84.4128 65.8995C84.4128 65.8995 72.86 53.1391 64.4655 59.9868C56.0434 66.8346 58.0935 78.385 58.0935 78.385C58.0935 78.385 45.6265 77.4225 39.4761 84.4627C34.3508 90.2929 32.9933 120.902 57.7057 125.219Z" fill="black"/>
<path fill-rule="evenodd" clip-rule="evenodd" d="M57.7057 126.099C57.9273 126.099 58.149 126.017 58.3152 125.879C58.5091 125.714 58.6199 125.439 58.5922 125.164L58.2043 116.776C58.1766 116.391 57.955 116.089 57.5948 115.979C57.2624 115.869 49.2835 113.091 51.0012 105.804C51.4721 103.906 52.2202 102.778 53.273 102.448C55.1015 101.871 57.678 103.658 58.5091 104.401C58.5645 104.456 58.62 104.493 58.6754 104.511C59.0355 104.704 62.1938 106.244 64.4102 105.501C66.5434 104.814 66.017 99.8083 65.1305 95.4632C67.5684 94.1431 75.4365 89.413 74.273 85.0678C74.6331 85.2328 75.0487 85.4253 75.4088 85.5903C78.0131 86.8829 82.3904 89.028 85.05 85.6728C86.6569 83.6653 87.0447 81.8777 86.9062 80.4476C89.7043 82.4552 93.9154 84.9853 98.0157 85.4253C101.867 85.8653 104.859 84.4078 106.853 81.1352C108.82 77.9451 109.208 75.4425 108.017 73.6824C106.382 71.2898 102.31 71.1798 100.01 71.3448C100.98 69.0347 102.448 64.4971 100.648 61.6095C99.5394 59.8494 97.4616 59.0244 94.5249 59.1069C89.8983 59.2719 86.6845 60.3719 84.8838 62.3795C84.3851 62.957 84.0526 63.5345 83.8587 64.0845C80.5619 60.8944 71.2808 53.3041 63.8838 59.2994C56.5975 65.2396 56.7637 74.3424 57.0685 77.45C53.7994 77.395 44.1582 77.7526 38.7835 83.8853C35.8192 87.2679 33.8798 98.7908 37.5922 109.159C39.9194 115.704 45.2941 123.954 57.5672 126.072C57.6226 126.09 57.6688 126.099 57.7057 126.099ZM56.459 117.409L56.7637 124.147C46.1252 121.864 41.3878 114.466 39.2822 108.581C35.8192 98.9558 37.5091 88.0379 40.141 85.0403C45.9313 78.4401 57.8996 79.2651 58.0104 79.2651C58.2875 79.2926 58.5645 79.1826 58.7308 78.9901C58.9247 78.7701 59.0078 78.4951 58.9524 78.2476C58.9247 78.1376 57.1239 67.0822 65.0197 60.6744C72.6661 54.4592 83.6648 66.3671 83.7756 66.5046C84.0249 66.7796 84.4405 66.8621 84.8007 66.7246C85.1331 66.5596 85.3547 66.2021 85.2993 65.8171C85.2993 65.7896 85.2439 64.6621 86.269 63.507C87.2663 62.3795 89.5381 61.0319 94.5803 60.8669C96.8798 60.8119 98.3758 61.3619 99.1239 62.5445C100.731 65.0746 98.6806 70.2173 97.7386 72.0048C97.6001 72.2798 97.6278 72.6374 97.8218 72.9124C98.0157 73.1874 98.3481 73.3249 98.6806 73.2699C100.398 72.9949 105.191 72.6924 106.549 74.6724C107.491 76.075 106.41 78.4676 105.33 80.2001C103.695 82.8952 101.368 84.0228 98.2096 83.6653C92.364 83.0327 85.8257 77.395 85.0777 76.7625C84.7175 76.46 84.1634 76.4875 83.8587 76.845C83.5262 77.175 83.5262 77.725 83.8864 78.0551C84.5513 78.6876 86.4906 81.0252 83.6371 84.6003C82.0302 86.6354 79.2044 85.4803 76.2123 84.0228C74.5777 83.2253 73.5249 82.7027 72.7492 83.3627C72.0566 83.9678 72.3891 85.0128 72.5276 85.4253C73.4141 88.0379 67.5962 92.2181 63.7176 94.2256C63.3574 94.4182 63.1912 94.8032 63.2743 95.1882C64.1331 99.2308 64.3825 103.301 63.8007 103.879C62.6094 104.236 60.393 103.383 59.5896 102.998C58.9801 102.476 55.6555 99.8633 52.7466 100.771C51.0566 101.293 49.893 102.833 49.2835 105.391C47.455 112.981 54.3812 116.529 56.459 117.409Z" fill="black"/>
<path d="M75.8798 100.606C76.1015 102.063 77.182 103.108 78.3178 102.943C79.4537 102.778 80.1741 101.458 79.9524 100.001C79.7308 98.5433 78.6503 97.4982 77.5144 97.6633C76.4062 97.8283 75.6582 99.1483 75.8798 100.606Z" fill="black"/>
<path d="M91.1726 98.3783C91.3942 99.8359 92.4747 100.881 93.5828 100.716C94.7187 100.551 95.4668 99.2309 95.2451 97.7733C95.0235 96.3157 93.943 95.2707 92.8071 95.4357C91.6713 95.6007 90.9509 96.9208 91.1726 98.3783Z" fill="black"/>
<path d="M79.8139 94.3907C79.8139 94.3907 76.0461 92.6581 72.3891 96.7283L79.8139 94.3907Z" fill="white"/>
<path d="M72.3891 97.6082C72.6384 97.6082 72.8878 97.4982 73.054 97.3057C76.2123 93.7581 79.426 95.1606 79.4537 95.1881C79.897 95.3806 80.4234 95.1881 80.645 94.7481C80.8389 94.3081 80.645 93.7856 80.2017 93.5656C80.0078 93.483 75.769 91.613 71.7242 96.1506C71.3917 96.5081 71.4471 97.0582 71.8073 97.3882C71.9735 97.5257 72.1952 97.6082 72.3891 97.6082Z" fill="black"/>
<path d="M96.0488 91.173C96.0488 91.173 92.2533 89.4405 88.5963 93.5106L96.0488 91.173Z" fill="white"/>
<path d="M88.5961 94.3906C88.8454 94.3906 89.0948 94.3081 89.261 94.0881C92.3916 90.5955 95.5499 91.9155 95.6607 91.9705C96.1317 92.163 96.6304 91.9705 96.852 91.5305C97.0459 91.0905 96.852 90.568 96.4087 90.3755C96.2148 90.293 91.976 88.4229 87.9312 92.933C87.5987 93.2906 87.6541 93.8406 88.0143 94.1706C88.1805 94.3356 88.4021 94.3906 88.5961 94.3906Z" fill="black"/>
<path d="M86.3245 100.386C87.7097 104.218 89.0949 108.059 90.4802 111.909C90.7295 112.541 90.9511 113.201 90.868 113.861C90.7295 114.741 90.0646 115.429 89.2889 115.841C88.5131 116.254 87.6266 116.419 86.7678 116.556" fill="white"/>
<path d="M86.7677 117.436C86.8231 117.436 86.8693 117.436 86.9063 117.436C87.7928 117.271 88.7902 117.106 89.7044 116.639C90.8403 116.034 91.5883 115.044 91.7268 113.999C91.8654 113.091 91.5606 112.266 91.339 111.606L87.1556 100.083C86.9894 99.6158 86.4907 99.3958 86.0197 99.5608C85.5765 99.7258 85.3271 100.221 85.4933 100.688L89.649 112.211C89.8429 112.706 90.0369 113.284 89.9814 113.751C89.8983 114.246 89.4828 114.741 88.8733 115.071C88.2084 115.401 87.4049 115.566 86.6015 115.676C86.1305 115.759 85.7981 116.226 85.8812 116.721C85.9643 117.134 86.3522 117.436 86.7677 117.436Z" fill="black"/>
<path d="M80.368 122.854C83.1108 124.422 86.5461 124.752 89.5659 123.762L80.368 122.854Z" fill="white"/>
<path d="M86.0473 125.219C87.3494 125.219 88.6238 124.999 89.8428 124.614C90.3138 124.449 90.5631 123.954 90.4246 123.487C90.2583 123.047 89.7597 122.772 89.2887 122.937C86.5182 123.844 83.3322 123.514 80.8111 122.084C80.3679 121.837 79.8415 122.002 79.5921 122.414C79.3428 122.854 79.4813 123.377 79.9246 123.624C81.7808 124.669 83.914 125.219 86.0473 125.219Z" fill="black"/>
<path d="M43.1609 107.096C43.3271 107.096 43.4933 107.041 43.6595 106.959C44.0751 106.684 44.1582 106.134 43.8812 105.721C41.9696 102.861 41.1108 99.2858 41.554 95.8482C41.9973 92.438 43.7427 89.1929 46.3746 86.9103C46.7348 86.5803 46.7625 86.0303 46.4577 85.6728C46.1253 85.2878 45.5712 85.2603 45.1833 85.5903C42.2743 88.1204 40.2796 91.778 39.7809 95.6282C39.2822 99.4783 40.2519 103.493 42.4128 106.711C42.5791 106.959 42.8839 107.096 43.1609 107.096Z" fill="white"/>
<path d="M96.6304 71.5923C96.9906 71.5923 97.323 71.3723 97.4616 71.0422C98.0711 69.5847 98.0988 67.9896 97.5724 66.6421C96.9629 65.1295 95.5777 64.002 94.0539 63.7545C93.0843 63.5895 92.0315 63.782 91.1727 64.3045C90.7571 64.552 90.6186 65.102 90.8679 65.5145C91.1173 65.9271 91.6713 66.0646 92.0869 65.8171C92.5856 65.5145 93.1951 65.4045 93.7769 65.487C94.6911 65.652 95.5223 66.3671 95.9101 67.3021C96.2703 68.2096 96.2426 69.3372 95.7993 70.3547C95.6331 70.8222 95.827 71.3173 96.298 71.5098C96.4088 71.5648 96.5196 71.5923 96.6304 71.5923Z" fill="white"/>
<path d="M97.9049 82.0427C99.3732 82.0427 100.814 81.4651 101.728 80.4476C103.002 79.0176 103.196 76.8175 102.199 75.3324C101.922 74.9199 101.368 74.8099 100.952 75.0849C100.537 75.3599 100.426 75.9099 100.703 76.3225C101.285 77.1475 101.146 78.44 100.398 79.2651C99.6779 80.0626 98.4313 80.4476 97.24 80.2276C96.7413 80.1176 96.2703 80.4476 96.1872 80.9151C96.1041 81.4101 96.4088 81.8777 96.9075 81.9602C97.24 82.0152 97.5724 82.0427 97.9049 82.0427Z" fill="white"/>
<path d="M79.0935 83.7753C79.98 83.7753 80.8943 83.4453 81.5869 82.8677C82.4734 82.0977 82.9998 80.9427 82.9444 79.7876C82.9167 79.2926 82.5011 78.9076 82.0025 78.9351C81.5315 78.9626 81.1436 79.3751 81.1713 79.8701C81.199 80.4752 80.922 81.1077 80.4233 81.5202C79.9523 81.9052 79.2874 82.0977 78.6779 81.9602C78.1792 81.8502 77.7083 82.1802 77.6251 82.6477C77.5143 83.1153 77.8191 83.5828 78.2901 83.6928C78.5486 83.7478 78.8164 83.7753 79.0935 83.7753Z" fill="white"/>
<path d="M66.1001 91.2829C68.261 91.2829 70.2558 89.5779 70.5605 87.4603C70.6159 86.9653 70.2835 86.5252 69.8125 86.4427C69.3138 86.3877 68.8706 86.7178 68.7875 87.2128C68.6212 88.4778 67.3745 89.5229 66.1001 89.5229C66.0816 89.5229 66.0724 89.5229 66.0724 89.5229C65.5737 89.5229 65.1859 89.9079 65.1859 90.4029C65.1859 90.8979 65.5737 91.2829 66.0724 91.2829C66.0724 91.2829 66.0816 91.2829 66.1001 91.2829Z" fill="white"/>
<path d="M190.909 179.066C190.909 186.437 193.956 193.092 198.86 197.932C203.764 202.772 210.551 205.77 218.059 205.77H280.505V179.066C280.505 164.326 268.343 152.363 253.355 152.363H218.059C203.043 152.363 190.909 164.326 190.909 179.066Z" fill="white"/>
<path fill-rule="evenodd" clip-rule="evenodd" d="M218.059 206.65H280.505C281.004 206.65 281.392 206.237 281.392 205.77V179.066C281.392 163.831 268.814 151.455 253.355 151.455H218.059C202.572 151.455 190.022 163.831 190.022 179.066C190.022 186.409 192.931 193.339 198.223 198.565C203.514 203.79 210.551 206.65 218.059 206.65ZM279.619 204.89H218.059C211.022 204.89 204.429 202.195 199.47 197.299C194.51 192.432 191.795 185.942 191.795 179.066C191.795 164.821 203.57 153.243 218.059 153.243H253.355C267.844 153.243 279.619 164.821 279.619 179.066V204.89Z" fill="black"/>
<path d="M209.388 175.766H263.55V169.743H209.388V175.766Z" fill="#71FFCC"/>
<path d="M229.917 189.132H263.55V183.081H229.917V189.132Z" fill="#71FFCC"/>
<path d="M252.302 93.4281L309.761 110.974L321.646 72.5273L264.215 54.9817L252.302 93.4281Z" fill="#FEC524"/>
<path fill-rule="evenodd" clip-rule="evenodd" d="M313.446 108.224C313.593 108.224 313.732 108.187 313.861 108.114C314.055 108.004 314.221 107.839 314.277 107.619L326.19 69.1722C326.328 68.7047 326.079 68.2097 325.608 68.0722L268.149 50.5265C267.927 50.4715 267.678 50.499 267.484 50.609C267.262 50.719 267.124 50.884 267.041 51.1315L255.128 89.5504C254.989 90.018 255.266 90.513 255.737 90.6505L313.169 108.196C313.261 108.214 313.353 108.224 313.446 108.224ZM324.223 69.5022L312.836 106.244L257.095 89.2204L268.481 52.4791L324.223 69.5022Z" fill="black"/>
<path fill-rule="evenodd" clip-rule="evenodd" d="M313.446 108.224C313.723 108.224 314 108.086 314.166 107.866C314.388 107.536 314.388 107.124 314.166 106.821L297.072 83.6928C296.823 83.3353 296.324 83.2253 295.936 83.4453L293.748 84.6003C292.252 85.3978 290.534 85.5629 288.899 85.0678C287.293 84.5728 285.963 83.4728 285.159 81.9877L283.996 79.7876C283.802 79.4026 283.331 79.2101 282.915 79.3751L255.682 88.973C255.322 89.1105 255.1 89.4405 255.1 89.8255C255.1 90.2105 255.349 90.5405 255.737 90.6505L313.169 108.196C313.261 108.215 313.353 108.224 313.446 108.224ZM296.103 85.3428L311.146 105.721L258.812 89.743L282.777 81.3002L283.58 82.8127C284.605 84.7103 286.295 86.1129 288.373 86.7454C290.451 87.3779 292.667 87.1579 294.579 86.1679L296.103 85.3428Z" fill="black"/>
<path fill-rule="evenodd" clip-rule="evenodd" d="M290.783 87.1029C292.086 87.1029 293.388 86.7729 294.579 86.1678L325.746 69.6947C326.079 69.5297 326.273 69.1722 326.217 68.8147C326.19 68.4572 325.94 68.1547 325.608 68.0722L268.149 50.5265C267.816 50.4165 267.429 50.5265 267.207 50.8015C266.985 51.0765 266.93 51.4616 267.096 51.7916L283.58 82.8127C284.605 84.7103 286.295 86.1128 288.373 86.7453C289.177 86.9929 289.98 87.1029 290.783 87.1029ZM323.031 69.1172L293.748 84.6003C292.252 85.3978 290.534 85.5628 288.9 85.0678C287.293 84.5728 285.963 83.4727 285.159 81.9877L269.673 52.8366L323.031 69.1172Z" fill="black"/>
<path d="M218.336 50.004H151.347V0.969727H218.336V50.004Z" fill="white"/>
<path d="M213.737 55.0366H146.776V6.00232H213.737V55.0366Z" fill="#BF92FB"/>
<path fill-rule="evenodd" clip-rule="evenodd" d="M151.347 50.8841H218.336C218.835 50.8841 219.223 50.4991 219.223 50.004V0.969753C219.223 0.474735 218.835 0.0897217 218.336 0.0897217H151.347C150.848 0.0897217 150.46 0.474735 150.46 0.969753V50.004C150.46 50.4991 150.848 50.8841 151.347 50.8841ZM217.45 49.124H152.233V1.84978H217.45V49.124Z" fill="black"/>
<path d="M158.91 42.9912V58.4743L177.084 46.4838" fill="#BF92FB"/>
<path d="M158.91 59.3819C159.076 59.3819 159.243 59.3269 159.409 59.2169L177.583 47.2264C177.999 46.9514 178.109 46.4014 177.832 45.9889C177.555 45.5764 177.001 45.4664 176.586 45.7414L159.797 56.8243V42.9913C159.797 42.4963 159.381 42.0837 158.91 42.0837C158.412 42.0837 158.024 42.4963 158.024 42.9913V58.4743C158.024 58.8043 158.19 59.1069 158.495 59.2719C158.624 59.3452 158.762 59.3819 158.91 59.3819Z" fill="black"/>
<path d="M174.896 20.7705C174.896 21.8705 175.062 22.8697 175.394 23.7681C175.708 24.6481 176.151 25.409 176.724 26.0507C177.297 26.7107 177.989 27.2332 178.802 27.6182C179.615 28.0033 180.51 28.2508 181.489 28.3608L181.628 32.2934C181.646 32.5501 181.84 32.7334 182.21 32.8434C182.597 32.9718 183.142 33.0359 183.844 33.0359C184.287 33.0359 184.666 33.0268 184.98 33.0084C185.276 32.9901 185.516 32.9534 185.7 32.8984C185.867 32.8434 185.996 32.7701 186.088 32.6784C186.162 32.5868 186.208 32.4584 186.227 32.2934L186.393 27.5357C186.411 27.1141 186.393 26.7657 186.338 26.4907C186.282 26.2157 186.19 25.9957 186.06 25.8307C185.913 25.6657 185.728 25.5557 185.506 25.5007C185.285 25.4457 185.026 25.4182 184.731 25.4182H184.454C183.733 25.4182 183.115 25.299 182.597 25.0606C182.062 24.8406 181.628 24.5381 181.295 24.1531C180.963 23.7864 180.714 23.3464 180.547 22.8331C180.4 22.3197 180.326 21.7697 180.326 21.183C180.326 20.5413 180.418 19.9546 180.603 19.4229C180.787 18.8729 181.064 18.4054 181.434 18.0204C181.803 17.6354 182.265 17.3329 182.819 17.1129C183.392 16.9112 184.057 16.8103 184.814 16.8103C185.516 16.8103 186.125 16.8745 186.642 17.0029C187.178 17.1495 187.63 17.2962 188 17.4429C188.388 17.6079 188.711 17.7637 188.969 17.9104C189.21 18.0387 189.403 18.1029 189.551 18.1029C189.644 18.1029 189.727 18.0754 189.801 18.0204C189.893 17.9471 189.958 17.8279 189.994 17.6629C190.05 17.5162 190.096 17.287 190.133 16.9754C190.17 16.682 190.188 16.3062 190.188 15.8478C190.188 15.3895 190.17 15.0503 190.133 14.8303C190.096 14.6103 190.004 14.4361 189.856 14.3078C189.727 14.1611 189.468 13.9961 189.08 13.8127C188.711 13.6477 188.258 13.4827 187.723 13.3177C187.206 13.171 186.615 13.0427 185.95 12.9327C185.303 12.8227 184.629 12.7677 183.927 12.7677C182.32 12.7677 180.944 12.9877 179.799 13.4277C178.673 13.8677 177.74 14.4544 177.001 15.1878C176.281 15.9211 175.754 16.7737 175.422 17.7454C175.071 18.6988 174.896 19.7071 174.896 20.7705ZM180.935 38.0961C180.935 38.6462 180.981 39.1045 181.074 39.4712C181.148 39.8562 181.295 40.1587 181.517 40.3787C181.757 40.6171 182.062 40.7821 182.431 40.8737C182.801 40.9837 183.253 41.0387 183.789 41.0387C184.361 41.0387 184.832 40.9837 185.202 40.8737C185.571 40.7821 185.867 40.6171 186.088 40.3787C186.31 40.1587 186.467 39.8562 186.559 39.4712C186.651 39.1045 186.698 38.6462 186.698 38.0961C186.698 37.5278 186.651 37.0511 186.559 36.6661C186.467 36.2811 186.31 35.9694 186.088 35.731C185.867 35.4927 185.571 35.3277 185.202 35.236C184.832 35.126 184.361 35.071 183.789 35.071C183.253 35.071 182.801 35.126 182.431 35.236C182.062 35.3277 181.757 35.4927 181.517 35.731C181.295 35.9694 181.148 36.2811 181.074 36.6661C180.981 37.0511 180.935 37.5278 180.935 38.0961Z" fill="white"/>
<path d="M387.14 160.008C387.25 160.008 387.361 159.981 387.472 159.926C387.915 159.761 388.137 159.238 387.971 158.798C386.114 154.178 381.294 151.868 377.36 151.235C372.983 150.52 368.439 151.345 364.422 152.06L345.195 155.553C342.674 155.993 340.43 156.323 338.546 155.443C336.191 154.343 335.083 151.538 335.055 149.228C335 146.588 336.025 143.947 337.133 141.5C337.327 141.06 337.133 140.537 336.69 140.345C336.219 140.125 335.692 140.345 335.498 140.785C334.307 143.425 333.199 146.258 333.282 149.283C333.337 152.748 335.111 155.773 337.798 157.038C340.347 158.221 343.339 157.67 345.5 157.285L364.754 153.793C368.799 153.078 373.01 152.308 377.083 152.968C380.518 153.518 384.729 155.525 386.308 159.431C386.447 159.788 386.779 160.008 387.14 160.008Z" fill="white"/>
<path d="M406.172 156.075C406.246 156.075 406.32 156.066 406.394 156.048C406.893 155.91 407.17 155.443 407.059 154.975C403.901 142.93 393.124 133.085 380.767 130.967C380.269 130.884 379.826 131.214 379.742 131.709C379.659 132.177 379.992 132.645 380.463 132.727C392.154 134.707 402.349 144.03 405.314 155.415C405.424 155.8 405.785 156.075 406.172 156.075Z" fill="white"/>
<path d="M407.53 231.098C408.5 231.098 409.442 230.933 410.328 230.631C413.958 229.366 416.146 225.323 415.066 221.968C414.899 221.5 414.401 221.253 413.93 221.39C413.459 221.555 413.21 222.05 413.376 222.518C414.151 224.938 412.434 228.018 409.746 228.953C407.198 229.833 404.039 229.09 401.684 227.028C399.69 225.295 398.194 222.71 397.169 219.3C395.562 213.772 395.645 207.695 397.446 202.222C397.612 201.754 397.335 201.259 396.892 201.122C396.421 200.957 395.922 201.204 395.756 201.672C393.844 207.502 393.733 213.937 395.479 219.795C396.559 223.535 398.277 226.395 400.521 228.348C402.543 230.136 405.092 231.098 407.53 231.098Z" fill="white"/>
</g>
<defs>
<clipPath id="clip0_1450_758">
<rect width="456" height="430" fill="white" transform="matrix(-1 0 0 1 456 0)"/>
</clipPath>
</defs>
</svg>
