<svg width="86" height="70" viewBox="0 0 86 70" fill="none" xmlns="http://www.w3.org/2000/svg">
<path d="M64.327 65.3564C64.5347 65.703 64.7771 66.0149 65.0541 66.2574C65.8504 67.0891 66.889 67.5743 68.0315 67.6782C69.5549 67.8515 71.0436 67.3317 72.1169 66.2574L70.9397 65.0792C70.2127 65.8069 69.2433 66.1535 68.2046 66.0149C67.443 65.9456 66.7505 65.599 66.2312 65.0792C66.0581 64.906 65.885 64.6634 65.7119 64.4555C65.0541 63.4505 65.0541 62.0297 65.7119 60.9901C65.8504 60.7475 66.0235 60.5396 66.2312 60.3663L65.0541 59.1881C64.7771 59.4654 64.5347 59.7772 64.327 60.0891C63.323 61.7178 63.323 63.7624 64.327 65.3564ZM62.4228 66.5693C62.7344 67.0545 63.0806 67.4703 63.4615 67.8515C66.3004 70.6931 70.8705 70.6931 73.7095 67.8515L72.5323 66.6733C70.3512 68.8564 66.8198 68.8564 64.6386 66.6733C64.327 66.3614 64.0847 66.0495 63.8423 65.6683C62.7344 63.901 62.7344 61.5446 63.8423 59.8119C64.0847 59.4307 64.3616 59.0842 64.6386 58.8069L63.4615 57.6287C63.0806 58.0099 62.7344 58.4604 62.4228 58.9456C60.9687 61.2327 60.9687 64.2475 62.4228 66.5693ZM35.9027 58.3564C36.0066 58.2525 36.0758 58.1139 36.1104 57.9753C36.1797 57.7673 36.145 57.5248 36.0066 57.3515C35.9027 57.1436 35.695 57.0396 35.4872 56.9703C35.0718 56.8663 34.5871 57.1436 34.4832 57.5594C34.3793 58.0099 34.6563 58.4604 35.0718 58.5644C35.3834 58.6683 35.695 58.5644 35.9027 58.3564ZM44.2119 54.8218C44.2811 54.7525 44.3504 54.6832 44.385 54.5792C44.4888 54.3713 44.4888 54.1634 44.385 53.9555C44.3157 53.7475 44.1426 53.5743 43.9349 53.505C43.5194 53.3317 43.0347 53.505 42.827 53.9208C42.7231 54.1287 42.7231 54.3366 42.827 54.5446C42.8963 54.7525 43.0694 54.9258 43.2771 54.9951C43.6233 55.1337 43.9695 55.0644 44.2119 54.8218ZM52.5557 65.2525C51.4478 66.3614 49.9244 66.9852 48.3318 66.9852C46.7739 66.9852 45.2851 66.3614 44.1772 65.2871C42.6885 63.797 42.1 61.6485 42.6193 59.604C42.7924 58.9456 43.0001 58.2525 43.2078 57.6287C43.3463 57.1782 43.104 56.7277 42.6885 56.5891C42.2731 56.4505 41.7884 56.6931 41.6499 57.1089C41.4421 57.802 41.2344 58.4951 41.0613 59.1881C40.7151 60.505 40.7497 61.8911 41.0959 63.1733C41.4421 64.4208 42.1346 65.5644 43.0347 66.4654C44.4542 67.8862 46.3584 68.6832 48.3665 68.6485C50.3745 68.6485 52.3479 67.8515 53.7674 66.4307C54.6676 65.5297 55.3254 64.3862 55.6024 63.1733C56.3987 59.9159 58.0605 56.9357 60.3801 54.5099L59.203 53.3317C56.6756 55.9654 54.8753 59.2228 54.0098 62.7921C53.7674 63.6931 53.2481 64.5594 52.5557 65.2525ZM45.3544 63.4159C45.4583 63.5198 45.5621 63.6584 45.666 63.797C46.0814 64.2129 46.947 64.906 48.3318 64.906C49.3705 64.906 50.3745 64.4901 51.0669 63.797C51.4824 63.3812 51.794 62.8614 51.9325 62.3069C52.9019 58.3911 54.8753 54.7871 57.6797 51.8763L56.5025 50.698C53.4905 53.8168 51.3439 57.698 50.3053 61.8911C50.236 62.1683 50.0975 62.4109 49.8898 62.6188C49.509 63 48.9204 63.2426 48.3318 63.2426C47.5702 63.2426 47.1201 62.8961 46.8431 62.6188C46.7739 62.5495 46.7046 62.4456 46.67 62.4109C46.2545 61.8565 46.1161 61.198 46.2892 60.5396C47.5355 55.7228 50.0283 51.2871 53.5251 47.6485L52.3479 46.4703C48.6434 50.2822 46.0122 54.9951 44.6966 60.0891C44.385 61.2673 44.6273 62.4802 45.3544 63.4159ZM21.5694 36.8713C21.4655 37.0792 21.4309 37.2871 21.4655 37.4951C21.5347 37.703 21.6732 37.8763 21.8463 38.0149C22.1579 38.2228 22.5734 38.1535 22.8504 37.8763C22.885 37.8416 22.9542 37.7723 22.9888 37.703C23.2312 37.3218 23.0927 36.802 22.7119 36.5594C22.2964 36.3515 21.7771 36.4901 21.5694 36.8713ZM5.4357 60.8862C5.95503 55.7228 7.06292 50.5594 8.75937 45.604C8.89786 45.1535 8.65551 44.703 8.24005 44.5644C7.82459 44.4258 7.33989 44.6683 7.2014 45.0842C5.47032 50.1782 4.32781 55.4456 3.80849 60.7475C3.70462 61.8218 4.05084 62.8961 4.77789 63.6584C4.81251 63.7277 4.88176 63.7624 4.91638 63.797C5.64343 64.5248 6.57822 64.906 7.58224 64.906C8.58627 64.906 9.55567 64.5248 10.2827 63.797C10.6289 63.4505 11.2175 62.7228 11.3214 61.6139C11.7715 56.9357 12.7755 52.3267 14.2642 47.8565C15.7529 43.4208 17.7264 39.1238 20.1499 35.104C20.1499 35.104 20.1499 35.0693 20.1845 35.0693C20.3922 34.7574 20.323 34.3416 20.0806 34.0644C20.046 33.9951 19.9768 33.9604 19.9075 33.9258C19.5267 33.6832 19.0074 33.8218 18.765 34.203C16.2723 38.3267 14.2296 42.7277 12.7062 47.302C11.1829 51.9109 10.1442 56.6584 9.69416 61.4406C9.65954 61.8911 9.45181 62.3069 9.14021 62.6188C8.72475 63.0347 8.20543 63.2426 7.61686 63.2426C7.0283 63.2426 6.54359 63.0347 6.12813 62.6188C6.09351 62.5842 6.09351 62.5495 6.05889 62.5495C5.57419 62.0644 5.36646 61.5099 5.4357 60.8862ZM4.29319 46.8862C4.39706 46.7822 4.4663 46.6782 4.50092 46.5396C4.63941 46.0891 4.39706 45.6386 3.94697 45.5C3.53152 45.3614 3.04681 45.604 2.90833 46.0545C2.76984 46.505 3.01219 46.9555 3.46227 47.0941C3.77387 47.1634 4.08546 47.0941 4.29319 46.8862ZM31.575 60.6089C31.6789 60.505 31.7827 60.3317 31.8173 60.1584C31.852 59.9505 31.8173 59.7079 31.6789 59.5347C31.5404 59.3614 31.3673 59.2228 31.1595 59.1881C30.7095 59.1188 30.2594 59.4307 30.1901 59.8812C30.1209 60.3317 30.3979 60.7822 30.8479 60.8515C31.1249 60.8862 31.4019 60.7822 31.575 60.6089ZM20.6692 40.7178C20.6 40.6485 20.5307 40.6139 20.4615 40.5446C20.046 40.3366 19.5613 40.5099 19.3536 40.9258C16.0991 47.5099 14.0911 54.5446 13.3987 61.7525C13.2602 63.0693 12.7062 64.2822 11.7368 65.2525C10.6289 66.3614 9.14021 66.9852 7.54762 66.9852C5.98965 66.9852 4.50092 66.3614 3.39303 65.2525C2.14665 64.005 1.52346 62.2723 1.69657 60.505C2.04279 56.8664 2.7006 53.2277 3.63538 49.6931C3.73925 49.2426 3.49689 48.7921 3.04681 48.6881C2.63136 48.5842 2.14665 48.8614 2.04279 49.2772C1.10801 52.9159 0.450196 56.6238 0.0693585 60.3663C-0.172993 62.6188 0.623304 64.8366 2.25052 66.4654C3.67 67.8862 5.57419 68.6832 7.58224 68.6832C9.62491 68.6832 11.5291 67.8862 12.9486 66.4654C14.1603 65.2525 14.922 63.6584 15.0605 61.9604C15.7529 54.9258 17.6917 48.099 20.8769 41.6881C21.0154 41.3763 20.9462 40.9951 20.6692 40.7178ZM33.6177 62.1337C33.4099 63.3465 32.856 64.4208 31.9905 65.2871C30.8826 66.396 29.3938 67.0198 27.8359 67.0198C26.2433 67.0198 24.7545 66.396 23.6467 65.2871C22.331 63.9703 21.7425 62.203 21.9848 60.401C22.7465 54.9604 24.3391 49.7277 26.728 44.8069C29.0476 39.9901 32.0943 35.5891 35.7296 31.7079C36.0412 31.3614 36.0412 30.8416 35.695 30.5297C35.3487 30.2178 34.8294 30.2178 34.5178 30.5644C30.7441 34.5842 27.6281 39.1238 25.2046 44.1139C22.7465 49.1733 21.1193 54.5792 20.323 60.1931C20.0114 62.5149 20.7731 64.802 22.4349 66.5C23.889 67.9555 25.7932 68.7178 27.8012 68.7178C29.8093 68.7178 31.7135 67.9208 33.133 66.5C34.2409 65.3911 34.9679 64.005 35.2449 62.4456C35.2795 62.1683 35.2103 61.9258 35.0025 61.7178C34.864 61.5792 34.7256 61.5099 34.5525 61.4753C34.137 61.3713 33.6869 61.6832 33.6177 62.1337ZM47.0508 61.0248C46.9816 61.2673 46.9816 61.4753 47.0855 61.6832C47.1893 61.8911 47.3624 62.0297 47.5702 62.099C47.9856 62.2376 48.4703 61.9951 48.6088 61.5446C48.6088 61.5446 48.6434 61.4406 48.7127 61.2673C49.0935 60.1584 51.1362 54.7178 55.637 49.797L54.4599 48.6188C52.3826 50.8713 50.5476 53.4703 49.0589 56.3812C47.8125 58.7376 47.2239 60.5396 47.0508 61.0248ZM9.69416 42.797C9.7634 42.7277 9.83264 42.6238 9.86726 42.5198C9.93651 42.3119 9.93651 42.104 9.86726 41.8961C9.7634 41.6881 9.62491 41.5495 9.41718 41.4456C9.00173 41.2723 8.51702 41.4802 8.34392 41.9307C8.27467 42.1386 8.27467 42.3465 8.34392 42.5545C8.44778 42.7624 8.58627 42.901 8.794 43.005C9.10559 43.1089 9.45181 43.005 9.69416 42.797ZM22.5041 31.3614C22.5388 31.3267 22.5734 31.2921 22.608 31.2574C22.885 30.8763 22.7811 30.3565 22.4003 30.1139C22.0194 29.8713 21.5001 29.9406 21.2578 30.3218C21.1193 30.4951 21.0847 30.7376 21.1193 30.9456C21.1539 31.1535 21.2924 31.3614 21.4655 31.4654C21.7771 31.7079 22.2272 31.6386 22.5041 31.3614ZM23.0581 28.2079C23.0927 28.4159 23.1966 28.6238 23.3697 28.7624C23.7159 29.0396 24.2698 28.9703 24.5468 28.6238C26.0009 26.7871 27.5589 25.0198 29.2207 23.3218L28.0436 22.1436C26.3471 23.8763 24.7545 25.6782 23.2658 27.5842C23.0927 27.7574 23.0581 28 23.0581 28.2079ZM9.72878 46.3664C7.13216 53.9555 6.50897 59.604 6.40511 60.6782V60.7129C6.37049 61.1634 6.7167 61.5792 7.16678 61.6139C7.40913 61.6139 7.65148 61.5446 7.82459 61.3713C7.96308 61.2327 8.03232 61.0594 8.06694 60.8515C8.06694 60.8515 8.10156 60.505 8.17081 59.8812C8.44778 57.6634 9.41718 51.703 12.2562 44.3564C13.8487 40.2327 15.7876 36.3168 18.038 32.6782C20.6 28.4159 23.612 24.5693 27.0049 21.104L25.8278 19.9258C21.9502 23.8763 18.5573 28.3466 15.7183 33.2673C13.3294 37.3565 11.3214 41.7574 9.72878 46.3664ZM10.3173 38.5693C10.3866 38.6386 10.4558 38.7079 10.5597 38.7426C10.9752 38.9159 11.4599 38.7426 11.6676 38.3267C15.0259 31.1881 19.5267 24.7426 25.0315 19.1634L23.8544 17.9852C18.2111 23.703 13.5718 30.3218 10.1442 37.6683C10.0058 37.9456 10.075 38.3267 10.3173 38.5693ZM11.9446 26.9604C8.89786 31.604 6.37049 36.5594 4.43168 41.6881C4.32781 42 4.39706 42.3465 4.60479 42.5545C4.67403 42.6238 4.77789 42.6931 4.88176 42.7277C5.19335 42.8317 5.53957 42.7624 5.7473 42.5545C5.81654 42.4852 5.88578 42.3812 5.92041 42.2772C7.82459 37.2871 10.2827 32.4357 13.2602 27.8961C15.8914 23.8763 18.9381 20.0644 22.331 16.5297L21.1539 15.3515C17.761 18.9208 14.645 22.8367 11.9446 26.9604ZM45.1813 50.802C45.2159 50.8367 45.2851 50.8713 45.3198 50.906C45.7006 51.1485 46.2199 51.0099 46.4623 50.6287C47.7087 48.5842 49.1974 46.7129 50.8592 45.0149L49.6821 43.8366C47.9164 45.6386 46.3584 47.6139 45.0428 49.7624C44.8351 50.0743 44.9043 50.5248 45.1813 50.802ZM35.4872 54.3366C35.418 54.5446 35.418 54.7871 35.5219 54.9604C35.6257 55.1683 35.7988 55.3069 36.0066 55.3763C36.422 55.5149 36.9067 55.2723 37.0452 54.8564C38.0146 52.0842 39.2956 49.3812 40.819 46.9208C42.3077 44.4951 44.108 42.2772 46.0814 40.2673L44.9043 39.0891C42.827 41.203 40.9921 43.5248 39.3995 46.0545C37.8069 48.6188 36.4913 51.4258 35.4872 54.3366ZM30.8826 56.5545C30.8133 56.7624 30.8479 57.005 30.9864 57.1782C31.0903 57.3862 31.298 57.4901 31.5058 57.5594C31.9212 57.6634 32.4059 57.3862 32.5098 56.9703C33.4446 53.2624 34.8987 49.6931 36.8029 46.401C38.6378 43.2129 40.8536 40.2673 43.4848 37.599L42.3077 36.4208C39.6072 39.1931 37.2529 42.2772 35.3834 45.5693C33.3753 49 31.8866 52.7079 30.8826 56.5545ZM23.5774 35.1733C23.9582 35.4159 24.4776 35.3119 24.7199 34.9307C26.7972 31.7772 29.2207 28.7624 31.8866 25.9901L30.7095 24.8119C27.9743 27.6535 25.4816 30.7376 23.3351 33.9951C23.0927 34.3763 23.1966 34.8961 23.5774 35.1733ZM24.9277 63.5545C24.9623 63.6238 25.0315 63.6931 25.1008 63.7624C25.8278 64.4901 26.7972 64.906 27.8359 64.906C28.3552 64.906 28.8399 64.802 29.29 64.6287C29.3938 64.5941 29.4631 64.5248 29.5669 64.4555C29.8093 64.2129 29.8785 63.8663 29.7401 63.5545C29.7054 63.4505 29.6362 63.3465 29.5669 63.2772C29.3246 63.0347 28.9784 62.9654 28.6668 63.104C28.4244 63.2079 28.1475 63.2772 27.8705 63.2772C27.2819 63.2772 26.728 63.0347 26.3125 62.6188C26.2779 62.5842 26.2433 62.5495 26.2086 62.5149C25.7932 62.0297 25.6547 61.5099 25.7239 60.9208C27.1781 50.4901 31.8866 40.9951 39.2956 33.4406L38.1185 32.2624C30.4671 40.0594 25.5855 49.901 24.0967 60.6782C23.8544 62.1337 24.6161 63.1733 24.9277 63.5545ZM26.6587 61.0594C26.5895 61.5099 26.9011 61.9258 27.3858 61.9951C27.6281 62.0297 27.9051 61.9258 28.0782 61.7525C28.2167 61.6139 28.2859 61.4753 28.3206 61.2673C28.3552 61.0941 28.3898 60.8862 28.4244 60.6436C28.7014 59.1881 29.5323 55.2723 31.6096 50.4208C34.0677 44.703 37.3222 39.6782 41.3383 35.4852L40.1611 34.3069C29.29 45.7079 26.9011 59.4654 26.6587 61.0594Z" fill="#686775"/>
<path d="M63.4615 31.1535L64.6387 32.3317C64.9849 32.6782 65.5042 32.6782 65.8504 32.3317L67.0276 31.1535C67.3738 30.8069 67.3738 30.2871 67.0276 29.9406L65.8504 28.7624C65.5042 28.4158 64.9849 28.4158 64.6387 28.7624L63.4615 29.9406C63.1153 30.2871 63.1153 30.8416 63.4615 31.1535ZM54.633 25.297L55.9487 26.6139C56.2949 26.9604 56.8142 26.9604 57.1604 26.6139L58.6145 25.1584C58.9607 24.8119 58.9607 24.2921 58.6145 23.9456L57.2989 22.6287C56.9527 22.2822 56.4334 22.2822 56.0871 22.6287L54.633 24.0842C54.3214 24.4307 54.3214 24.9852 54.633 25.297ZM49.3706 35.6584C49.0243 35.3119 49.0243 34.7921 49.3706 34.4456L54.0791 29.7327C54.4253 29.3861 54.4253 28.8663 54.0791 28.5198L52.7635 27.203C52.4173 26.8564 51.8979 26.8564 51.5517 27.203L46.8432 31.9158C46.497 32.2624 45.9776 32.2624 45.6314 31.9158L45.0775 31.3614C44.7313 31.0149 44.7313 30.4951 45.0775 30.1485L46.3585 28.8663C46.7047 28.5198 46.7047 28 46.3585 27.6535L45.0429 26.3366C44.6966 25.9901 44.1773 25.9901 43.8311 26.3366L42.5501 27.6188C42.2039 27.9654 41.6846 27.9654 41.3384 27.6188L39.9535 26.2327C39.6073 25.8861 39.088 25.8861 38.7417 26.2327L38.534 26.4406C38.1878 26.7871 38.1878 27.3069 38.534 27.6535L47.9857 37.1139C48.3319 37.4604 48.8512 37.4604 49.1975 37.1139L49.4052 36.9059C49.7168 36.5248 49.7168 36.005 49.3706 35.6584ZM35.1411 21.4158L33.4446 19.7178C33.0984 19.3713 33.0984 18.8515 33.4446 18.505L35.695 16.2525C36.0413 15.9059 36.0413 15.3861 35.695 15.0396L34.3794 13.7228C34.0332 13.3762 33.5139 13.3762 33.1677 13.7228L30.8826 15.9406C30.5364 16.2871 30.0171 16.2871 29.6709 15.9406L28.2168 14.4852C27.8706 14.1386 27.8706 13.6188 28.2168 13.2723L34.7603 6.72278C35.1065 6.37625 35.1065 5.85644 34.7603 5.50991L33.4446 4.19308C33.0984 3.84654 32.5791 3.84654 32.2329 4.19308L24.2699 12.1287C23.9237 12.4753 23.9237 12.9951 24.2699 13.3416L33.7216 22.802C34.0678 23.1485 34.5871 23.1485 34.9334 22.802L35.1411 22.5941C35.4527 22.2822 35.4527 21.7277 35.1411 21.4158ZM38.5686 1.45545L37.3915 0.277235C37.0453 -0.0692997 36.526 -0.0692997 36.1797 0.277235L34.968 1.45545C34.6218 1.80199 34.6218 2.32179 34.968 2.66832L36.1451 3.84654C36.4913 4.19308 37.0107 4.19308 37.3569 3.84654L38.534 2.66832C38.9148 2.32179 38.9148 1.76733 38.5686 1.45545ZM46.4623 24.8812L47.778 26.198C48.1242 26.5446 48.6435 26.5446 48.9897 26.198L53.1443 22.0396C53.4905 21.6931 53.4905 21.1733 53.1443 20.8267L51.8287 19.5099C51.4825 19.1634 50.9632 19.1634 50.6169 19.5099L46.4623 23.6683C46.1161 23.9802 46.1161 24.5347 46.4623 24.8812ZM64.9503 40.0941L66.2659 41.4109C66.6121 41.7574 67.1314 41.7574 67.4776 41.4109L74.9213 33.9604C75.2675 33.6139 75.2675 33.0941 74.9213 32.7475L73.6057 31.4307C73.2594 31.0842 72.7401 31.0842 72.3939 31.4307L64.9156 38.9159C64.6041 39.2277 64.6041 39.7475 64.9503 40.0941ZM63.6 49.901L61.9036 48.203C61.5574 47.8564 61.5574 47.3366 61.9036 46.9901L64.154 44.7376C64.5002 44.3911 64.5002 43.8713 64.154 43.5248L62.8384 42.2079C62.4921 41.8614 61.9728 41.8614 61.6266 42.2079L59.3762 44.4604C59.03 44.8069 58.5107 44.8069 58.1644 44.4604L56.7103 43.005C56.3641 42.6584 56.3641 42.1386 56.7103 41.7921L63.2538 35.2426C63.6 34.896 63.6 34.3762 63.2538 34.0297L61.9382 32.7129C61.592 32.3663 61.0726 32.3663 60.7264 32.7129L52.7981 40.6485C52.4519 40.9951 52.4519 41.5149 52.7981 41.8614L62.2498 51.3218C62.596 51.6683 63.1153 51.6683 63.4615 51.3218L63.6693 51.1139C63.9462 50.802 63.9462 50.2475 63.6 49.901ZM43.935 2.9109L36.4567 10.396C36.1105 10.7426 36.1105 11.2624 36.4567 11.6089L37.7723 12.9258C38.1185 13.2723 38.6379 13.2723 38.9841 12.9258L46.4623 5.4406C46.8086 5.09407 46.8086 4.57426 46.4623 4.22773L45.1467 2.9109C44.8005 2.56436 44.2466 2.56436 43.935 2.9109ZM81.7417 52.4307L83.0573 53.7475C83.4036 54.0941 83.9229 54.0941 84.2691 53.7475L85.7232 52.2921C86.0694 51.9456 86.0694 51.4258 85.7232 51.0792L84.4076 49.7624C84.0614 49.4159 83.5421 49.4159 83.1958 49.7624L81.7417 51.2178C81.4301 51.5644 81.4301 52.1188 81.7417 52.4307ZM80.253 47.9604L78.9374 46.6436C78.5912 46.297 78.0718 46.297 77.7256 46.6436L73.571 50.802C73.2248 51.1485 73.2248 51.6683 73.571 52.0149L74.8867 53.3317C75.2329 53.6782 75.7522 53.6782 76.0984 53.3317L80.253 49.1733C80.5646 48.8614 80.5646 48.3069 80.253 47.9604ZM72.7401 59.0495L72.1862 58.4951C71.84 58.1485 71.84 57.6287 72.1862 57.2822L73.4672 56C73.8134 55.6535 73.8134 55.1337 73.4672 54.7871L72.1516 53.4703C71.8053 53.1238 71.286 53.1238 70.9398 53.4703L69.6588 54.7525C69.3126 55.099 68.7933 55.099 68.447 54.7525L67.9623 54.2673C67.6161 53.9208 67.0968 53.9208 66.7506 54.2673L66.5429 54.4753C66.1966 54.8218 66.1966 55.3416 66.5429 55.6881L75.5791 64.7327C75.9253 65.0792 76.4446 65.0792 76.7909 64.7327L76.9986 64.5248C77.3448 64.1782 77.3448 63.6584 76.9986 63.3119L76.5139 62.8267C76.1677 62.4802 76.1677 61.9604 76.5139 61.6139L81.2224 56.901C81.5686 56.5545 81.5686 56.0347 81.2224 55.6881L79.9068 54.3713C79.5606 54.0248 79.0413 54.0248 78.695 54.3713L73.9865 59.0842C73.6057 59.396 73.0863 59.396 72.7401 59.0495Z" fill="#686775"/>
</svg>
