<svg width="70" height="70" viewBox="0 0 70 70" fill="none" xmlns="http://www.w3.org/2000/svg">
<g clip-path="url(#clip0_1860_44)">
<path d="M57.6755 56.8793V57.2601H57.2947" stroke="#686775" stroke-width="0.5493" stroke-miterlimit="10"/>
<path d="M56.5679 57.2601H10.1436" stroke="#686775" stroke-width="0.5493" stroke-miterlimit="10" stroke-dasharray="2.18 2.18"/>
<path d="M9.76265 57.2601H9.38184V56.8793" stroke="#686775" stroke-width="0.5493" stroke-miterlimit="10"/>
<path d="M9.38184 56.1177V9.72797" stroke="#686775" stroke-width="0.5493" stroke-miterlimit="10" stroke-dasharray="2.18 2.18"/>
<path d="M9.38184 9.34718V8.96637H9.76265" stroke="#686775" stroke-width="0.5493" stroke-miterlimit="10"/>
<path d="M10.5242 8.96637H56.9485" stroke="#686775" stroke-width="0.5493" stroke-miterlimit="10" stroke-dasharray="2.18 2.18"/>
<path d="M57.2947 8.96637H57.6755V9.34718" stroke="#686775" stroke-width="0.5493" stroke-miterlimit="10"/>
<path d="M57.6755 10.1088V56.4985" stroke="#686775" stroke-width="0.5493" stroke-miterlimit="10" stroke-dasharray="2.18 2.18"/>
<path d="M33.9378 0.874579L0.890381 36.0904L36.1062 69.1378L69.1536 33.922L33.9378 0.874579Z" stroke="#686775" stroke-width="1.0986" stroke-miterlimit="10"/>
<path d="M9.38184 8.96637L33.9268 0.865479" stroke="#686775" stroke-width="0.2747" stroke-miterlimit="10"/>
<path d="M9.38184 27.4876C9.85983 27.4876 10.2473 27.1001 10.2473 26.6221C10.2473 26.1441 9.85983 25.7567 9.38184 25.7567C8.90385 25.7567 8.51636 26.1441 8.51636 26.6221C8.51636 27.1001 8.90385 27.4876 9.38184 27.4876Z" fill="#686775"/>
<path d="M0.86548 36.731C1.34347 36.731 1.73096 36.3435 1.73096 35.8655C1.73096 35.3875 1.34347 35 0.86548 35C0.387488 35 0 35.3875 0 35.8655C0 36.3435 0.387488 36.731 0.86548 36.731Z" fill="#686775"/>
<path d="M47.186 58.1256C47.664 58.1256 48.0515 57.7381 48.0515 57.2601C48.0515 56.7821 47.664 56.3947 47.186 56.3947C46.708 56.3947 46.3206 56.7821 46.3206 57.2601C46.3206 57.7381 46.708 58.1256 47.186 58.1256Z" fill="#686775"/>
<path d="M57.6755 23.7488C58.1535 23.7488 58.541 23.3613 58.541 22.8833C58.541 22.4053 58.1535 22.0178 57.6755 22.0178C57.1975 22.0178 56.8101 22.4053 56.8101 22.8833C56.8101 23.3613 57.1975 23.7488 57.6755 23.7488Z" fill="#686775"/>
<path d="M57.6755 58.1256C58.1535 58.1256 58.541 57.7381 58.541 57.2601C58.541 56.7821 58.1535 56.3947 57.6755 56.3947C57.1975 56.3947 56.8101 56.7821 56.8101 57.2601C56.8101 57.7381 57.1975 58.1256 57.6755 58.1256Z" fill="#686775"/>
<path d="M33.9268 0.865479L57.6756 8.96637L69.1345 33.9268L57.6756 57.2601L36.1078 69.1345L9.3818 57.2601L0.865479 36.1078L9.3818 8.96637" stroke="#686775" stroke-width="0.2747" stroke-miterlimit="10"/>
<path d="M69.1345 34.7923C69.6125 34.7923 70 34.4048 70 33.9268C70 33.4488 69.6125 33.0613 69.1345 33.0613C68.6565 33.0613 68.269 33.4488 68.269 33.9268C68.269 34.4048 68.6565 34.7923 69.1345 34.7923Z" fill="#686775"/>
<path d="M23.2642 58.1256C23.7422 58.1256 24.1296 57.7381 24.1296 57.2601C24.1296 56.7821 23.7422 56.3947 23.2642 56.3947C22.7862 56.3947 22.3987 56.7821 22.3987 57.2601C22.3987 57.7381 22.7862 58.1256 23.2642 58.1256Z" fill="#686775"/>
<path d="M43.7932 8.96637C43.7932 9.45104 43.4124 9.83185 42.9277 9.83185C42.4431 9.83185 42.0623 9.45104 42.0623 8.96637C42.0623 8.4817 42.4431 8.10089 42.9277 8.10089C43.4124 8.10089 43.7932 8.4817 43.7932 8.96637Z" fill="#686775"/>
<path d="M36.731 69.1345C36.731 69.6192 36.3501 70 35.8655 70C35.3808 70 35 69.6192 35 69.1345C35 68.6499 35.3808 68.269 35.8655 68.269C36.3501 68.269 36.731 68.6499 36.731 69.1345Z" fill="#686775"/>
<path d="M58.541 45.8012C58.541 46.2859 58.1602 46.6667 57.6755 46.6667C57.1909 46.6667 56.8101 46.2859 56.8101 45.8012C56.8101 45.3165 57.1909 44.9357 57.6755 44.9357C58.1602 44.9357 58.541 45.3512 58.541 45.8012Z" fill="#686775"/>
<path d="M33.9268 1.73096C34.4048 1.73096 34.7922 1.34347 34.7922 0.86548C34.7922 0.387488 34.4048 0 33.9268 0C33.4488 0 33.0613 0.387488 33.0613 0.86548C33.0613 1.34347 33.4488 1.73096 33.9268 1.73096Z" fill="#686775"/>
<path d="M57.6755 9.83185C58.1535 9.83185 58.541 9.44436 58.541 8.96637C58.541 8.48838 58.1535 8.10089 57.6755 8.10089C57.1975 8.10089 56.8101 8.48838 56.8101 8.96637C56.8101 9.44436 57.1975 9.83185 57.6755 9.83185Z" fill="#686775"/>
<path d="M9.38184 44.6241C9.85983 44.6241 10.2473 44.2367 10.2473 43.7587C10.2473 43.2807 9.85983 42.8932 9.38184 42.8932C8.90385 42.8932 8.51636 43.2807 8.51636 43.7587C8.51636 44.2367 8.90385 44.6241 9.38184 44.6241Z" fill="#686775"/>
<path d="M26.1375 9.83185C26.6154 9.83185 27.0029 9.44436 27.0029 8.96637C27.0029 8.48838 26.6154 8.10089 26.1375 8.10089C25.6595 8.10089 25.272 8.48838 25.272 8.96637C25.272 9.44436 25.6595 9.83185 26.1375 9.83185Z" fill="#686775"/>
<path d="M9.38184 58.1256C9.85983 58.1256 10.2473 57.7381 10.2473 57.2601C10.2473 56.7821 9.85983 56.3947 9.38184 56.3947C8.90385 56.3947 8.51636 56.7821 8.51636 57.2601C8.51636 57.7381 8.90385 58.1256 9.38184 58.1256Z" fill="#686775"/>
<path d="M35.0001 16.825L22.0872 39.1889H47.9131L35.0001 16.825ZM35.0001 20.183L44.7281 37.0426H25.2721L35.0001 20.183Z" fill="#686775"/>
<path d="M35 20.183L44.728 37.0426L47.8783 39.1543L35 16.825V16.8596V20.2176V20.183Z" fill="#686775"/>
<path d="M35 20.183L44.728 37.0426L47.8783 39.1543L35 16.825V16.8596V20.2176V20.183Z" fill="#686775"/>
<path opacity="0.2" d="M44.7281 37.0425H25.2721L35.0001 20.2176V16.8596L22.0872 39.1889H47.9131L47.8785 39.1543L44.7281 37.0425Z" fill="#686775"/>
<path d="M23.472 40.1583C22.9527 41.093 23.6105 42.2354 24.6491 42.2354H45.6975C46.7707 42.2354 47.4285 41.093 46.8746 40.1583H23.472Z" fill="#686775"/>
<path d="M27.4185 35.9693H29.3571L35.1732 25.9298V22.5717L27.4185 35.9693Z" fill="#686775"/>
<path d="M35.1731 22.5371V22.5717V25.9298V25.8952L40.9891 35.9694H42.9278L35.1731 22.5371Z" fill="#686775"/>
<path d="M9.38184 9.83185C9.85983 9.83185 10.2473 9.44436 10.2473 8.96637C10.2473 8.48838 9.85983 8.10089 9.38184 8.10089C8.90385 8.10089 8.51636 8.48838 8.51636 8.96637C8.51636 9.44436 8.90385 9.83185 9.38184 9.83185Z" fill="#686775"/>
</g>
<defs>
<clipPath id="clip0_1860_44">
<rect width="70" height="70" fill="white"/>
</clipPath>
</defs>
</svg>
