<svg width="69" height="70" viewBox="0 0 69 70" fill="none" xmlns="http://www.w3.org/2000/svg">
<g clip-path="url(#clip0_1863_10)">
<path d="M15.8102 42.5526L11.4083 43.9895V28.8474C11.4083 26.9316 12.4354 25.1632 14.0861 24.2053L29.6395 15.1789V14.6632C29.6395 13.1526 29.0526 11.7158 27.9888 10.6474L26.228 8.87894C25.3477 9.17368 24.3572 9.24736 23.3301 8.91579C21.606 8.36315 20.3221 6.77894 20.1387 4.97368C19.882 1.95263 22.5598 -0.552635 25.6411 0.0368389C26.815 0.257892 27.9154 0.994734 28.5391 2.02631C29.4561 3.46315 29.4561 5.08421 28.9059 6.33684L30.5566 8.03157C32.3174 9.8 33.2711 12.1579 33.2711 14.6632V30.0632C33.2711 31.021 32.4641 31.7579 31.5103 31.7579C31.5103 31.7579 31.5103 31.7579 31.4737 31.7579C31.4003 31.7579 31.3636 31.7579 31.2902 31.7579C30.3365 31.7947 29.5295 31.021 29.5295 30.0632V20.3L18.488 26.7842C16.8373 27.7421 15.8102 29.5105 15.8102 31.4263V42.5526ZM34.1515 54.0105C32.5008 54.9684 30.4832 54.9684 28.8325 54.0105L17.7177 47.5632L25.6044 43.2158C26.4115 42.7737 26.7416 41.7421 26.2647 40.9316C26.228 40.821 26.1547 40.7474 26.118 40.6368C25.7145 39.7895 24.6507 39.4947 23.807 39.9368L15.8102 44.3579L11.4083 46.7895L10.3812 47.3421C8.21688 48.5579 6.60285 50.5842 5.90588 52.9789L4.98881 56.1842C2.71449 56.4421 0.917042 58.3947 0.917042 60.7526C0.917042 63.4789 3.26473 65.6526 6.05261 65.321C8.03347 65.1 9.68419 63.5158 10.0143 61.5632C10.3078 59.8684 9.6475 58.321 8.51034 57.2895L9.46409 54.0105C9.8676 52.5737 10.8213 51.3579 12.1419 50.621L13.169 50.0316L28.7591 59.0947C30.4099 60.0526 32.4274 60.0526 34.0781 59.0947L47.2105 51.4684L43.5789 48.4842L34.1515 54.0105ZM64.4146 42.8842C62.1036 42.8842 60.1595 44.6158 59.866 46.8631L56.858 47.7474C55.4274 48.1895 53.8867 48.0053 52.5662 47.2684L51.5024 46.6789V28.8474C51.5024 26.9316 50.4753 25.1632 48.8245 24.2053L35.9123 16.6895L35.0319 21.2579L44.496 26.7474C46.1467 27.7053 47.1738 29.4737 47.1738 31.3895V44.2842L39.3237 39.9737C38.5167 39.5316 37.4529 39.8263 37.0494 40.6368C37.0127 40.7474 36.9394 40.821 36.9027 40.9316C36.4258 41.7421 36.756 42.7737 37.563 43.2158L45.3397 47.4895L49.8517 49.9579L50.8421 50.5105C52.236 51.2842 53.74 51.6526 55.2807 51.6526C56.1611 51.6526 57.0414 51.5421 57.9218 51.2842L60.9298 50.4C61.9202 51.5789 63.4609 52.2421 65.1483 51.9842C67.1292 51.6895 68.7065 50.0316 68.9633 48.0421C69.2934 45.2421 67.1292 42.8842 64.4146 42.8842ZM31.5103 34.4474C29.7863 34.4474 28.3923 35.8474 28.3923 37.5789C28.3923 39.3105 29.7863 40.7105 31.5103 40.7105C33.2344 40.7105 34.6284 39.3105 34.6284 37.5789C34.6284 35.8474 33.1977 34.4474 31.5103 34.4474ZM53.9968 14.1105C52.1627 12.7474 49.6316 13.3368 48.5678 15.2526C47.6507 16.9105 48.0909 18.9368 49.5582 20.0421L48.9346 22.6579L50.9521 23.8368C51.2089 23.9842 51.429 24.1316 51.6491 24.3158L52.4928 20.7421C53.7033 20.521 54.8038 19.6737 55.2807 18.3842C55.8309 16.8737 55.3174 15.0684 53.9968 14.1105ZM40.7177 63.4053C39.6539 62.521 38.2966 62.3737 37.1228 62.7789L35.0686 60.6789L33.6012 61.5263C33.1611 61.7842 32.7209 61.9316 32.244 62.0421L34.9585 64.8421C34.2249 66.5737 34.8851 68.6 36.5359 69.521C38.4434 70.5895 40.9011 69.8158 41.7815 67.7158C42.4051 66.2053 41.9649 64.4 40.7177 63.4053ZM6.63953 27.521C5.97924 26.6368 4.84208 26.0105 3.48482 26.0474C2.49439 26.0842 1.57733 26.5632 0.917042 27.3C-0.733676 29.2526 -0.073389 32.1263 2.16425 33.1579C3.52151 33.7842 5.13554 33.4895 6.19934 32.4947C6.85962 31.9053 7.18977 31.1684 7.3365 30.4316L9.75755 29.7684V27.5579C9.75755 27.2263 9.79423 26.9316 9.8676 26.6368L6.63953 27.521Z" fill="#686775"/>
</g>
<defs>
<clipPath id="clip0_1863_10">
<rect width="69" height="70" fill="white"/>
</clipPath>
</defs>
</svg>
