<svg width="61" height="70" viewBox="0 0 61 70" fill="none" xmlns="http://www.w3.org/2000/svg">
<g clip-path="url(#clip0_1863_2)">
<path d="M60.9666 38.9041C56.2072 40.2397 52.2523 41.3356 48.9677 42.3288V41.6781C48.9677 41.2329 48.9677 40.3425 48.9677 39.5548C48.9342 35.7877 48.9342 35.274 50.8446 32.911L52.8891 30.3767L53.0232 30.2055C54.1292 28.8356 54.699 28.1507 54.9671 27.0205C55.2353 26.0274 55.2353 24.8288 55.2353 22.4658C55.2353 21.5068 55.2353 24.2808 55.2353 21.6096V15.6849C55.5034 15.5822 55.7715 15.411 55.9726 15.1712C56.3748 14.7603 56.6094 14.1781 56.6094 13.5616C56.6094 12.9452 56.3748 12.363 55.9726 11.9521C55.5704 11.5411 55.0007 11.3014 54.3974 11.3014C53.7941 11.3014 53.2243 11.5411 52.8221 11.9521C52.4199 12.363 52.1853 12.9452 52.1853 13.5616C52.1853 14.1781 52.4199 14.7603 52.8221 15.1712C53.0232 15.3767 53.2913 15.5479 53.5594 15.6849V21.6438C53.5594 23.6986 53.5594 20.9932 53.5594 22.5C53.5594 24.6918 53.5594 25.8219 53.3583 26.6096C53.1572 27.363 52.688 27.9452 51.716 29.1438L51.582 29.3151L49.5375 31.8493C47.2248 34.6918 47.2583 35.274 47.2919 39.589C47.2919 40.0342 47.2919 40.5479 47.2919 41.7123V42.8767C44.9457 43.6301 42.9682 44.3151 41.3259 45.0342V36.0616C41.3259 35.6164 41.3259 34.726 41.3259 33.9384C41.2924 30.1712 41.2924 29.6575 43.2028 27.2945L45.2474 24.7603L45.3814 24.589C46.4875 23.2192 47.0572 22.5342 47.3254 21.4041C47.5935 20.411 47.5935 19.2123 47.5935 16.8493C47.5935 15.8904 47.5935 18.6644 47.5935 15.9932V10.0342C47.8616 9.93151 48.1298 9.76027 48.3309 9.52055C48.7331 9.10959 49.0012 8.5274 49.0012 7.91096C49.0012 7.29452 48.7666 6.71233 48.3309 6.30137C47.9287 5.89041 47.3589 5.65068 46.7556 5.65068C46.1523 5.65068 45.5825 5.89041 45.1803 6.30137C44.7781 6.71233 44.5435 7.29452 44.5435 7.91096C44.5435 8.5274 44.7781 9.10959 45.1803 9.52055C45.3814 9.72603 45.6496 9.89726 45.9177 10.0342V15.9932C45.9177 18.0479 45.9177 15.3425 45.9177 16.8493C45.9177 19.0411 45.9177 20.1712 45.7166 20.9589C45.5155 21.7123 45.0463 22.2945 44.0743 23.4932L43.9402 23.6644L41.8957 26.1986C39.5831 29.0411 39.6166 29.6233 39.6501 33.9384C39.6501 34.3836 39.6501 34.8973 39.6501 36.0274V45.7877C37.3039 47.0205 35.7957 48.3562 34.8237 50.1027V30.411C34.8237 29.9658 34.8237 29.0753 34.8237 28.2877C34.7902 24.5205 34.7902 24.0068 36.7007 21.6438L38.7452 19.1096L38.8792 18.9384C39.9853 17.5685 40.555 16.8836 40.8232 15.7534C41.0913 14.7603 41.0913 13.5616 41.0913 11.1986C41.0913 10.2397 41.0913 13.0137 41.0913 10.3425V4.38356C41.3594 4.28082 41.6276 4.10959 41.8287 3.86986C42.2309 3.4589 42.4655 2.87671 42.4655 2.26027C42.4655 1.64384 42.2309 1.06164 41.8287 0.650685C41.4265 0.239726 40.8567 0 40.2534 0C39.6501 0 39.0803 0.239726 38.6781 0.650685C38.2759 1.06164 38.0078 1.64384 38.0078 2.26027C38.0078 2.87671 38.2424 3.4589 38.6781 3.86986C38.8792 4.07534 39.1474 4.24658 39.4155 4.38356V10.3425C39.4155 12.3973 39.4155 9.69178 39.4155 11.1986C39.4155 13.3904 39.4155 14.5205 39.2144 15.3082C39.0133 16.0616 38.5441 16.6438 37.5721 17.8425L37.438 18.0137L35.3935 20.5479C33.0809 23.3904 33.1144 23.9726 33.1479 28.2877C33.1479 28.7329 33.1479 29.2466 33.1479 30.411C33.1479 30.411 33.1479 64.6575 33.1479 69.7603C62.9441 61.4041 60.9666 62.2945 60.9666 38.9041ZM53.1908 13.5616C53.1908 12.911 53.727 12.363 54.3638 12.363C55.0007 12.363 55.5369 12.911 55.5369 13.5616C55.5369 14.2123 55.0007 14.7603 54.3638 14.7603C53.727 14.7603 53.1908 14.2466 53.1908 13.5616ZM45.5825 7.91096C45.5825 7.26027 46.1188 6.71233 46.7556 6.71233C47.3924 6.71233 47.9287 7.26027 47.9287 7.91096C47.9287 8.56164 47.3924 9.10959 46.7556 9.10959C46.1188 9.10959 45.5825 8.59589 45.5825 7.91096ZM39.0803 2.29452C39.0803 1.64384 39.6166 1.09589 40.2534 1.09589C40.8902 1.09589 41.4265 1.64384 41.4265 2.29452C41.4265 2.94521 40.8902 3.49315 40.2534 3.49315C39.5831 3.49315 39.0803 2.94521 39.0803 2.29452Z" fill="#686775"/>
<path d="M27.8187 28.3219C27.8522 23.9726 27.8522 23.3904 25.5731 20.5479L23.5286 18.0137L23.3945 17.8425C22.4226 16.6438 21.9533 16.0616 21.7522 15.3082C21.5511 14.5205 21.5511 13.3904 21.5511 11.1986C21.5511 9.69178 21.5511 12.3973 21.5511 10.3425V4.38356C21.8193 4.28082 22.0874 4.10959 22.2885 3.86986C22.6907 3.4589 22.9588 2.87671 22.9588 2.26027C22.9588 1.64384 22.7242 1.06164 22.2885 0.650685C21.8863 0.239726 21.35 0 20.7132 0C20.1099 0 19.5401 0.239726 19.138 0.650685C18.7358 1.06164 18.5011 1.64384 18.5011 2.26027C18.5011 2.87671 18.7358 3.4589 19.138 3.86986C19.339 4.07534 19.6072 4.24658 19.8753 4.38356V10.3425C19.8753 12.9795 19.8753 10.2397 19.8753 11.1986C19.8753 13.5616 19.8753 14.7603 20.1434 15.7534C20.4451 16.8836 20.9814 17.5342 22.0874 18.9384L22.2215 19.1096L24.266 21.6438C26.1764 24.0068 26.1764 24.5205 26.1429 28.2877C26.1429 29.0753 26.1429 29.9315 26.1429 30.411V50.411C25.0033 48.5274 23.294 47.0205 21.3165 45.7534V36.0616C21.3165 34.9315 21.3165 34.4178 21.3165 33.9726C21.35 29.6575 21.35 29.0753 19.0709 26.2329L17.0264 23.6986L16.8923 23.5274C15.9204 22.3288 15.4511 21.7466 15.25 20.9932C15.0489 20.2055 15.0489 19.0753 15.0489 16.8836C15.0489 15.3767 15.0489 18.0822 15.0489 16.0274V10.0342C15.3171 9.93151 15.5852 9.76027 15.7863 9.52055C16.1885 9.10959 16.4231 8.5274 16.4231 7.91096C16.4231 7.29452 16.1885 6.71233 15.7863 6.30137C15.3841 5.89041 14.8143 5.65068 14.211 5.65068C13.6077 5.65068 13.038 5.89041 12.6358 6.30137C12.2336 6.71233 11.9654 7.29452 11.9654 7.91096C11.9654 8.5274 12.2 9.10959 12.6358 9.52055C12.8369 9.72603 13.105 9.89726 13.3731 10.0342V15.9932C13.3731 18.6301 13.3731 15.8904 13.3731 16.8493C13.3731 19.2123 13.3731 20.411 13.6412 21.4041C13.9429 22.5342 14.4792 23.1849 15.5852 24.589L15.7193 24.7603L17.7638 27.2945C19.6742 29.6575 19.6742 30.1712 19.6407 33.9384C19.6407 34.726 19.6407 35.5822 19.6407 36.0616V44.8288C17.7973 43.8699 15.7528 43.0822 13.6748 42.4315V41.7466C13.6748 40.6164 13.6748 40.1027 13.6748 39.6233C13.7418 35.274 13.7418 34.6918 11.4292 31.8493L9.38465 29.3151L9.25059 29.1438C8.27861 27.9452 7.80938 27.363 7.60828 26.6096C7.40718 25.8219 7.40718 24.6918 7.40718 22.5C7.40718 20.9932 7.40718 23.6986 7.40718 21.6438V15.6849C7.67531 15.5822 7.94344 15.411 8.14454 15.1712C8.54674 14.7603 8.78136 14.1781 8.78136 13.5616C8.78136 12.9452 8.54674 12.363 8.14454 11.9521C7.74235 11.5411 7.17257 11.3014 6.56927 11.3014C5.96597 11.3014 5.39619 11.5411 4.99399 11.9521C4.5918 12.363 4.35718 12.9452 4.35718 13.5616C4.35718 14.1781 4.5918 14.7603 4.99399 15.1712C5.19509 15.3767 5.46322 15.5479 5.73136 15.6849V21.6438C5.73136 24.2808 5.73136 21.5411 5.73136 22.5C5.73136 24.863 5.73136 26.0616 5.99949 27.0548C6.30114 28.1849 6.8374 28.8356 7.94345 30.2397L8.07751 30.411L10.122 32.9452C12.0325 35.3082 12.0325 35.8219 11.9989 39.589C11.9989 40.3767 11.9989 41.2329 11.9989 41.7123V41.9178C7.67531 40.6849 3.28465 39.8288 0.0335546 38.9384C0.0335546 62.3288 -1.94392 61.4384 27.8187 69.7945C27.8187 66.4726 27.8187 28.7671 27.8187 28.3219ZM19.5401 2.29452C19.5401 1.64384 20.0764 1.09589 20.7132 1.09589C21.35 1.09589 21.8863 1.64384 21.8863 2.29452C21.8863 2.94521 21.35 3.49315 20.7132 3.49315C20.0764 3.49315 19.5401 2.94521 19.5401 2.29452ZM14.211 9.14384C13.5742 9.14384 13.038 8.59589 13.038 7.94521C13.038 7.29452 13.5742 6.74658 14.211 6.74658C14.8478 6.74658 15.3841 7.29452 15.3841 7.94521C15.3841 8.59589 14.8478 9.14384 14.211 9.14384ZM5.39619 13.5616C5.39619 12.911 5.93246 12.363 6.56927 12.363C7.20608 12.363 7.74235 12.911 7.74235 13.5616C7.74235 14.2123 7.20608 14.7603 6.56927 14.7603C5.93246 14.7603 5.39619 14.2466 5.39619 13.5616Z" fill="#686775"/>
<path d="M34.3545 7.77395C34.3545 5.54792 32.5781 3.73285 30.3995 3.73285C28.221 3.73285 26.4446 5.54792 26.4446 7.77395C26.4446 9.99997 28.221 11.815 30.3995 11.815C32.5781 11.815 34.3545 9.99997 34.3545 7.77395ZM30.3995 10.4109C28.9918 10.4109 27.8188 9.24655 27.8188 7.77395C27.8188 6.33559 28.9583 5.13696 30.3995 5.13696C31.8072 5.13696 32.9803 6.30134 32.9803 7.77395C32.9803 9.24655 31.8072 10.4109 30.3995 10.4109Z" fill="#686775"/>
<path d="M0.0335123 38.9041C0.0335123 38.9041 6.56923 48.2192 12.0994 51.5411C17.6297 54.8288 24.9363 55.9932 26.4445 62.1233C27.383 66.0274 27.8187 70.0343 27.8187 70.0343C27.8187 70.0343 25.0368 68.9726 20.7467 67.7055C14.6802 65.9247 6.13351 63.4247 2.78186 60.1712C-0.335169 57.1233 0.0335123 45.4452 0.0335123 45.4452V38.9041Z" fill="#686775"/>
<path d="M60.933 38.9041C60.933 38.9041 54.3973 48.2192 48.8671 51.5411C43.3368 54.8288 36.0302 55.9932 34.522 62.1233C33.5835 66.0274 33.1478 70.0343 33.1478 70.0343C33.1478 70.0343 35.9297 68.9726 40.2198 67.7055C46.2863 65.9247 54.833 63.4247 58.1846 60.1712C61.3017 57.1233 60.933 45.4452 60.933 45.4452V38.9041Z" fill="#686775"/>
</g>
<defs>
<clipPath id="clip0_1863_2">
<rect width="61" height="70" fill="white"/>
</clipPath>
</defs>
</svg>
