<svg width="67" height="70" viewBox="0 0 67 70" fill="none" xmlns="http://www.w3.org/2000/svg">
<g clip-path="url(#clip0_1860_4)">
<path d="M61.0204 0C57.7064 0 54.9688 2.69231 54.9688 6.11227V20.2287C54.9688 20.5925 55.0408 20.8836 55.1849 21.2474L62.4612 37.4012C63.5419 39.7297 66.9999 39.0021 66.9999 36.3825V6.11227C66.9999 2.69231 64.3343 0 61.0204 0Z" fill="#686775"/>
<path d="M66.0634 55.9563L42.3612 5.60291C38.8311 -1.89189 28.3128 -1.89189 24.7827 5.60291L0.93649 55.8836C-2.16136 62.4324 2.52144 69.9272 9.72574 69.9272H9.79778C13.6161 69.9272 17.0021 67.6715 18.6591 64.2516L19.4515 62.578C21.0365 59.0852 24.4946 56.9023 28.3128 56.9023H38.9032C42.7214 56.9023 46.1795 59.158 47.7644 62.6507L48.4849 64.2516C50.0698 67.7443 53.5279 70 57.3462 70C64.4064 70 69.1612 62.4324 66.0634 55.9563ZM42.1451 48.6798C42.001 48.6071 41.8569 48.5343 41.7128 48.3888C41.2806 48.0977 40.9204 47.8067 40.6322 47.3701C40.4161 47.1518 40.272 46.8607 40.0558 46.5697C39.9838 46.4241 39.8397 46.2058 39.7677 45.9875C39.5515 45.4054 39.4075 44.7505 39.4075 44.0956C39.4075 43.4408 39.5515 42.7859 39.7677 42.2037C39.8397 41.9855 39.9118 41.8399 40.0558 41.6216C40.1999 41.3306 40.4161 41.0395 40.6322 40.8212C40.9204 40.4574 41.2806 40.0936 41.7128 39.8025C41.8569 39.7297 42.001 39.657 42.1451 39.5114C42.2171 39.5114 42.2171 39.4387 42.2892 39.4387C42.5053 39.2931 42.7935 39.2204 43.0816 39.1476C43.5859 39.0021 44.0903 38.9293 44.5946 38.9293C45.0989 38.9293 45.6032 39.0021 46.1075 39.1476C46.3956 39.2204 46.7558 39.3659 47.044 39.5114C47.1881 39.5842 47.3322 39.657 47.4763 39.8025C47.9085 40.0936 48.2687 40.3846 48.5569 40.8212C48.773 41.0395 48.9171 41.3306 49.1333 41.6216C49.2053 41.7672 49.3494 41.9855 49.4214 42.2037C49.6376 42.7859 49.7816 43.4408 49.7816 44.0956C49.7816 44.7505 49.6376 45.4054 49.4214 45.9875C49.3494 46.2058 49.2773 46.3514 49.1333 46.5697C48.9892 46.8607 48.773 47.1518 48.5569 47.3701C48.2687 47.7339 47.9085 48.0977 47.4763 48.3888C47.3322 48.4615 47.1881 48.5343 47.044 48.6798C46.7558 48.8254 46.4677 48.9709 46.1075 49.0437C45.6032 49.1892 45.0989 49.262 44.5946 49.262C44.0903 49.262 43.5859 49.1892 43.0816 49.0437C42.7214 48.9709 42.4333 48.8254 42.1451 48.6798ZM29.0333 44.1684C29.0333 47.0062 26.7999 49.262 23.9903 49.262C23.1257 49.262 22.3333 49.0437 21.6128 48.6798C21.3247 48.5343 21.0365 48.316 20.8204 48.0977C20.6763 48.025 20.6042 47.8794 20.4601 47.7339C20.244 47.5156 20.0279 47.2245 19.8118 47.0062C19.5956 46.7152 19.4515 46.4241 19.3795 46.1331C19.0913 45.5509 18.9472 44.8233 18.9472 44.1684C18.9472 43.4408 19.0913 42.7859 19.3795 42.2037C19.5236 41.9127 19.6677 41.6216 19.8118 41.3306C20.0279 41.0395 20.172 40.8212 20.4601 40.6029C20.6042 40.4574 20.6763 40.3846 20.8204 40.2391C21.0365 40.0208 21.3247 39.8753 21.6128 39.657C22.3333 39.2931 23.1257 39.0749 23.9903 39.0749C24.5666 39.0749 25.0709 39.1476 25.5752 39.3659C26.2236 39.5842 26.7999 39.948 27.3042 40.3846C28.3849 41.3306 29.0333 42.6403 29.0333 44.1684ZM33.8601 19.4283C32.6354 19.4283 31.6268 20.447 31.6268 21.684V32.0166L28.8171 37.6195C28.2408 37.183 27.6644 36.8919 27.0161 36.6008L29.6096 31.5073V21.684C29.6096 19.2827 31.5548 17.3909 33.8601 17.3909C36.2376 17.3909 38.1107 19.3555 38.1107 21.684V31.5073L40.8483 36.8919C40.1999 37.183 39.6956 37.6195 39.1193 38.0561L36.0935 32.0166V21.684C36.0935 20.447 35.0849 19.4283 33.8601 19.4283Z" fill="#686775"/>
</g>
<defs>
<clipPath id="clip0_1860_4">
<rect width="67" height="70" fill="white"/>
</clipPath>
</defs>
</svg>
