<svg width="75" height="68" viewBox="0 0 75 68" fill="none" xmlns="http://www.w3.org/2000/svg">
<g clip-path="url(#clip0_1863_69)">
<path d="M30.0098 51.2577C28.4381 52.5834 26.1787 52.6815 24.5088 51.4541C24.5088 51.4541 29.4204 55.2837 31.1886 56.5111C31.5324 56.7566 31.8762 57.0021 32.22 57.2476C34.9705 59.2606 37.6719 61.2245 40.8153 61.2245C45.2848 61.2245 48.9194 57.5913 48.9194 53.1234C48.9194 48.6556 45.2848 45.0223 40.8153 45.0223C36.2966 45.0223 33.0058 48.7537 30.0098 51.2577Z" fill="#686775"/>
<path d="M32.1709 57.2476C31.0413 56.462 29.6169 56.5602 28.5855 57.4931C24.9509 60.7826 18.5658 67.9999 11.3949 67.9999C5.10806 67.9999 0 62.8938 0 56.6093C0 50.2758 5.10806 45.1696 11.3949 45.1696C17.0432 45.1696 22.2986 49.7848 26.7682 53.1234C28.389 54.3508 32.1709 57.2476 32.1709 57.2476Z" fill="#686775"/>
<path d="M32.7603 30.1949C32.3674 28.1819 33.448 26.1689 35.3144 25.3343C35.3144 25.3343 29.5678 27.691 27.6032 28.5747C27.2103 28.722 26.8664 28.9184 26.4735 29.0657C23.3792 30.4404 20.334 31.7661 18.7132 34.5155C16.503 38.3942 17.8291 43.3531 21.6602 45.5625C25.5403 47.7718 30.501 46.4462 32.7112 42.6166C35.0197 38.7379 33.448 34.0245 32.7603 30.1949Z" fill="#686775"/>
<path d="M26.4736 29.0657C27.7015 28.4765 28.34 27.2 28.0453 25.8744C27.063 21.0628 23.9687 11.9798 27.505 5.7444C30.6975 0.245483 37.672 -1.62022 43.1239 1.52202C48.5757 4.66426 50.4421 11.6361 47.2987 17.0859C44.4991 21.9957 37.8685 24.205 32.7113 26.4144C30.894 27.2 26.4736 29.0657 26.4736 29.0657Z" fill="#686775"/>
<path d="M49.6562 43.1076C51.6208 43.7949 52.7996 45.7097 52.6031 47.7718C52.6031 47.7718 53.4381 41.5856 53.6346 39.4744C53.6837 39.0816 53.7328 38.6397 53.7819 38.2469C54.1257 34.8592 54.5187 31.5697 52.8978 28.8202C50.6385 24.9415 45.7269 23.6159 41.8468 25.8744C37.9666 28.1329 36.6405 33.0426 38.8998 36.9213C41.11 40.7509 45.9725 41.782 49.6562 43.1076Z" fill="#686775"/>
<path d="M53.782 38.1978C53.6837 39.5725 54.4696 40.7509 55.7466 41.1928C60.4126 42.7148 69.8429 44.5805 73.4283 50.8159C76.5718 56.2657 74.7054 63.2375 69.2535 66.3798C63.8016 69.522 56.8272 67.6563 53.6838 62.2065C50.835 57.3458 52.2103 50.4722 52.8979 44.9242C53.1435 42.9603 53.782 38.1978 53.782 38.1978Z" fill="#686775"/>
<path opacity="0.2" d="M52.8978 44.9733C52.6031 47.2317 52.2102 49.7357 52.0629 52.2397C52.6523 48.4101 54.1748 44.4332 55.5992 41.1927C54.3713 40.7509 53.6346 39.5725 53.7328 38.2469C53.7819 38.1978 53.1434 42.9603 52.8978 44.9733Z" fill="#686775"/>
<path opacity="0.2" d="M32.171 57.2476C32.171 57.2476 28.389 54.3018 26.7682 53.1234C25.1965 51.9451 23.5266 50.6195 21.8075 49.392C24.7053 51.6014 27.112 55.0382 28.5855 57.4931C29.6169 56.5603 31.0413 56.4621 32.171 57.2476Z" fill="#686775"/>
<path opacity="0.2" d="M28.0943 25.9726C28.2908 27.2491 27.6523 28.4765 26.4735 29.0657C26.4735 29.0657 30.8939 27.2491 32.7603 26.4635C34.2338 25.8253 35.8055 25.187 37.3772 24.4996C34.4303 25.5798 30.7957 25.9235 28.0943 25.9726Z" fill="#686775"/>
</g>
<defs>
<clipPath id="clip0_1863_69">
<rect width="75" height="68" fill="white"/>
</clipPath>
</defs>
</svg>
