<svg width="70" height="70" viewBox="0 0 70 70" fill="none" xmlns="http://www.w3.org/2000/svg">
<g clip-path="url(#clip0_1863_12)">
<path d="M31.3385 68.3462C32.559 68.477 33.7795 68.5641 35 68.5641C41.6257 68.5641 47.7718 66.6462 53.0026 63.3334" stroke="#686775" stroke-width="2" stroke-miterlimit="10" stroke-linecap="round" stroke-linejoin="round"/>
<path d="M62.4617 54.3103C64.0309 52.0872 65.295 49.6897 66.2976 47.1615H35.0001V39.7513" stroke="#686775" stroke-width="2" stroke-miterlimit="10" stroke-linecap="round" stroke-linejoin="round"/>
<path d="M35.0001 30.2051C37.6155 30.2051 39.7514 32.341 39.7514 34.9564C39.7514 37.5718 37.6155 39.7077 35.0001 39.7077C32.3411 39.7513 30.2052 37.6154 30.2052 35C30.2052 32.341 32.3411 30.2051 35.0001 30.2051Z" stroke="#686775" stroke-width="2" stroke-miterlimit="10" stroke-linecap="round" stroke-linejoin="round"/>
<path d="M35 32.9077C36.1769 32.9077 37.0923 33.8667 37.0923 35C37.0923 36.1334 36.1334 37.0923 35 37.0923C33.8231 37.0923 32.9077 36.1334 32.9077 35C32.9077 33.8667 33.8231 32.9077 35 32.9077Z" fill="#686775"/>
<path d="M56.8384 60.4564C57.9718 59.4975 59.0179 58.4513 59.9769 57.3616H42.0615" stroke="#686775" stroke-width="2" stroke-miterlimit="10" stroke-linecap="round" stroke-linejoin="round"/>
<path d="M39.0103 60.4564C40.6954 60.4564 42.0615 59.0903 42.0615 57.4052C42.0615 55.72 40.6954 54.3539 39.0103 54.3539C37.3251 54.3539 35.959 55.72 35.959 57.4052C35.959 59.0903 37.3251 60.4564 39.0103 60.4564Z" stroke="#686775" stroke-width="2" stroke-miterlimit="10" stroke-linecap="round" stroke-linejoin="round"/>
<path d="M37.6589 57.4052C37.6589 56.6641 38.2692 56.0539 39.0102 56.0539C39.7512 56.0539 40.3615 56.6641 40.3615 57.4052C40.3615 58.1462 39.7512 58.7565 39.0102 58.7565C38.2692 58.7565 37.6589 58.1462 37.6589 57.4052Z" fill="#686775"/>
<path d="M66.559 23.5795C63.9436 16.3 58.8872 10.1974 52.3488 6.27435V17.5641H50.3" stroke="#686775" stroke-width="2" stroke-miterlimit="10" stroke-linecap="round" stroke-linejoin="round"/>
<path d="M44.1975 17.5205C44.1975 15.8205 45.5488 14.4692 47.2488 14.4692C48.9488 14.4692 50.3001 15.8205 50.3001 17.5205C50.3001 19.2205 48.9488 20.5718 47.2488 20.5718C45.5924 20.5718 44.1975 19.2205 44.1975 17.5205Z" stroke="#686775" stroke-width="2" stroke-miterlimit="10" stroke-linecap="round" stroke-linejoin="round"/>
<path d="M45.941 17.5205C45.941 16.7795 46.5513 16.1693 47.2923 16.1693C48.0333 16.1693 48.6436 16.7795 48.6436 17.5205C48.6436 18.2616 48.0333 18.8718 47.2923 18.8718C46.5513 18.8718 45.941 18.2616 45.941 17.5205Z" fill="#686775"/>
<path d="M19.3949 40.1436H16.6924V63.159C19.7437 65.1641 23.1437 66.6462 26.8052 67.5616V53.5257" stroke="#686775" stroke-width="2" stroke-miterlimit="10" stroke-linecap="round" stroke-linejoin="round"/>
<path d="M28.9847 52.6103C27.8078 53.7872 25.8462 53.7872 24.6693 52.6103C23.4924 51.4334 23.4924 49.4718 24.6693 48.2949C25.8462 47.118 27.8078 47.118 28.9847 48.2949C30.1616 49.4718 30.1616 51.4334 28.9847 52.6103Z" stroke="#686775" stroke-width="2" stroke-miterlimit="10" stroke-linecap="round" stroke-linejoin="round"/>
<path d="M27.7642 51.3898C27.2411 51.9128 26.4129 51.9128 25.8899 51.3898C25.3668 50.8667 25.3668 50.0385 25.8899 49.5154C26.4129 48.9923 27.2411 48.9923 27.7642 49.5154C28.2873 50.0385 28.2873 50.8667 27.7642 51.3898Z" fill="#686775"/>
<path d="M22.4462 43.1949C24.1314 43.1949 25.4975 41.8288 25.4975 40.1436C25.4975 38.4585 24.1314 37.0923 22.4462 37.0923C20.761 37.0923 19.3949 38.4585 19.3949 40.1436C19.3949 41.8288 20.761 43.1949 22.4462 43.1949Z" stroke="#686775" stroke-width="2" stroke-miterlimit="10" stroke-linecap="round" stroke-linejoin="round"/>
<path d="M23.7538 40.1436C23.7538 40.8847 23.1436 41.4949 22.4026 41.4949C21.6615 41.4949 21.0513 40.8847 21.0513 40.1436C21.0513 39.4026 21.6615 38.7924 22.4026 38.7924C23.1436 38.7924 23.7538 39.4026 23.7538 40.1436Z" fill="#686775"/>
<path d="M11.6359 59.1051C6.97175 54.5718 3.61534 48.7307 2.17688 42.1051H7.23329" stroke="#686775" stroke-width="2" stroke-miterlimit="10" stroke-linecap="round" stroke-linejoin="round"/>
<path d="M13.2111 43.0328C13.7227 41.4272 12.8359 39.7108 11.2302 39.1992C9.62458 38.6876 7.9082 39.5744 7.39658 41.1801C6.88496 42.7857 7.77184 44.5021 9.37748 45.0137C10.9831 45.5253 12.6995 44.6385 13.2111 43.0328Z" stroke="#686775" stroke-width="2" stroke-miterlimit="10" stroke-linecap="round" stroke-linejoin="round"/>
<path d="M8.97681 42.1051C8.97681 41.3641 9.58706 40.7538 10.3281 40.7538C11.0691 40.7538 11.6794 41.3641 11.6794 42.1051C11.6794 42.8462 11.0691 43.4564 10.3281 43.4564C9.58706 43.4564 8.97681 42.8462 8.97681 42.1051Z" fill="#686775"/>
<path d="M1.43591 35C1.43591 23.9718 6.75386 14.1641 14.9923 8.06152L15.0795 8.19229V31.9487H12.0282" stroke="#686775" stroke-width="2" stroke-miterlimit="10" stroke-linecap="round" stroke-linejoin="round"/>
<path d="M8.97694 35C10.6621 35 12.0282 33.6339 12.0282 31.9487C12.0282 30.2635 10.6621 28.8974 8.97694 28.8974C7.29176 28.8974 5.92566 30.2635 5.92566 31.9487C5.92566 33.6339 7.29176 35 8.97694 35Z" stroke="#686775" stroke-width="2" stroke-miterlimit="10" stroke-linecap="round" stroke-linejoin="round"/>
<path d="M10.3282 31.9487C10.3282 32.6897 9.71792 33.3 8.97689 33.3C8.23587 33.3 7.62561 32.6897 7.62561 31.9487C7.62561 31.2077 8.23587 30.5974 8.97689 30.5974C9.71792 30.5974 10.3282 31.2077 10.3282 31.9487Z" fill="#686775"/>
<path d="M57.2744 28.5052H67.9539C68.3462 30.5975 68.5641 32.777 68.5641 35.0001C68.5641 36.1334 68.5205 37.2667 68.3898 38.4001H54.8769V36.3078H50.3872" stroke="#686775" stroke-width="2" stroke-miterlimit="10" stroke-linecap="round" stroke-linejoin="round"/>
<path d="M56.3591 30.6411C55.1822 31.818 53.2206 31.818 52.0437 30.6411C50.8668 29.4641 50.8668 27.5026 52.0437 26.3257C53.2206 25.1488 55.1822 25.1488 56.3591 26.3257C57.536 27.5026 57.536 29.4641 56.3591 30.6411Z" stroke="#686775" stroke-width="2" stroke-miterlimit="10" stroke-linecap="round" stroke-linejoin="round"/>
<path d="M55.1386 29.4205C54.6155 29.9436 53.7873 29.9436 53.2643 29.4205C52.7412 28.8975 52.7412 28.0693 53.2643 27.5462C53.7873 27.0231 54.6155 27.0231 55.1386 27.5462C55.6617 28.0693 55.6617 28.8975 55.1386 29.4205Z" fill="#686775"/>
<path d="M47.2924 39.359C48.9775 39.359 50.3437 37.9929 50.3437 36.3078C50.3437 34.6226 48.9775 33.2565 47.2924 33.2565C45.6072 33.2565 44.2411 34.6226 44.2411 36.3078C44.2411 37.9929 45.6072 39.359 47.2924 39.359Z" stroke="#686775" stroke-width="2" stroke-miterlimit="10" stroke-linecap="round" stroke-linejoin="round"/>
<path d="M45.941 36.3078C45.941 35.5667 46.5513 34.9565 47.2923 34.9565C48.0333 34.9565 48.6436 35.5667 48.6436 36.3078C48.6436 37.0488 48.0333 37.659 47.2923 37.659C46.5513 37.659 45.941 37.0488 45.941 36.3078Z" fill="#686775"/>
<path d="M29.377 10.8077V1.91541C26.3257 2.43848 23.4052 3.35387 20.7026 4.61797V25.7154H24.2334" stroke="#686775" stroke-width="2" stroke-miterlimit="10" stroke-linecap="round" stroke-linejoin="round"/>
<path d="M30.336 25.7154C30.336 27.4154 28.9847 28.7667 27.2847 28.7667C25.5847 28.7667 24.2334 27.4154 24.2334 25.7154C24.2334 24.0154 25.5847 22.6641 27.2847 22.6641C28.9847 22.6641 30.336 24.0154 30.336 25.7154Z" stroke="#686775" stroke-width="2" stroke-miterlimit="10" stroke-linecap="round" stroke-linejoin="round"/>
<path d="M28.6359 25.7154C28.6359 26.4564 28.0257 27.0667 27.2846 27.0667C26.5436 27.0667 25.9333 26.4564 25.9333 25.7154C25.9333 24.9744 26.5436 24.3641 27.2846 24.3641C28.0257 24.3641 28.6359 24.9744 28.6359 25.7154Z" fill="#686775"/>
<path d="M29.377 10.8077C31.077 10.8077 32.4282 12.159 32.4282 13.859C32.4282 15.559 31.077 16.9103 29.377 16.9103C27.677 16.9103 26.3257 15.559 26.3257 13.859C26.3257 12.159 27.677 10.8077 29.377 10.8077Z" stroke="#686775" stroke-width="2" stroke-miterlimit="10" stroke-linecap="round" stroke-linejoin="round"/>
<path d="M29.3769 12.5078C30.1179 12.5078 30.7282 13.118 30.7282 13.859C30.7282 14.6001 30.1179 15.2103 29.3769 15.2103C28.6359 15.2103 28.0256 14.6001 28.0256 13.859C28.0256 13.118 28.6359 12.5078 29.3769 12.5078Z" fill="#686775"/>
<path d="M49.6461 4.79232C45.2436 2.65643 40.2308 1.43591 35 1.43591C34.8692 1.43591 34.6949 1.43591 34.5641 1.43591V8.06155H37.659V17.3462" stroke="#686775" stroke-width="2" stroke-miterlimit="10" stroke-linecap="round" stroke-linejoin="round"/>
<path d="M37.6589 23.4051C39.3441 23.4051 40.7102 22.039 40.7102 20.3538C40.7102 18.6687 39.3441 17.3026 37.6589 17.3026C35.9738 17.3026 34.6077 18.6687 34.6077 20.3538C34.6077 22.039 35.9738 23.4051 37.6589 23.4051Z" stroke="#686775" stroke-width="2" stroke-miterlimit="10" stroke-linecap="round" stroke-linejoin="round"/>
<path d="M37.6589 21.7051C36.9179 21.7051 36.3076 21.0949 36.3076 20.3538C36.3076 19.6128 36.9179 19.0026 37.6589 19.0026C38.3999 19.0026 39.0102 19.6128 39.0102 20.3538C39.0102 21.0949 38.3999 21.7051 37.6589 21.7051Z" fill="#686775"/>
</g>
<defs>
<clipPath id="clip0_1863_12">
<rect width="70" height="70" fill="white"/>
</clipPath>
</defs>
</svg>
