<svg width="66" height="70" viewBox="0 0 66 70" fill="none" xmlns="http://www.w3.org/2000/svg">
<g clip-path="url(#clip0_1863_176)">
<path d="M32.9604 68.5284C24.126 68.4489 15.8463 64.9091 9.66627 58.625C3.40696 52.3409 0 43.9886 0 35.1193C0 26.25 3.40696 17.8977 9.62665 11.6136C15.8463 5.32955 24.126 1.78978 32.9604 1.71024L33 4.33524C16.2425 4.49433 2.61465 18.3352 2.61465 35.1193C2.61465 51.9034 16.2425 65.7443 32.9604 65.9034V68.5284Z" fill="#686775"/>
<path d="M45.4789 28.4375H29.7514C29.0383 28.4375 28.4441 27.8409 28.4441 27.125C28.4441 26.4091 29.0383 25.8125 29.7514 25.8125H44.1716V11.8523C44.1716 11.1364 44.7658 10.5398 45.4789 10.5398C46.192 10.5398 46.7862 11.1364 46.7862 11.8523V27.125C46.7862 27.8409 46.192 28.4375 45.4789 28.4375Z" fill="#686775"/>
<path d="M60.7311 34.483H24.958C24.2449 34.483 23.6506 33.8864 23.6506 33.1705C23.6506 32.4545 24.2449 31.858 24.958 31.858H59.4237V26.9659C59.4237 26.25 60.018 25.6534 60.7311 25.6534C61.4442 25.6534 62.0384 26.25 62.0384 26.9659V33.1705C62.0384 33.9261 61.4838 34.483 60.7311 34.483Z" fill="#686775"/>
<path d="M59.7802 40.5682H24.2448C23.5317 40.5682 22.9375 39.9716 22.9375 39.2557C22.9375 38.5398 23.5317 37.9432 24.2448 37.9432H59.7802C60.4933 37.9432 61.0876 38.5398 61.0876 39.2557C61.0876 40.0114 60.4933 40.5682 59.7802 40.5682Z" fill="#686775"/>
<path d="M52.5702 55.483H47.2221C46.509 55.483 45.9148 54.8864 45.9148 54.1705V46.9318H29.395C28.6819 46.9318 28.0876 46.3352 28.0876 45.6193C28.0876 44.9034 28.6819 44.3068 29.395 44.3068H47.2221C47.9352 44.3068 48.5294 44.9034 48.5294 45.6193V52.858H52.5702C53.2833 52.858 53.8776 53.4545 53.8776 54.1705C53.8776 54.8864 53.2833 55.483 52.5702 55.483Z" fill="#686775"/>
<path d="M36.0504 67.0568C36.0504 67.9318 35.3373 68.6477 34.4657 68.6477C33.5942 68.6477 32.8811 67.9318 32.8811 67.0568C32.8811 66.1818 33.5942 65.4659 34.4657 65.4659C35.3373 65.4659 36.0504 66.1818 36.0504 67.0568Z" fill="#686775"/>
<path d="M34.4657 70C32.8811 70 31.5737 68.6875 31.5737 67.0966C31.5737 65.5057 32.8811 64.1932 34.4657 64.1932C36.0503 64.1932 37.3576 65.5057 37.3576 67.0966C37.3576 68.6875 36.0503 70 34.4657 70ZM34.4657 66.7784C34.3072 66.7784 34.1884 66.8977 34.1884 67.0568C34.1884 67.2159 34.3072 67.3352 34.4657 67.3352C34.6242 67.3352 34.743 67.2159 34.743 67.0568C34.743 66.8977 34.6242 66.7784 34.4657 66.7784Z" fill="#686775"/>
<path d="M36.0504 2.90341C36.0504 3.77841 35.3373 4.49432 34.4657 4.49432C33.5942 4.49432 32.8811 3.77841 32.8811 2.90341C32.8811 2.02841 33.5942 1.3125 34.4657 1.3125C35.3373 1.3125 36.0504 2.02841 36.0504 2.90341Z" fill="#686775"/>
<path d="M34.4657 5.84659C32.8811 5.84659 31.5737 4.53409 31.5737 2.94318C31.5737 1.3125 32.8811 0 34.4657 0C36.0503 0 37.3576 1.3125 37.3576 2.90341C37.3576 4.53409 36.0503 5.84659 34.4657 5.84659ZM34.4657 2.625C34.3072 2.625 34.1884 2.74432 34.1884 2.90341C34.1884 3.0625 34.3072 3.18182 34.4657 3.18182C34.6242 3.18182 34.743 3.0625 34.743 2.90341C34.743 2.74432 34.6242 2.625 34.4657 2.625Z" fill="#686775"/>
<path d="M16.5991 42.6364C16.0049 42.6364 15.3314 42.517 14.5787 42.2784C10.4983 40.8466 6.49707 35.5966 6.06129 32.9318C5.90283 31.8977 5.18974 31.6193 3.44665 31.1023C2.85241 30.9432 2.21856 30.7443 1.62432 30.4659C0.950849 30.1875 0.673538 29.392 0.950849 28.7557C1.22816 28.0795 2.02048 27.8011 2.65433 28.0795C3.0901 28.2784 3.60511 28.4375 4.15973 28.5966C5.86321 29.0739 8.16093 29.75 8.63632 32.4943C8.91363 34.2045 12.281 38.6989 15.4502 39.8125C16.718 40.25 17.3914 39.9318 17.7876 39.6136C17.7084 38.9375 16.4803 37.1875 15.6879 36.1534C14.0637 33.8864 12.6375 31.8977 13.1921 30.1477C13.3506 29.5909 13.826 28.875 14.9749 28.517C16.718 27.9602 17.8272 28.0398 18.5403 28.0795C19.2138 28.1193 19.4118 28.1193 20.6795 26.1307C22.4226 23.3864 25.7108 22.6307 28.0877 22.1136C28.9592 21.9148 30.227 21.6364 30.5835 21.3579C30.5439 20.642 29.7912 19.6477 28.7216 18.9716C27.6519 18.2557 25.9881 17.7386 24.6015 18.375C21.8284 19.6477 19.4118 18.7329 18.5403 17.2216C17.946 16.1875 17.9857 14.6364 19.4911 13.4829C20.5211 12.7273 21.1549 11.4943 21.2342 10.9375C21.1153 10.9375 20.8776 10.9375 20.5211 11.017C18.263 11.4545 15.886 11.2557 13.9845 10.5C13.311 10.2216 12.9941 9.4659 13.2714 8.78976C13.5487 8.11363 14.3014 7.79544 14.9749 8.07385C16.401 8.67044 18.263 8.78976 19.9665 8.47158C22.383 7.99431 23.2942 9.06817 23.6111 9.78408C24.443 11.6932 22.6603 14.3977 21.0361 15.6307C20.838 15.7898 20.7588 15.9091 20.7588 15.9489C20.7588 15.9489 20.838 16.1079 21.1153 16.2273C21.353 16.3466 22.1849 16.625 23.4923 16.0284C25.4731 15.1136 27.9689 15.4318 30.1081 16.8239C32.0097 18.0568 33.1585 19.8466 33.1585 21.4773C33.1585 23.7443 30.742 24.2614 28.6423 24.7386C26.4635 25.2159 24.0469 25.7727 22.8584 27.642C21.0361 30.4659 20.1249 30.9034 18.3422 30.7841C17.7083 30.7443 17.0349 30.7045 15.7672 31.1023C15.7276 31.1023 15.6879 31.142 15.6879 31.142C15.7672 31.8579 17.0745 33.6875 17.8272 34.7216C19.6495 37.267 21.5511 39.892 19.6099 41.642C18.9364 42.0795 17.946 42.6364 16.5991 42.6364Z" fill="#686775"/>
<path d="M14.222 62.2443C13.9447 62.2443 13.6674 62.1648 13.4297 61.9659C12.0828 60.9318 9.8643 58.1079 11.2905 54.767C12.3205 52.3011 13.9447 51.1477 15.2521 50.2329C15.8859 49.7954 16.4009 49.4375 16.7971 48.9602C17.2328 48.4829 17.5498 47.5682 17.8667 46.7329C18.4609 45.0625 19.2533 42.9943 21.2737 42.9148C22.8187 42.875 23.8883 44.2273 25.156 45.7784C26.3445 47.25 27.6914 48.9602 29.5138 49.6364C30.1872 49.875 31.0192 49.9545 31.8115 50.0341C32.8415 50.1136 33.9507 50.1932 34.8223 50.75C35.4561 51.1079 35.6542 51.9034 35.2977 52.5398C34.9411 53.1761 34.1488 53.375 33.515 53.017C33.1584 52.7784 32.3661 52.7386 31.6134 52.6591C30.7022 52.5795 29.6326 52.5 28.6026 52.142C26.1068 51.2273 24.4429 49.1591 23.096 47.4886C22.5414 46.7727 21.6698 45.6989 21.3133 45.6193C21.036 45.6193 20.521 47.0909 20.2833 47.7273C19.8871 48.8011 19.491 49.9545 18.7382 50.7898C18.144 51.5057 17.3913 51.9829 16.7178 52.5C15.5294 53.3352 14.4201 54.1307 13.6674 55.9204C12.7166 58.2273 14.9747 59.9773 14.9747 60.017C15.569 60.4545 15.6482 61.2898 15.2124 61.8466C14.9747 62.0852 14.6182 62.2443 14.222 62.2443Z" fill="#686775"/>
<path d="M26.7802 13.483C26.0671 13.483 25.4729 12.8864 25.4729 12.1705V7.875C25.4729 7.15909 26.0671 6.5625 26.7802 6.5625C27.4933 6.5625 28.0875 7.15909 28.0875 7.875V12.1705C28.0875 12.8864 27.4933 13.483 26.7802 13.483Z" fill="#686775"/>
<path d="M30.5041 15.4318C29.791 15.4318 29.1968 14.8352 29.1968 14.1193V7.875C29.1968 7.15909 29.791 6.5625 30.5041 6.5625C31.2172 6.5625 31.8114 7.15909 31.8114 7.875V14.1193C31.8114 14.875 31.2172 15.4318 30.5041 15.4318Z" fill="#686775"/>
<path d="M34.3867 18.8125C33.6736 18.8125 33.0793 18.2159 33.0793 17.5V7.875C33.0793 7.15909 33.6736 6.5625 34.3867 6.5625C35.0998 6.5625 35.694 7.15909 35.694 7.875V17.5C35.694 18.2159 35.0998 18.8125 34.3867 18.8125Z" fill="#686775"/>
<path d="M32.0097 57.0739H25.79C25.0769 57.0739 24.4827 56.4773 24.4827 55.7614C24.4827 55.0454 25.0769 54.4489 25.79 54.4489H32.0097C32.7228 54.4489 33.317 55.0454 33.317 55.7614C33.317 56.4773 32.7228 57.0739 32.0097 57.0739Z" fill="#686775"/>
<path d="M35.1393 60.5739H29.9497C29.2366 60.5739 28.6423 59.9773 28.6423 59.2614C28.6423 58.5454 29.2366 57.9489 29.9497 57.9489H35.1393C35.8524 57.9489 36.4467 58.5454 36.4467 59.2614C36.4467 59.9773 35.8524 60.5739 35.1393 60.5739Z" fill="#686775"/>
<path d="M31.653 64.0341H26.4633C25.7502 64.0341 25.156 63.4375 25.156 62.7216C25.156 62.0057 25.7502 61.4091 26.4633 61.4091H31.653C32.3661 61.4091 32.9603 62.0057 32.9603 62.7216C32.9603 63.4773 32.3661 64.0341 31.653 64.0341Z" fill="#686775"/>
<path d="M45.5186 12.1704C43.5378 12.1704 41.9531 10.5795 41.9531 8.5909C41.9531 6.60226 43.5378 5.01135 45.5186 5.01135C47.4993 5.01135 49.084 6.60226 49.084 8.5909C49.084 10.5795 47.4993 12.1704 45.5186 12.1704ZM45.5186 7.31817C44.8055 7.31817 44.2112 7.91476 44.2112 8.63067C44.2112 9.34658 44.8055 9.94317 45.5186 9.94317C46.2316 9.94317 46.8259 9.34658 46.8259 8.63067C46.8259 7.87499 46.2316 7.31817 45.5186 7.31817Z" fill="#686775"/>
<path d="M60.7707 26.9659C58.79 26.9659 57.2053 25.375 57.2053 23.3864C57.2053 21.3977 58.79 19.8068 60.7707 19.8068C62.7515 19.8068 64.3362 21.3977 64.3362 23.3864C64.3362 25.375 62.7515 26.9659 60.7707 26.9659ZM60.7707 22.0739C60.0577 22.0739 59.4634 22.6705 59.4634 23.3864C59.4634 24.1023 60.0577 24.6989 60.7707 24.6989C61.4838 24.6989 62.0781 24.1023 62.0781 23.3864C62.0781 22.6705 61.4838 22.0739 60.7707 22.0739Z" fill="#686775"/>
<path d="M62.4346 42.9545C60.4538 42.9545 58.8691 41.3636 58.8691 39.375C58.8691 37.3863 60.4538 35.7954 62.4346 35.7954C64.4154 35.7954 66 37.3863 66 39.375C66 41.3636 64.4154 42.9545 62.4346 42.9545ZM62.4346 38.1023C61.7215 38.1023 61.1272 38.6988 61.1272 39.4148C61.1272 40.1307 61.7215 40.7273 62.4346 40.7273C63.1477 40.7273 63.7419 40.1307 63.7419 39.4148C63.7419 38.6591 63.1477 38.1023 62.4346 38.1023Z" fill="#686775"/>
<path d="M55.3037 57.5511C53.3229 57.5511 51.7383 55.9602 51.7383 53.9716C51.7383 51.9829 53.3229 50.392 55.3037 50.392C57.2845 50.392 58.8691 51.9829 58.8691 53.9716C58.8691 55.9602 57.2449 57.5511 55.3037 57.5511ZM55.3037 52.6591C54.5906 52.6591 53.9964 53.2557 53.9964 53.9716C53.9964 54.6875 54.5906 55.2841 55.3037 55.2841C56.0168 55.2841 56.611 54.6875 56.611 53.9716C56.611 53.2557 56.0168 52.6591 55.3037 52.6591Z" fill="#686775"/>
</g>
<defs>
<clipPath id="clip0_1863_176">
<rect width="66" height="70" fill="white"/>
</clipPath>
</defs>
</svg>
