<svg width="23" height="28" viewBox="0 0 23 28" fill="none" xmlns="http://www.w3.org/2000/svg">
<g clip-path="url(#clip0_2079_750)">
<path d="M18.014 1.71973C18.7343 1.71995 19.4249 2.00622 19.9341 2.51558C20.4433 3.02493 20.7293 3.71567 20.7293 4.43589V23.5239C20.729 23.9993 20.6038 24.4664 20.3663 24.8783C20.1288 25.2902 19.7874 25.6326 19.3761 25.8712C18.9648 26.1097 18.4981 26.2362 18.0227 26.2379C17.5472 26.2395 17.0796 26.1163 16.6667 25.8806L12.5722 23.5411C12.1619 23.3066 11.6975 23.1833 11.2249 23.1833C10.7523 23.1833 10.2879 23.3066 9.87757 23.5411L5.78226 25.8806C5.36898 26.1167 4.90092 26.2401 4.42497 26.2383C3.94901 26.2366 3.48187 26.1098 3.07034 25.8707C2.65881 25.6316 2.31733 25.2885 2.08012 24.8759C1.84291 24.4633 1.71829 23.9955 1.71875 23.5196V4.43589C1.71875 3.71552 2.00492 3.02465 2.5143 2.51527C3.02368 2.00589 3.71455 1.71973 4.43492 1.71973H18.014Z" stroke="white" stroke-width="3.5" stroke-linejoin="round"/>
</g>
<defs>
<clipPath id="clip0_2079_750">
<rect width="22.4499" height="28" fill="white"/>
</clipPath>
</defs>
</svg>
