<svg width="18" height="18" viewBox="0 0 18 18" fill="none" xmlns="http://www.w3.org/2000/svg">
<path d="M6.40069 3.72755C6.24498 3.72466 6.09221 3.77024 5.96355 3.85798C5.83488 3.94573 5.73666 4.0713 5.68249 4.21731C5.62832 4.36333 5.62087 4.52257 5.66117 4.673C5.70148 4.82344 5.78754 4.95762 5.90746 5.05699L10.4968 8.98581L5.90463 12.9146C5.82073 12.9758 5.75043 13.0537 5.69815 13.1434C5.64586 13.2331 5.61274 13.3326 5.60087 13.4358C5.589 13.5389 5.59864 13.6434 5.62918 13.7426C5.65972 13.8418 5.71049 13.9336 5.7783 14.0123C5.8461 14.0909 5.92947 14.1546 6.02314 14.1994C6.1168 14.2441 6.21873 14.269 6.3225 14.2724C6.42626 14.2758 6.5296 14.2577 6.626 14.2191C6.7224 14.1806 6.80976 14.1225 6.88258 14.0485L12.1323 9.56125C12.2149 9.49073 12.2812 9.40315 12.3267 9.30454C12.3721 9.20593 12.3956 9.09864 12.3956 8.99006C12.3956 8.88149 12.3721 8.7742 12.3267 8.67559C12.2812 8.57698 12.2149 8.4894 12.1323 8.41888L6.88258 3.91747C6.74955 3.79903 6.57875 3.73172 6.40069 3.72755Z" fill="#F3F3F3"/>
</svg>
