<svg width="18" height="18" viewBox="0 0 18 18" fill="none" xmlns="http://www.w3.org/2000/svg">
<g clip-path="url(#clip0_409_101)">
<path d="M5.79188 16.5953C6.01463 16.6894 6.24038 16.7768 6.47062 16.851C6.35438 16.4955 6.33225 16.4569 6.09375 15.7388L5.79188 16.5953ZM10.8938 16.38C11.4638 14.9513 11.8613 13.485 12.09 12H7.41375L6.51 14.565C6.99075 16.1025 7.04775 16.1914 7.33613 17.0767C8.43209 17.3048 9.56308 17.3066 10.6598 17.082L10.8938 16.38ZM0.75 9C0.75 9.76463 0.860625 10.5214 1.06762 11.25H2.95125L4.965 10.1775C4.90117 9.03439 4.9324 7.88794 5.05838 6.75H1.06463C0.855988 7.4818 0.750099 8.23904 0.75 9ZM0.75375 13.5413C0.76875 13.6913 0.87375 13.8187 1.02375 13.86C1.52325 14.0032 2.97188 14.418 3.44663 14.5534C3.58125 15.027 3.99863 16.4824 4.14 16.9762C4.22738 17.319 4.7445 17.3408 4.8525 16.9988C5.5485 15.0169 6.40725 12.5906 7.1025 10.6237C7.19363 10.3901 6.99863 10.1164 6.75 10.125C6.63563 10.0931 1.80263 12.717 0.94875 13.17C0.81375 13.2412 0.735 13.3875 0.75375 13.5413Z" fill="white"/>
<path d="M7.68038 11.25H12.1916C12.3625 9.75474 12.3609 8.24482 12.1868 6.74997H5.81401C5.69799 7.75678 5.66 8.77105 5.70038 9.78372C5.99738 9.63672 6.40463 9.35097 6.75038 9.37497C7.50301 9.35809 8.08201 10.1658 7.81163 10.875L7.68038 11.25ZM10.6463 0.915341C9.55934 0.695899 8.43951 0.696027 7.35263 0.915716L7.10251 1.62372C6.54272 3.03272 6.1454 4.50095 5.91826 5.99997H12.0855C11.847 4.26934 11.2706 2.56834 10.6463 0.915341ZM16.6834 12H12.8554C12.6668 13.62 12.0904 15.3832 11.5279 16.8525C13.8986 16.092 15.7841 14.2946 16.6834 12ZM1.31738 5.99997H5.14538C5.33401 4.37997 5.91038 2.61634 6.47288 1.14747C4.10213 1.90797 2.21663 3.70534 1.31738 5.99997ZM11.5215 1.14522C12.1418 2.72322 12.6128 4.34847 12.8483 5.99997H16.6834C16.2352 4.85957 15.5399 3.8327 14.6473 2.99325C13.7548 2.1538 12.6872 1.52265 11.5215 1.14522ZM12.9428 6.74997C13.1089 8.24584 13.1183 9.75372 12.9529 11.25H16.9361C17.3524 9.83059 17.3524 8.16934 16.9361 6.74997H12.9428Z" fill="white"/>
</g>
<defs>
<clipPath id="clip0_409_101">
<rect width="18" height="18" fill="white"/>
</clipPath>
</defs>
</svg>
