<svg width="52" height="52" viewBox="0 0 52 52" fill="none" xmlns="http://www.w3.org/2000/svg">
<path d="M41.1676 8.66678H38.7843C38.2814 6.22143 36.9509 4.02423 35.0169 2.44551C33.0829 0.866795 30.6638 0.00309805 28.1673 0L23.8337 0C21.3373 0.00317317 18.9182 0.866904 16.9843 2.44562C15.0504 4.02433 13.7199 6.22149 13.217 8.66678H10.8334C7.96126 8.67024 5.20775 9.81272 3.17685 11.8436C1.14594 13.8745 0.00345926 16.628 0 19.5002L0 26.0003H52.001V19.5002C51.9975 16.628 50.855 13.8745 48.8241 11.8436C46.7932 9.81272 44.0397 8.67024 41.1676 8.66678ZM17.7326 8.66678C18.1791 7.40387 19.0049 6.30976 20.097 5.53411C21.1891 4.75846 22.4942 4.33916 23.8337 4.33355H28.1673C29.5069 4.33911 30.8121 4.75844 31.9042 5.53415C32.9964 6.30987 33.8222 7.40408 34.2687 8.6671L17.7326 8.66678Z" fill="#1494F1"/>
<path d="M28.1673 32.5005C28.1673 33.0751 27.939 33.6263 27.5326 34.0326C27.1263 34.439 26.5752 34.6673 26.0005 34.6673C25.4258 34.6673 24.8747 34.439 24.4684 34.0326C24.062 33.6263 23.8337 33.0751 23.8337 32.5005V30.3339H0V41.1673C0.00363218 44.0393 1.14619 46.7926 3.17708 48.8234C5.20796 50.8541 7.96137 51.9965 10.8334 52H41.1673C44.0394 51.9965 46.7929 50.854 48.8238 48.8231C50.8547 46.7922 51.9972 44.0387 52.0007 41.1666V30.3339H28.1673V32.5005Z" fill="#1494F1"/>
</svg>
