<svg width="52" height="52" viewBox="0 0 52 52" fill="none" xmlns="http://www.w3.org/2000/svg">
<path d="M24.0035 5.11356C23.7779 2.41956 21.7358 0.292296 19.1507 0.112587C16.9475 -0.0198745 14.7387 -0.0307233 12.5343 0.0800902C10.3123 0.158294 8.09614 0.356164 5.89544 0.672837C4.59383 0.901153 3.39417 1.52498 2.45974 2.45941C1.5253 3.39384 0.901478 4.5935 0.673162 5.89512C0.359066 8.09625 0.160669 10.3124 0.0787903 12.5343C-0.036171 14.7386 -0.025321 16.9476 0.111287 19.1507C0.293271 21.7358 2.41956 23.7779 5.11356 24.0035C6.73842 24.1354 8.95602 24.229 11.9971 24.2199C15.0382 24.2108 17.2616 24.1052 18.8826 23.9599C20.1905 23.844 21.4161 23.2718 22.3447 22.3434C23.2733 21.415 23.8457 20.1896 23.9619 18.8816C24.1081 17.262 24.2147 15.0382 24.2219 11.9961C24.229 8.95407 24.1354 6.73419 24.0035 5.11454V5.11356ZM51.3286 5.89349C51.1002 4.59195 50.4763 3.39239 49.5419 2.45799C48.6075 1.52359 47.4079 0.899705 46.1064 0.671212C43.9052 0.357768 41.6891 0.160023 39.4672 0.0787903C37.2629 -0.036171 35.0539 -0.025321 32.8508 0.111287C30.2663 0.292296 28.2235 2.41956 27.998 5.11356C27.8661 6.73842 27.7725 8.95602 27.7816 11.9971C27.7907 15.0382 27.8963 17.2616 28.0416 18.8826C28.1573 20.1906 28.7294 21.4163 29.6579 22.3449C30.5863 23.2735 31.8119 23.8459 33.1199 23.9619C34.7447 24.1081 36.9633 24.2147 40.0054 24.2219C43.0474 24.229 45.2699 24.1377 46.8889 24.0054C49.5829 23.7799 51.7102 21.7368 51.8908 19.1526C52.0243 16.9495 52.0352 14.7406 51.9233 12.5362C51.8442 10.3135 51.6453 8.09671 51.3273 5.89544L51.3286 5.89349ZM23.9586 33.1179C23.8425 31.8104 23.2704 30.5854 22.3422 29.6572C21.4141 28.729 20.1891 28.1568 18.8816 28.0406C17.2568 27.8943 15.0382 27.7878 11.9961 27.7806C8.95407 27.7735 6.73159 27.8648 5.11259 27.997C2.42053 28.2235 0.292296 30.2663 0.112587 32.8508C-0.0198679 35.054 -0.0307167 37.2628 0.0800902 39.4672C0.158725 41.6892 0.357028 43.9054 0.674137 46.106C0.90263 47.4076 1.52651 48.6071 2.46091 49.5415C3.39532 50.4759 4.59488 51.0998 5.89642 51.3283C8.09627 51.644 10.3114 51.8423 12.5323 51.9224C14.7367 52.0358 16.9456 52.0249 19.1487 51.8899C21.7319 51.7102 23.776 49.5826 24.0015 46.8879C24.1335 45.2683 24.2271 43.0455 24.218 40.0044C24.2089 36.9633 24.1062 34.7343 23.9599 33.1189L23.9586 33.1179ZM51.8941 32.8508C51.7144 30.2676 49.5868 28.2235 46.8921 27.998C45.2725 27.8661 43.0497 27.7725 40.0086 27.7816C36.9675 27.7907 34.7441 27.8963 33.1231 28.0416C31.8157 28.1577 30.5907 28.7299 29.6626 29.6581C28.7345 30.5862 28.1623 31.8111 28.0461 33.1186C27.8999 34.7434 27.7933 36.962 27.7861 40.0041C27.779 43.0461 27.8703 45.2686 28.0026 46.8876C28.2281 49.5816 30.2722 51.7098 32.8554 51.8895C35.0585 52.023 37.2674 52.0339 39.4718 51.922C41.6928 51.8436 43.908 51.6453 46.1077 51.328C47.4104 51.1002 48.6111 50.4762 49.5462 49.541C50.4814 48.6059 51.1054 47.4052 51.3332 46.1025C51.6489 43.9026 51.8472 41.6875 51.9272 39.4666C52.0365 37.2623 52.0254 35.0538 51.8941 32.8508Z" fill="#991AE7"/>
</svg>
