<svg width="52" height="52" viewBox="0 0 52 52" fill="none" xmlns="http://www.w3.org/2000/svg">
<path d="M41.1671 -0.000366211H10.8331C7.96094 0.00306546 5.20742 1.14554 3.17651 3.17645C1.1456 5.20736 0.0031265 7.96088 -0.000305176 10.833V41.1667C0.0031265 44.0388 1.1456 46.7923 3.17651 48.8232C5.20742 50.8542 7.96094 51.9966 10.8331 52.0001H41.1671C44.0392 51.9966 46.7927 50.8542 48.8236 48.8232C50.8545 46.7923 51.997 44.0388 52.0004 41.1667V10.833C51.997 7.96088 50.8545 5.20736 48.8236 3.17645C46.7927 1.14554 44.0392 0.00306546 41.1671 -0.000366211ZM36.8338 21.6664C36.2591 21.6664 35.708 21.4381 35.3016 21.0318C34.8953 20.6254 34.667 20.0743 34.667 19.4996C34.667 18.9249 34.4387 18.3738 34.0323 17.9674C33.626 17.5611 33.0748 17.3328 32.5002 17.3328H28.1669V34.6663H30.3337C30.6204 34.6628 30.905 34.7162 31.171 34.8235C31.4369 34.9308 31.6789 35.0899 31.8829 35.2914C32.087 35.4929 32.249 35.733 32.3595 35.9976C32.4701 36.2622 32.527 36.5461 32.527 36.8329C32.527 37.1197 32.4701 37.4036 32.3595 37.6682C32.249 37.9328 32.087 38.1729 31.8829 38.3744C31.6789 38.5759 31.4369 38.735 31.171 38.8423C30.905 38.9496 30.6204 39.0031 30.3337 38.9995H21.6668C21.38 39.0031 21.0954 38.9496 20.8295 38.8423C20.5635 38.735 20.3215 38.5759 20.1175 38.3744C19.9135 38.1729 19.7515 37.9328 19.641 37.6682C19.5304 37.4036 19.4735 37.1197 19.4735 36.8329C19.4735 36.5461 19.5304 36.2622 19.641 35.9976C19.7515 35.733 19.9135 35.4929 20.1175 35.2914C20.3215 35.0899 20.5635 34.9308 20.8295 34.8235C21.0954 34.7162 21.38 34.6628 21.6668 34.6663H23.8333V17.3331H19.5C18.9253 17.3331 18.3742 17.5614 17.9678 17.9678C17.5615 18.3741 17.3332 18.9252 17.3332 19.4999C17.3262 20.07 17.0949 20.6143 16.6893 21.0149C16.2837 21.4156 15.7366 21.6402 15.1665 21.6402C14.5964 21.6402 14.0493 21.4156 13.6438 21.0149C13.2382 20.6143 13.0069 20.07 12.9999 19.4999C12.9998 18.6463 13.1679 17.8009 13.4945 17.0122C13.8211 16.2235 14.2999 15.5069 14.9035 14.9032C15.5071 14.2996 16.2237 13.8207 17.0123 13.494C17.801 13.1673 18.6463 12.9992 19.5 12.9992H32.4995C34.2234 12.9992 35.8768 13.684 37.0958 14.903C38.3148 16.122 38.9996 17.7753 38.9996 19.4993C38.9997 20.0738 38.7716 20.6249 38.3654 21.0313C37.9593 21.4377 37.4083 21.6661 36.8338 21.6664Z" fill="#D0A82C"/>
</svg>
