<svg width="50" height="46" viewBox="0 0 50 46" fill="none" xmlns="http://www.w3.org/2000/svg">
<path d="M50 37.6361V6.27278C49.998 4.60953 49.3387 3.015 48.1668 1.83902C46.9948 0.663043 45.4059 0.00166714 43.7487 0H6.25004C4.59304 0.00200054 3.00447 0.663524 1.8328 1.83947C0.661118 3.01541 0.00199329 4.60975 0 6.27278V37.6364H22.9166V41.818H12.5001V46H37.4999V41.818H27.084V37.6361H50ZM28.554 11.9377L31.5 8.98128L38.3708 15.8793C39.1463 16.6597 39.5817 17.717 39.5817 18.8191C39.5817 19.9213 39.1463 20.9785 38.3708 21.759L31.4978 28.657L28.5518 25.7006L35.4226 18.8026L28.5521 11.9377H28.554ZM21.4479 25.6994L18.5019 28.6557L11.6311 21.7577C10.8556 20.9773 10.4201 19.9201 10.4201 18.8179C10.4201 17.7157 10.8556 16.6585 11.6311 15.878L18.5041 8.98002L21.45 11.9377L14.5792 18.8357L21.45 25.6994H21.4479Z" fill="#0CC27B"/>
</svg>
