<svg width="52" height="52" viewBox="0 0 52 52" fill="none" xmlns="http://www.w3.org/2000/svg">
<path d="M24.0974 27.1615C23.4938 26.5576 22.7772 26.0785 21.9883 25.7517C21.1995 25.4248 20.3541 25.2566 19.5002 25.2566C18.6464 25.2566 17.8009 25.4248 17.0121 25.7517C16.2233 26.0785 15.5066 26.5576 14.903 27.1615L0.0821762 41.9813C0.28235 44.6986 1.50094 47.2401 3.49423 49.0976C5.48752 50.9552 8.10857 51.9917 10.8332 52H41.1667C43.2887 51.9997 45.3633 51.3722 47.1298 50.1964L24.0974 27.1615Z" fill="#FF7162"/>
<path d="M38.9215 17.1243C41.3723 17.1243 43.3591 15.2479 43.3591 12.9333C43.3591 10.6188 41.3723 8.74243 38.9215 8.74243C36.4707 8.74243 34.4839 10.6188 34.4839 12.9333C34.4839 15.2479 36.4707 17.1243 38.9215 17.1243Z" fill="#FF7162"/>
<path d="M41.1668 0H10.8332C7.96108 0.00325612 5.2075 1.14566 3.17658 3.17658C1.14566 5.2075 0.00325612 7.96108 0 10.8332L0 35.936L11.8388 24.0975C12.8448 23.0912 14.0392 22.293 15.3537 21.7484C16.6683 21.2038 18.0772 20.9234 19.5001 20.9234C20.923 20.9234 22.332 21.2038 23.6465 21.7484C24.9611 22.293 26.1554 23.0912 27.1614 24.0975L50.1954 47.1312C51.3719 45.3643 51.9999 43.2891 52.0003 41.1664V10.8332C51.9971 7.96103 50.8546 5.20739 48.8236 3.17646C46.7926 1.14553 44.039 0.00317045 41.1668 0ZM39.0002 21.6665C37.2861 21.6665 35.6105 21.1582 34.1853 20.2059C32.76 19.2536 31.6492 17.9 30.9932 16.3164C30.3373 14.7327 30.1656 12.9901 30.5 11.309C30.8345 9.62778 31.6599 8.08352 32.8719 6.87146C34.084 5.6594 35.6283 4.83397 37.3094 4.49957C38.9906 4.16516 40.7332 4.33679 42.3169 4.99275C43.9005 5.64871 45.254 6.75955 46.2064 8.18478C47.1587 9.61002 47.667 11.2856 47.667 12.9998C47.667 14.1379 47.4428 15.2649 47.0072 16.3164C46.5717 17.368 45.9332 18.3234 45.1284 19.1282C44.3236 19.933 43.3682 20.5713 42.3166 21.0069C41.2651 21.4424 40.1384 21.6665 39.0002 21.6665Z" fill="#FF7162"/>
</svg>
