<svg width="52" height="52" viewBox="0 0 52 52" fill="none" xmlns="http://www.w3.org/2000/svg">
<path d="M49.6526 1.49587C48.9178 0.885546 48.0572 0.445145 47.1324 0.206165C46.2076 -0.0328137 45.2414 -0.064465 44.3029 0.113476L18.3044 4.98217C16.8129 5.26141 15.4661 6.05364 14.4974 7.22159C13.5287 8.38953 12.9991 9.85958 13.0004 11.377V35.8724C11.6887 35.0921 10.1926 34.6758 8.66643 34.6666C6.95237 34.6666 5.27681 35.1749 3.85162 36.1272C2.42644 37.0795 1.31564 38.433 0.659696 40.0167C0.00375507 41.6003 -0.167869 43.3429 0.166527 45.0241C0.500923 46.7053 1.32632 48.2495 2.53834 49.4616C3.75036 50.6736 5.29457 51.4991 6.9757 51.8335C8.65682 52.1679 10.3993 51.9962 11.9829 51.3403C13.5665 50.6843 14.92 49.5735 15.8723 48.1482C16.8246 46.723 17.3329 45.0474 17.3329 43.3333V20.4096L47.6671 14.7328V29.3824C46.3565 28.5987 44.8605 28.1791 43.3336 28.1669C41.6195 28.1669 39.9439 28.6752 38.5188 29.6275C37.0936 30.5798 35.9828 31.9334 35.3268 33.517C34.6709 35.1006 34.4993 36.8432 34.8337 38.5244C35.1681 40.2056 35.9935 41.7498 37.2055 42.9619C38.4175 44.174 39.9617 44.9994 41.6428 45.3338C43.324 45.6682 45.0665 45.4966 46.6501 44.8406C48.2337 44.1846 49.5872 43.0738 50.5394 41.6486C51.4917 40.2233 52 38.5477 52 36.8336V6.49903C52.0001 5.54355 51.7897 4.59978 51.3836 3.73491C50.9774 2.87003 50.3857 2.10531 49.6504 1.49516L49.6526 1.49587Z" fill="#625DF5"/>
</svg>
