<svg width="52" height="52" viewBox="0 0 52 52" fill="none" xmlns="http://www.w3.org/2000/svg">
<path d="M41.1663 0H10.8334C7.96127 0.00343929 5.20775 1.14592 3.17683 3.17683C1.14592 5.20775 0.00343929 7.96127 0 10.8334L0 41.1666C0.00343929 44.0387 1.14592 46.7923 3.17683 48.8232C5.20775 50.8541 7.96127 51.9966 10.8334 52H41.1666C44.0387 51.9966 46.7923 50.8541 48.8232 48.8232C50.8541 46.7923 51.9966 44.0387 52 41.1666V10.8334C51.9966 7.96121 50.854 5.20764 48.8231 3.17672C46.7921 1.14579 44.0385 0.00335332 41.1663 0ZM43.333 23.8333H47.6662V28.1664H43.333V23.8333ZM43.333 19.5001V15.1666H47.6662V19.4998L43.333 19.5001ZM38.9998 23.8333H12.9998V4.33317H38.9995L38.9998 23.8333ZM8.66667 28.1664H4.33317V23.8333H8.66667V28.1664ZM8.66667 19.4998H4.33317V15.1666H8.66667V19.4998ZM4.33317 32.4999H8.66667V36.8331H4.33317V32.4999ZM12.9998 28.1664H38.9995V47.6662H12.9998V28.1664ZM43.333 32.4996H47.6662V36.8328H43.333V32.4996ZM47.6662 10.8331H43.333V4.73182C44.5959 5.17835 45.6901 6.00417 46.4657 7.09631C47.2414 8.18844 47.6606 9.49355 47.6662 10.8331ZM8.66667 4.73182V10.8334H4.33317C4.33867 9.49378 4.75796 8.18857 5.53367 7.09637C6.30938 6.00416 7.40362 5.17831 8.66667 4.73182ZM4.33317 41.1663H8.66667V47.2675C7.40373 46.821 6.3096 45.9952 5.53396 44.903C4.75831 43.8109 4.33904 42.5058 4.3335 41.1663H4.33317ZM43.333 47.2675V41.1663H47.6662C47.6606 42.5058 47.2414 43.8109 46.4657 44.903C45.6901 45.9952 44.5959 46.821 43.333 47.2675Z" fill="#0AAECE"/>
</svg>
