<svg width="52" height="52" viewBox="0 0 52 52" fill="none" xmlns="http://www.w3.org/2000/svg">
<path d="M25.9999 9.89702L36.6817 4.56358L28.9035 0.683031C28.0015 0.23388 27.0078 0.00012207 26.0002 0.00012207C24.9927 0.00012207 23.9989 0.23388 23.0969 0.683031L15.34 4.56358L26.0218 9.89702H25.9999Z" fill="#D9476B"/>
<path d="M10.8333 37.1056L1.38102e-05 31.7072V41.9835C-0.00235207 43.1288 0.299303 44.2542 0.874134 45.2447C1.44897 46.2351 2.27635 47.055 3.27169 47.6205L10.8333 51.9579V37.0837V37.1056Z" fill="#D9476B"/>
<path d="M41.1667 51.9781L48.7283 47.6424C49.7206 47.0733 50.5454 46.2526 51.1198 45.263C51.6941 44.2734 51.9977 43.1498 52 42.0054V31.729L41.1667 37.1275V52V51.9781Z" fill="#D9476B"/>
<path d="M10.5949 23.4905L1.90652 27.87L12.9998 33.3116L21.4282 29.0634L10.5949 23.4905Z" fill="#D9476B"/>
<path d="M23.833 25.4201V13.4961L12.9997 8.09766V19.8488L23.833 25.4201Z" fill="#D9476B"/>
<path d="M39.0001 19.8488V8.09766L28.1667 13.4961V25.4201L39.0001 19.8488Z" fill="#D9476B"/>
<path d="M41.4051 23.4905L30.5717 29.0621L39.0001 33.3103L50.0934 27.87L41.4051 23.4905Z" fill="#D9476B"/>
<path d="M23.8333 32.7695L15.1666 36.9971V51.8697L23.8333 46.9918V32.7695Z" fill="#D9476B"/>
<path d="M28.1668 32.7695V46.9699L36.8336 51.8266V36.9537L28.1668 32.7695Z" fill="#D9476B"/>
</svg>
