<svg width="16" height="16" viewBox="0 0 16 16" fill="none" xmlns="http://www.w3.org/2000/svg">
<g clip-path="url(#clip0_2001_866)">
<path d="M9.22914 1.91918L10.4792 4.43834C10.5855 4.62793 10.7303 4.79283 10.9041 4.92231C11.0778 5.05178 11.2767 5.14292 11.4878 5.18979L13.7524 5.57268C15.2013 5.81123 15.5422 6.8752 14.4982 7.92007L12.7355 9.69017C12.5812 9.86416 12.4678 10.071 12.4039 10.2953C12.3399 10.5196 12.327 10.7555 12.3662 10.9855L12.8705 13.1826C13.2682 14.9217 12.352 15.5944 10.8249 14.6855L8.70354 13.4188C8.48599 13.3062 8.24494 13.2475 8.00037 13.2475C7.7558 13.2475 7.51475 13.3062 7.29721 13.4188L5.1735 14.6855C3.65352 15.5944 2.73017 14.9146 3.12793 13.1826L3.63222 10.9855C3.67167 10.7557 3.65917 10.5199 3.59563 10.2956C3.53209 10.0713 3.41916 9.86437 3.26524 9.69017L1.50141 7.9153C0.464415 6.87043 0.798242 5.81123 2.24719 5.57268L4.51295 5.19337C4.72253 5.1451 4.91983 5.05334 5.09227 4.92396C5.2647 4.79458 5.40848 4.63041 5.51443 4.44192L6.7645 1.91918C7.44636 0.552249 8.55438 0.552249 9.22914 1.91918Z" stroke="#E3E3E6" stroke-width="1.5" stroke-linecap="round" stroke-linejoin="round"/>
</g>
<defs>
<clipPath id="clip0_2001_866">
<rect width="16" height="16" fill="white"/>
</clipPath>
</defs>
</svg>
