<svg width="24" height="24" viewBox="0 0 24 24" fill="none" xmlns="http://www.w3.org/2000/svg">
<path d="M20.6429 3.35714H18.2857V1.78573C18.2857 1.35178 17.9339 1 17.5 1C17.066 1 16.7143 1.35178 16.7143 1.78573V3.35714H7.28569V1.78573C7.28569 1.35178 6.93392 1 6.50001 1C6.0661 1 5.71428 1.35178 5.71428 1.78573V3.35714H3.35714C2.05533 3.35714 1 4.41247 1 5.71428V20.6429C1 21.9447 2.05533 23 3.35714 23H20.6429C21.9447 23 23 21.9447 23 20.6429V5.71428C23 4.41247 21.9447 3.35714 20.6429 3.35714ZM21.4285 20.6429C21.4285 21.0768 21.0768 21.4286 20.6428 21.4286H3.35714C2.92319 21.4286 2.57141 21.0768 2.57141 20.6429V10.4286H21.4285V20.6429ZM21.4285 8.85715H2.57141V5.71428C2.57141 5.28033 2.92319 4.92855 3.35714 4.92855H5.71428V6.49997C5.71428 6.93392 6.06606 7.28569 6.50001 7.28569C6.93396 7.28569 7.28574 6.93392 7.28574 6.49997V4.92855H16.7143V6.49997C16.7143 6.93392 17.0661 7.28569 17.5 7.28569C17.934 7.28569 18.2858 6.93392 18.2858 6.49997V4.92855H20.6429C21.0769 4.92855 21.4286 5.28033 21.4286 5.71428V8.85715H21.4285Z" fill="#ABABB2"/>
<path d="M7.28518 12H5.71377C5.27982 12 4.92804 12.3518 4.92804 12.7857C4.92804 13.2197 5.27982 13.5715 5.71377 13.5715H7.28518C7.71913 13.5715 8.07091 13.2197 8.07091 12.7857C8.07091 12.3518 7.71913 12 7.28518 12ZM12.7852 12H11.2138C10.7798 12 10.4281 12.3518 10.4281 12.7857C10.4281 13.2197 10.7798 13.5715 11.2138 13.5715H12.7852C13.2191 13.5715 13.5709 13.2197 13.5709 12.7857C13.5709 12.3518 13.2191 12 12.7852 12ZM18.2852 12H16.7138C16.2798 12 15.9281 12.3518 15.9281 12.7857C15.9281 13.2197 16.2798 13.5715 16.7138 13.5715H18.2852C18.7192 13.5715 19.0709 13.2197 19.0709 12.7857C19.0709 12.3518 18.7191 12 18.2852 12ZM7.28518 15.1429H5.71377C5.27982 15.1429 4.92804 15.4946 4.92804 15.9286C4.92804 16.3626 5.27982 16.7143 5.71377 16.7143H7.28518C7.71913 16.7143 8.07091 16.3626 8.07091 15.9286C8.07091 15.4946 7.71913 15.1429 7.28518 15.1429ZM12.7852 15.1429H11.2138C10.7798 15.1429 10.4281 15.4946 10.4281 15.9286C10.4281 16.3626 10.7798 16.7143 11.2138 16.7143H12.7852C13.2191 16.7143 13.5709 16.3626 13.5709 15.9286C13.5709 15.4946 13.2191 15.1429 12.7852 15.1429ZM18.2852 15.1429H16.7138C16.2798 15.1429 15.9281 15.4946 15.9281 15.9286C15.9281 16.3626 16.2798 16.7143 16.7138 16.7143H18.2852C18.7192 16.7143 19.0709 16.3626 19.0709 15.9286C19.0709 15.4946 18.7191 15.1429 18.2852 15.1429ZM7.28518 18.2857H5.71377C5.27982 18.2857 4.92804 18.6375 4.92804 19.0715C4.92804 19.5054 5.27982 19.8572 5.71377 19.8572H7.28518C7.71913 19.8572 8.07091 19.5054 8.07091 19.0714C8.07091 18.6375 7.71913 18.2857 7.28518 18.2857ZM12.7852 18.2857H11.2138C10.7798 18.2857 10.4281 18.6375 10.4281 19.0715C10.4281 19.5054 10.7798 19.8572 11.2138 19.8572H12.7852C13.2191 19.8572 13.5709 19.5054 13.5709 19.0715C13.5709 18.6375 13.2191 18.2857 12.7852 18.2857ZM18.2852 18.2857H16.7138C16.2798 18.2857 15.9281 18.6375 15.9281 19.0715C15.9281 19.5054 16.2798 19.8572 16.7138 19.8572H18.2852C18.7192 19.8572 19.0709 19.5054 19.0709 19.0715C19.0709 18.6375 18.7191 18.2857 18.2852 18.2857Z" fill="#ABABB2"/>
</svg>
