<svg width="19" height="19" viewBox="0 0 19 19" fill="none" xmlns="http://www.w3.org/2000/svg">
<path d="M16.5737 2.20759H14.5848V0.881709C14.5848 0.515561 14.288 0.21875 13.9219 0.21875C13.5557 0.21875 13.2589 0.515561 13.2589 0.881709V2.20759H5.30355V0.881709C5.30355 0.515561 5.00674 0.21875 4.64063 0.21875C4.27453 0.21875 3.97768 0.515561 3.97768 0.881709V2.20759H1.98884C0.890432 2.20759 0 3.09802 0 4.19643V16.7924C0 17.8908 0.890432 18.7812 1.98884 18.7812H16.5737C17.6721 18.7812 18.5625 17.8908 18.5625 16.7924V4.19643C18.5625 3.09802 17.6721 2.20759 16.5737 2.20759ZM17.2366 16.7924C17.2366 17.1586 16.9398 17.4554 16.5736 17.4554H1.98884C1.62269 17.4554 1.32588 17.1586 1.32588 16.7924V8.1741H17.2366V16.7924ZM17.2366 6.84822H1.32588V4.19643C1.32588 3.83028 1.62269 3.53347 1.98884 3.53347H3.97768V4.85935C3.97768 5.22549 4.27449 5.5223 4.64063 5.5223C5.00678 5.5223 5.30359 5.22549 5.30359 4.85935V3.53347H13.2589V4.85935C13.2589 5.22549 13.5558 5.5223 13.9219 5.5223C14.2881 5.5223 14.5849 5.22549 14.5849 4.85935V3.53347H16.5737C16.9398 3.53347 17.2367 3.83028 17.2367 4.19643V6.84822H17.2366Z" fill="white"/>
<path d="M5.30329 9.5H3.97741C3.61126 9.5 3.31445 9.79681 3.31445 10.163C3.31445 10.5291 3.61126 10.8259 3.97741 10.8259H5.30329C5.66944 10.8259 5.96625 10.5291 5.96625 10.163C5.96625 9.79681 5.66944 9.5 5.30329 9.5ZM9.94393 9.5H8.61805C8.2519 9.5 7.95509 9.79681 7.95509 10.163C7.95509 10.5291 8.2519 10.8259 8.61805 10.8259H9.94393C10.3101 10.8259 10.6069 10.5291 10.6069 10.163C10.6069 9.79681 10.3101 9.5 9.94393 9.5ZM14.5846 9.5H13.2587C12.8925 9.5 12.5957 9.79681 12.5957 10.163C12.5957 10.5291 12.8925 10.8259 13.2587 10.8259H14.5846C14.9507 10.8259 15.2475 10.5291 15.2475 10.163C15.2475 9.79681 14.9507 9.5 14.5846 9.5ZM5.30329 12.1518H3.97741C3.61126 12.1518 3.31445 12.4486 3.31445 12.8148C3.31445 13.1809 3.61126 13.4777 3.97741 13.4777H5.30329C5.66944 13.4777 5.96625 13.1809 5.96625 12.8148C5.96625 12.4486 5.66944 12.1518 5.30329 12.1518ZM9.94393 12.1518H8.61805C8.2519 12.1518 7.95509 12.4486 7.95509 12.8148C7.95509 13.1809 8.2519 13.4777 8.61805 13.4777H9.94393C10.3101 13.4777 10.6069 13.1809 10.6069 12.8148C10.6069 12.4486 10.3101 12.1518 9.94393 12.1518ZM14.5846 12.1518H13.2587C12.8925 12.1518 12.5957 12.4486 12.5957 12.8148C12.5957 13.1809 12.8925 13.4777 13.2587 13.4777H14.5846C14.9507 13.4777 15.2475 13.1809 15.2475 12.8148C15.2475 12.4486 14.9507 12.1518 14.5846 12.1518ZM5.30329 14.8036H3.97741C3.61126 14.8036 3.31445 15.1004 3.31445 15.4666C3.31445 15.8327 3.61126 16.1295 3.97741 16.1295H5.30329C5.66944 16.1295 5.96625 15.8327 5.96625 15.4665C5.96625 15.1004 5.66944 14.8036 5.30329 14.8036ZM9.94393 14.8036H8.61805C8.2519 14.8036 7.95509 15.1004 7.95509 15.4666C7.95509 15.8327 8.2519 16.1295 8.61805 16.1295H9.94393C10.3101 16.1295 10.6069 15.8327 10.6069 15.4666C10.6069 15.1004 10.3101 14.8036 9.94393 14.8036ZM14.5846 14.8036H13.2587C12.8925 14.8036 12.5957 15.1004 12.5957 15.4666C12.5957 15.8327 12.8925 16.1295 13.2587 16.1295H14.5846C14.9507 16.1295 15.2475 15.8327 15.2475 15.4666C15.2475 15.1004 14.9507 14.8036 14.5846 14.8036Z" fill="white"/>
</svg>
