<svg width="22" height="22" viewBox="0 0 22 22" fill="none" xmlns="http://www.w3.org/2000/svg">
<path d="M5.04745 6.47539L9.58932 11.018L5.04279 15.5638L5.04278 15.5638C4.95056 15.656 4.8774 15.7655 4.82749 15.886L5.05846 15.9817L4.82749 15.886C4.77758 16.0065 4.7519 16.1356 4.7519 16.2661C4.7519 16.3965 4.77758 16.5256 4.82749 16.6461C4.8774 16.7666 4.95056 16.8761 5.04278 16.9683C5.135 17.0605 5.24448 17.1337 5.36497 17.1836C5.48547 17.2335 5.61461 17.2592 5.74503 17.2592C5.87545 17.2592 6.00459 17.2335 6.12508 17.1836C6.24558 17.1337 6.35506 17.0605 6.44728 16.9683L10.9931 12.4225L15.5384 16.9671C15.7608 17.1954 16.0277 17.2936 16.2907 17.2796C16.5478 17.2658 16.7812 17.1462 16.9516 16.9757C17.122 16.8053 17.2416 16.572 17.2554 16.3149C17.2695 16.0518 17.1712 15.7849 16.9429 15.5626L12.3983 11.0173L16.9428 6.47277C17.1713 6.25066 17.2694 5.98369 17.2554 5.72066C17.2417 5.46355 17.122 5.23 16.9516 5.05953C16.7812 4.88912 16.5478 4.76944 16.2907 4.7557C16.0277 4.74163 15.7608 4.8399 15.5384 5.06816L10.9938 9.61276L6.45196 5.07089C6.36233 4.9735 6.25413 4.89497 6.13371 4.83994C6.01134 4.78401 5.87889 4.75351 5.74438 4.75029C5.60988 4.74706 5.47612 4.77117 5.35121 4.82117C5.22629 4.87116 5.11283 4.946 5.01769 5.04113C4.92256 5.13627 4.84772 5.24973 4.79773 5.37464C4.74774 5.49956 4.72362 5.63332 4.72685 5.76782C4.73007 5.90233 4.76057 6.03478 4.8165 6.15715C4.87153 6.27757 4.95006 6.38576 5.04745 6.47539Z" fill="#F10000" stroke="#F10000" stroke-width="0.5"/>
</svg>
