<svg width="24" height="24" viewBox="0 0 24 24" fill="none" xmlns="http://www.w3.org/2000/svg">
<path fill-rule="evenodd" clip-rule="evenodd" d="M5.70777 2.92571C7.58732 1.66998 9.79704 0.99983 12.0575 1C15.0873 1.00393 17.9919 2.20927 20.1344 4.35169C22.2768 6.49411 23.4821 9.39873 23.4861 12.4286C23.486 14.403 22.9744 16.3437 22.0011 18.0615C21.0279 19.7794 19.6262 21.2158 17.9327 22.2308C16.2391 23.2458 14.3115 23.8047 12.3377 23.8531C10.3639 23.9015 8.41127 23.4378 6.67002 22.5071C4.92876 21.5763 3.45833 20.2104 2.40203 18.5423C1.34573 16.8742 0.73959 14.9609 0.642683 12.9889C0.545775 11.0169 0.961408 9.05344 1.84907 7.28984C2.73674 5.52624 4.06616 4.02269 5.70777 2.92571ZM6.86319 20.2011C8.40052 21.229 10.2082 21.7779 12.0575 21.7783C14.5367 21.7762 16.9139 20.7905 18.6672 19.0376C20.4205 17.2847 21.4068 14.9078 21.4095 12.4286C21.4091 10.8138 20.9905 9.22661 20.1943 7.8217C19.3982 6.4168 18.2518 5.24207 16.8667 4.41196C15.4816 3.58185 13.9051 3.12467 12.2908 3.08497C10.6765 3.04527 9.07939 3.42439 7.65516 4.1854C6.23093 4.94642 5.02811 6.06337 4.16388 7.42744C3.29966 8.79151 2.8035 10.3562 2.72375 11.969C2.64399 13.5818 2.98337 15.1878 3.7088 16.6305C4.43424 18.0732 5.52099 19.3033 6.86319 20.2011ZM16.8975 7.01943C17.0246 7.07239 17.14 7.15008 17.2369 7.248C17.4316 7.44299 17.541 7.70729 17.541 7.98286C17.541 8.25842 17.4316 8.52272 17.2369 8.71771L13.5341 12.4206L17.2369 16.1246C17.4313 16.3195 17.5404 16.5836 17.5404 16.8589C17.5404 17.1341 17.4313 17.3982 17.2369 17.5931C17.1406 17.6921 17.0255 17.7708 16.8983 17.8245C16.7711 17.8782 16.6344 17.9059 16.4963 17.9059C16.3583 17.9059 16.2216 17.8782 16.0944 17.8245C15.9672 17.7708 15.852 17.6921 15.7558 17.5931L12.0529 13.8903L8.35005 17.5931C8.25368 17.6922 8.13844 17.7708 8.01114 17.8246C7.88385 17.8783 7.74708 17.906 7.60891 17.906C7.47074 17.906 7.33397 17.8783 7.20667 17.8246C7.07938 17.7708 6.96414 17.6922 6.86777 17.5931C6.7707 17.4971 6.69365 17.3827 6.64106 17.2567C6.58848 17.1306 6.5614 16.9954 6.5614 16.8589C6.5614 16.7223 6.58848 16.5871 6.64106 16.461C6.69365 16.335 6.7707 16.2206 6.86777 16.1246L10.5706 12.4217L6.86777 8.71886C6.67805 8.52141 6.57355 8.25729 6.57681 7.98348C6.58008 7.70968 6.69084 7.44813 6.88522 7.25526C7.07959 7.06238 7.34199 6.95365 7.61581 6.9525C7.88963 6.95136 8.15293 7.0579 8.34891 7.24914L12.0518 10.952L15.7558 7.24914C15.9015 7.10107 16.0883 7.00006 16.292 6.95911C16.4957 6.91817 16.707 6.93918 16.8986 7.01943H16.8975Z" fill="white"/>
</svg>
