<svg width="32" height="32" viewBox="0 0 32 32" fill="none" xmlns="http://www.w3.org/2000/svg">
<g clip-path="url(#clip0_1450_755)">
<path d="M23.6192 7.97003L23.618 7.97L17.2873 7.98532C16.813 7.98647 16.4294 8.3721 16.4305 8.84678C16.4317 9.3214 16.8171 9.70524 17.2914 9.70411L21.5418 9.69378L8.68139 22.563C8.346 22.8986 8.346 23.4427 8.68139 23.7783C9.01678 24.1139 9.56051 24.1139 9.8959 23.7783L22.7563 10.9092L22.746 15.1624C22.7449 15.637 23.1284 16.0227 23.6027 16.0238C24.0771 16.025 24.4625 15.641 24.4636 15.1665L24.4789 8.83141L24.4789 8.83028C24.4793 8.35475 24.0929 7.96952 23.6192 7.97003Z" fill="#625DF5"/>
</g>
<defs>
<clipPath id="clip0_1450_755">
<rect width="21.9925" height="21.9925" fill="white" transform="matrix(0.706865 -0.707348 0.706865 0.707348 0.908539 16)"/>
</clipPath>
</defs>
</svg>
