<svg width="22" height="22" viewBox="0 0 22 22" fill="none" xmlns="http://www.w3.org/2000/svg">
<path d="M18.2804 14.3581L18.2804 14.358L18.2779 14.3556C18.0711 14.1579 17.825 14.0058 17.5556 13.9093C17.2862 13.8128 16.9995 13.774 16.7142 13.7955C16.4288 13.817 16.1512 13.8982 15.8993 14.0339C15.6503 14.1681 15.4319 14.3526 15.258 14.5756C15.01 14.8217 14.6862 14.977 14.3388 15.0159C13.9884 15.0552 13.6352 14.9739 13.3372 14.7854C12.1623 14.0412 11.0692 13.175 10.0761 12.2014C8.98942 11.1359 8.03059 9.94746 7.21897 8.66005L7.21861 8.65948C7.03014 8.36349 6.94913 8.01171 6.98916 7.66309C7.02891 7.31685 7.18566 6.99463 7.43335 6.74966C7.6743 6.55511 7.87024 6.31062 8.00765 6.03303C8.14622 5.75311 8.22193 5.44628 8.22947 5.13403L8.22951 5.13403L8.22951 5.13066C8.22995 4.86981 8.17861 4.61146 8.07847 4.37059C7.97838 4.12982 7.83152 3.9113 7.6464 3.72769C7.64632 3.72761 7.64625 3.72753 7.64617 3.72746L5.7701 1.85138L5.76991 1.85119C5.39758 1.48019 4.89339 1.27187 4.36777 1.27187C3.84216 1.27187 3.33797 1.48019 2.96564 1.85119L2.96537 1.85146L2.20487 2.61304C2.20483 2.61307 2.20479 2.61311 2.20476 2.61314C1.45109 3.36526 0.979899 4.35431 0.870686 5.41344C0.761468 6.47263 1.02095 7.53707 1.60534 8.42718L1.60581 8.42789C3.18627 10.8058 5.00013 13.02 7.02041 15.0376L7.02051 15.0377C9.0088 17.0196 11.1858 18.8027 13.5205 20.3617C14.4142 20.9601 15.4873 21.2311 16.558 21.129C17.6287 21.0268 18.6311 20.5577 19.3955 19.8011L19.3968 19.7998C19.4667 19.7289 19.5433 19.6546 19.6231 19.5771C19.8414 19.3651 20.0842 19.1295 20.2823 18.8758C20.5553 18.5262 20.7675 18.1149 20.7361 17.632C20.7359 17.373 20.6846 17.1165 20.5852 16.8773C20.4852 16.6365 20.3384 16.4179 20.1533 16.2343C20.1533 16.2342 20.1532 16.2341 20.1531 16.2341L18.2804 14.3581Z" fill="#625DF5" stroke="#625DF5" stroke-width="0.3"/>
</svg>
