<svg width="24" height="24" viewBox="0 0 24 24" fill="none" xmlns="http://www.w3.org/2000/svg">
<path d="M11 19.5002H16.7C16.4042 20.2393 15.8935 20.8727 15.2339 21.3184C14.5742 21.7641 13.7961 22.0016 13 22.0002H5.99998C5.47466 22.0004 4.95445 21.897 4.46908 21.696C3.98371 21.4951 3.5427 21.2004 3.17124 20.829C2.79978 20.4575 2.50515 20.0165 2.30418 19.5311C2.10321 19.0458 1.99985 18.5256 2 18.0002V10.0002C2.00118 9.02614 2.35714 8.08586 3.00131 7.35519C3.64547 6.62453 4.53373 6.15353 5.49997 6.03028V14.0002C5.49997 17.0302 7.96995 19.5002 11 19.5002ZM19.5 6.25021H21.62C21.5585 6.16009 21.4881 6.07634 21.41 6.00023L18 2.59007C17.9263 2.51222 17.8422 2.44501 17.75 2.39039V4.50023C17.7522 4.96367 17.9373 5.40751 18.265 5.73522C18.5927 6.06292 19.0365 6.24801 19.5 6.25021ZM19.5 7.75021C18.6385 7.74855 17.8129 7.40561 17.2037 6.79648C16.5946 6.18735 16.2517 5.36167 16.25 4.50023V2.00024H11C10.4747 2.0001 9.95446 2.10346 9.46909 2.30442C8.98372 2.50539 8.5427 2.80002 8.17124 3.17148C7.79977 3.54294 7.50514 3.98395 7.30417 4.46932C7.10319 4.95469 6.99983 5.4749 6.99997 6.00023V14.0002C6.99983 14.5256 7.10321 15.0458 7.30418 15.5311C7.50515 16.0165 7.79979 16.4575 8.17125 16.829C8.54272 17.2004 8.98373 17.4951 9.4691 17.696C9.95446 17.897 10.4747 18.0004 11 18.0002H18C18.5253 18.0004 19.0455 17.897 19.5309 17.696C20.0162 17.4951 20.4573 17.2004 20.8287 16.829C21.2002 16.4575 21.4948 16.0165 21.6958 15.5311C21.8967 15.0458 22.0001 14.5256 22 14.0002V7.75021H19.5Z" fill="white"/>
</svg>
