<svg width="20" height="22" viewBox="0 0 20 22" fill="none" xmlns="http://www.w3.org/2000/svg">
<g clip-path="url(#clip0_2079_841)">
<g opacity="0.5">
<path d="M3.84766 9.97675C3.84766 7.08299 3.84766 5.63508 4.74919 4.73666C5.65073 3.83824 7.10099 3.83722 10.0015 3.83722H13.0784C15.9789 3.83722 17.4302 3.83722 18.3307 4.73666C19.2312 5.6361 19.2323 7.08299 19.2323 9.97675V15.093C19.2323 17.9868 19.2323 19.4347 18.3307 20.3331C17.4292 21.2315 15.9789 21.2326 13.0784 21.2326H10.0015C7.10099 21.2326 5.64971 21.2326 4.74919 20.3331C3.84868 19.4337 3.84766 17.9868 3.84766 15.093V9.97675Z" stroke="white" stroke-width="1.5"/>
<path d="M3.84645 18.1628C3.0304 18.1628 2.24778 17.8394 1.67074 17.2637C1.09371 16.688 0.769531 15.9072 0.769531 15.093V8.9535C0.769531 5.09481 0.769531 3.16494 1.97158 1.96671C3.17363 0.768479 5.10697 0.767456 8.97466 0.767456H13.0772C13.8933 0.767456 14.6759 1.09088 15.2529 1.66657C15.83 2.24226 16.1541 3.02307 16.1541 3.83722" stroke="white" stroke-width="1.5"/>
</g>
</g>
<defs>
<clipPath id="clip0_2079_841">
<rect width="20" height="22" fill="white"/>
</clipPath>
</defs>
</svg>
