<svg width="22" height="22" viewBox="0 0 22 22" fill="none" xmlns="http://www.w3.org/2000/svg">
<path d="M19.1533 1.29492H17.2122V3.2361C17.2122 3.62433 16.8886 3.88316 16.5651 3.88316C16.2416 3.88316 15.918 3.62433 15.918 3.2361V1.29492H5.56511V3.2361C5.56511 3.62433 5.24158 3.88316 4.91805 3.88316C4.59452 3.88316 4.27099 3.62433 4.27099 3.2361V1.29492H2.32981C1.35923 1.29492 0.647461 2.1361 0.647461 3.2361V5.56551H21.3533V3.2361C21.3533 2.1361 20.1886 1.29492 19.1533 1.29492ZM0.647461 6.92433V18.7655C0.647461 19.9302 1.35923 20.7067 2.39452 20.7067H19.2181C20.2533 20.7067 21.418 19.8655 21.418 18.7655V6.92433H0.647461ZM6.40628 17.7949H4.85334C4.59452 17.7949 4.3357 17.6008 4.3357 17.2773V15.6596C4.3357 15.4008 4.52981 15.142 4.85334 15.142H6.47099C6.72981 15.142 6.98864 15.3361 6.98864 15.6596V17.2773C6.92393 17.6008 6.72981 17.7949 6.40628 17.7949ZM6.40628 11.9714H4.85334C4.59452 11.9714 4.3357 11.7773 4.3357 11.4537V9.8361C4.3357 9.57727 4.52981 9.31845 4.85334 9.31845H6.47099C6.72981 9.31845 6.98864 9.51257 6.98864 9.8361V11.4537C6.92393 11.7773 6.72981 11.9714 6.40628 11.9714ZM11.5828 17.7949H9.96511C9.70628 17.7949 9.44746 17.6008 9.44746 17.2773V15.6596C9.44746 15.4008 9.64158 15.142 9.96511 15.142H11.5828C11.8416 15.142 12.1004 15.3361 12.1004 15.6596V17.2773C12.1004 17.6008 11.9063 17.7949 11.5828 17.7949ZM11.5828 11.9714H9.96511C9.70628 11.9714 9.44746 11.7773 9.44746 11.4537V9.8361C9.44746 9.57727 9.64158 9.31845 9.96511 9.31845H11.5828C11.8416 9.31845 12.1004 9.51257 12.1004 9.8361V11.4537C12.1004 11.7773 11.9063 11.9714 11.5828 11.9714ZM16.7592 17.7949H15.1416C14.8828 17.7949 14.6239 17.6008 14.6239 17.2773V15.6596C14.6239 15.4008 14.818 15.142 15.1416 15.142H16.7592C17.018 15.142 17.2769 15.3361 17.2769 15.6596V17.2773C17.2769 17.6008 17.0828 17.7949 16.7592 17.7949ZM16.7592 11.9714H15.1416C14.8828 11.9714 14.6239 11.7773 14.6239 11.4537V9.8361C14.6239 9.57727 14.818 9.31845 15.1416 9.31845H16.7592C17.018 9.31845 17.2769 9.51257 17.2769 9.8361V11.4537C17.2769 11.7773 17.0828 11.9714 16.7592 11.9714Z" fill="white"/>
</svg>
