<svg width="28" height="28" viewBox="0 0 28 28" fill="none" xmlns="http://www.w3.org/2000/svg">
<g clip-path="url(#clip0_2079_752)">
<path d="M2.59917 20.5168H25.4038M2.59917 7.48317H25.4038M0.969635 14.0004H27.036M27.036 14.0004C27.036 16.5783 26.2716 19.0982 24.8394 21.2416C23.4072 23.385 21.3716 25.0555 18.9899 26.042C16.6083 27.0285 13.9876 27.2865 11.4593 26.7835C8.93102 26.2806 6.60865 25.0391 4.7859 23.2163C2.96315 21.3934 1.72189 19.0709 1.21909 16.5426C0.71628 14.0143 0.974515 11.3936 1.96113 9.01206C2.94775 6.63049 4.61844 4.59498 6.76192 3.16293C8.90541 1.73088 11.4254 0.966623 14.0033 0.966797M27.036 14.0004C27.036 10.5438 25.6629 7.22882 23.2188 4.78457C20.7748 2.34031 17.4598 0.96703 14.0033 0.966797M14.0033 27.0332C14.0033 27.0332 6.67212 23.775 6.67212 13.9995C6.67212 4.2241 14.0033 0.966797 14.0033 0.966797M14.0033 27.0332C14.0033 27.0332 21.3344 23.7759 21.3344 14.0004C21.3344 4.22498 14.0033 0.966797 14.0033 0.966797M14.0033 27.0332V0.966797" stroke="white" stroke-width="1.925"/>
</g>
<defs>
<clipPath id="clip0_2079_752">
<rect width="28" height="28" fill="white"/>
</clipPath>
</defs>
</svg>
