<svg width="24" height="24" viewBox="0 0 24 24" fill="none" xmlns="http://www.w3.org/2000/svg">
<path d="M12 22C7.50799 22 3.207 17.9526 0.367972 13.7507C-0.122657 13.0245 -0.122657 11.9703 0.367972 11.2442C1.08177 10.1877 2.57763 8.14946 4.57585 6.36813C9.60879 1.88162 14.3815 1.87297 19.4241 6.36813C21.7717 8.46078 23.632 11.2049 23.632 11.2442C24.1227 11.9703 24.1227 13.0245 23.632 13.7507C20.7934 17.952 16.493 22 12 22ZM12 4.8049C7.02378 4.8049 2.71014 10.6168 1.50663 12.3981C1.48778 12.426 1.47747 12.4612 1.47747 12.4974C1.47747 12.5337 1.48778 12.5689 1.50663 12.5968C2.71018 14.3781 7.02378 20.19 12 20.19C16.9762 20.19 21.2899 14.3781 22.4934 12.5968C22.5635 12.4929 22.4887 12.3981 22.4934 12.3981C21.2898 10.6168 16.9762 4.8049 12 4.8049Z" fill="#ABABB2"/>
<path d="M12.0009 17.3455C9.14862 17.3455 6.82812 15.025 6.82812 12.1728C6.82812 9.3205 9.14862 7 12.0009 7C14.8532 7 17.1737 9.3205 17.1737 12.1728C17.1737 15.025 14.8532 17.3455 12.0009 17.3455ZM12.0009 8.47793C9.96356 8.47793 8.30606 10.1354 8.30606 12.1728C8.30606 14.2101 9.96356 15.8676 12.0009 15.8676C14.0382 15.8676 15.6957 14.2101 15.6957 12.1728C15.6957 10.1354 14.0382 8.47793 12.0009 8.47793Z" fill="#ABABB2"/>
</svg>
