<svg width="18" height="18" viewBox="0 0 18 18" fill="none" xmlns="http://www.w3.org/2000/svg">
<g clip-path="url(#clip0_387_3219)">
<path d="M9 0C4.02961 0 0 4.02961 0 9C0 13.9704 4.02961 18 9 18C13.9704 18 18 13.9704 18 9C18 4.02961 13.9704 0 9 0ZM14.1261 7.0207L8.4375 12.709C8.32392 12.8226 8.18907 12.9127 8.04064 12.9742C7.89222 13.0357 7.73314 13.0674 7.57248 13.0674C7.41182 13.0674 7.25274 13.0357 7.10432 12.9742C6.95589 12.9127 6.82104 12.8226 6.70746 12.709L3.87352 9.87539C3.75735 9.76237 3.6648 9.62739 3.60123 9.4783C3.53767 9.3292 3.50437 9.16897 3.50326 9.0069C3.50215 8.84482 3.53325 8.68414 3.59476 8.53419C3.65627 8.38424 3.74696 8.24801 3.86157 8.1334C3.97617 8.0188 4.11241 7.9281 4.26236 7.86659C4.41231 7.80508 4.57299 7.77398 4.73506 7.77509C4.89713 7.77621 5.05737 7.80951 5.20646 7.87307C5.35555 7.93663 5.49053 8.02918 5.60355 8.14535L7.5723 10.1141L12.3961 5.29102C12.5097 5.17742 12.6445 5.08731 12.7929 5.02582C12.9413 4.96433 13.1004 4.93268 13.261 4.93266C13.4216 4.93264 13.5807 4.96427 13.7291 5.02572C13.8775 5.08718 14.0124 5.17727 14.126 5.29084C14.2396 5.40441 14.3297 5.53925 14.3912 5.68765C14.4526 5.83605 14.4843 5.9951 14.4843 6.15574C14.4843 6.31637 14.4527 6.47543 14.3912 6.62384C14.3298 6.77225 14.2397 6.90711 14.1261 7.0207Z" fill="white"/>
</g>
<defs>
<clipPath id="clip0_387_3219">
<rect width="18" height="18" fill="white"/>
</clipPath>
</defs>
</svg>
