<svg width="19" height="19" viewBox="0 0 19 19" fill="none" xmlns="http://www.w3.org/2000/svg">
<g clip-path="url(#clip0_351_1217)">
<path fill-rule="evenodd" clip-rule="evenodd" d="M9.49848 0.593994C11.4478 0.593994 13.1857 1.75863 13.889 3.48763C13.945 3.63285 13.9418 3.79428 13.8801 3.93716C13.8183 4.08004 13.7029 4.19295 13.5587 4.25156C13.4144 4.31018 13.253 4.30982 13.109 4.25056C12.9651 4.1913 12.8502 4.07788 12.789 3.93473C12.2728 2.66618 10.9784 1.78149 9.49848 1.78149C7.62312 1.78149 6.0577 3.19254 5.97546 5.01268C5.96121 5.32737 5.95112 5.63612 5.94488 5.9419C6.01079 5.93893 6.07699 5.93774 6.14349 5.93774H12.8544C15.1376 5.93774 17.1985 7.57649 17.4114 9.92418C17.5509 11.4662 17.5503 12.8692 17.4099 14.415C17.1964 16.7648 15.1358 18.4065 12.8496 18.4065H6.15092C3.87893 18.4065 1.82396 16.7847 1.59893 14.4492C1.44693 12.8736 1.44634 11.4513 1.59626 9.88767C1.7732 8.04585 3.09102 6.65084 4.75352 6.14467C4.75929 5.74937 4.77117 5.35418 4.78915 4.95924C4.90256 2.45213 7.04213 0.593994 9.49848 0.593994ZM11.2812 12.1721C11.2812 11.6997 11.0935 11.2466 10.7595 10.9126C10.4254 10.5785 9.97238 10.3909 9.49996 10.3909C9.02754 10.3909 8.57448 10.5785 8.24043 10.9126C7.90638 11.2466 7.71871 11.6997 7.71871 12.1721C7.71871 12.6445 7.90638 13.0976 8.24043 13.4317C8.57448 13.7657 9.02754 13.9534 9.49996 13.9534C9.97238 13.9534 10.4254 13.7657 10.7595 13.4317C11.0935 13.0976 11.2812 12.6445 11.2812 12.1721Z" fill="white"/>
</g>
<defs>
<clipPath id="clip0_351_1217">
<rect width="19" height="19" fill="white" transform="matrix(-1 0 0 1 19 0.000244141)"/>
</clipPath>
</defs>
</svg>
