<svg width="24" height="24" viewBox="0 0 24 24" fill="none" xmlns="http://www.w3.org/2000/svg">
<path d="M1.2002 4.67988C1.2002 4.20249 1.38984 3.74466 1.7274 3.40709C2.06497 3.06953 2.52281 2.87988 3.0002 2.87988H21.0002C21.4776 2.87988 21.9354 3.06953 22.273 3.40709C22.6106 3.74466 22.8002 4.20249 22.8002 4.67988C22.8002 5.15727 22.6106 5.61511 22.273 5.95267C21.9354 6.29024 21.4776 6.47988 21.0002 6.47988H3.0002C2.52281 6.47988 2.06497 6.29024 1.7274 5.95267C1.38984 5.61511 1.2002 5.15727 1.2002 4.67988ZM1.2002 11.8799C1.2002 11.4025 1.38984 10.9447 1.7274 10.6071C2.06497 10.2695 2.52281 10.0799 3.0002 10.0799H13.8002C14.2776 10.0799 14.7354 10.2695 15.073 10.6071C15.4106 10.9447 15.6002 11.4025 15.6002 11.8799C15.6002 12.3573 15.4106 12.8151 15.073 13.1527C14.7354 13.4902 14.2776 13.6799 13.8002 13.6799H3.0002C2.52281 13.6799 2.06497 13.4902 1.7274 13.1527C1.38984 12.8151 1.2002 12.3573 1.2002 11.8799ZM1.2002 19.0799C1.2002 18.6025 1.38984 18.1447 1.7274 17.8071C2.06497 17.4695 2.52281 17.2799 3.0002 17.2799H21.0002C21.4776 17.2799 21.9354 17.4695 22.273 17.8071C22.6106 18.1447 22.8002 18.6025 22.8002 19.0799C22.8002 19.5573 22.6106 20.0151 22.273 20.3527C21.9354 20.6902 21.4776 20.8799 21.0002 20.8799H3.0002C2.52281 20.8799 2.06497 20.6902 1.7274 20.3527C1.38984 20.0151 1.2002 19.5573 1.2002 19.0799Z" fill="#fff"/>
</svg>
