<svg width="19" height="19" viewBox="0 0 19 19" fill="none" xmlns="http://www.w3.org/2000/svg">
<g opacity="0.94" clip-path="url(#clip0_351_1211)">
<path d="M4.10693 17.1502L4.10807 17.1502C4.43164 17.149 4.74631 17.0441 5.00589 16.851L9.51225 13.5001L9.51231 13.5002L9.51649 13.4968C9.52268 13.4919 9.53037 13.4892 9.53829 13.4892C9.54622 13.4892 9.55391 13.4919 9.56009 13.4968L9.56005 13.4969L9.56384 13.4997L14.0317 16.8506L14.0317 16.8507L14.036 16.8537C14.2585 17.0087 14.5188 17.1004 14.7893 17.119C15.0598 17.1377 15.3303 17.0826 15.572 16.9595C15.8136 16.8365 16.0173 16.6502 16.1614 16.4205C16.3055 16.1908 16.3845 15.9263 16.3901 15.6552L16.3901 15.6552V15.6522L16.3901 2.55665L16.3901 2.5558C16.3879 2.15941 16.2294 1.77989 15.9491 1.49959C15.6688 1.2193 15.2893 1.06083 14.8929 1.05858H14.892H4.10834C3.91017 1.05644 3.71354 1.09344 3.5297 1.16746C3.34559 1.24158 3.17795 1.35137 3.03642 1.49052C2.8949 1.62966 2.78227 1.79541 2.70503 1.97823C2.62778 2.16105 2.58745 2.35734 2.58633 2.55581H2.58633V2.55665L2.58633 15.6522L2.58633 15.6526C2.58711 15.9348 2.66802 16.2111 2.81965 16.4491C2.97115 16.687 3.187 16.8769 3.44215 16.997C3.64954 17.097 3.87668 17.1494 4.10693 17.1502ZM4.06492 15.6533V15.6522V2.55665C4.06492 2.54536 4.06941 2.53453 4.0774 2.52654C4.08538 2.51856 4.09621 2.51407 4.10751 2.51407H14.892H14.9072L14.9221 2.51103C14.9283 2.50975 14.9348 2.5099 14.941 2.51146C14.9472 2.51302 14.953 2.51595 14.9579 2.52004C14.9628 2.52413 14.9667 2.52927 14.9693 2.53508C14.972 2.54089 14.9733 2.54723 14.9732 2.55361L14.9731 2.55361V2.55665L14.9731 15.6368L14.9731 15.6379C14.9732 15.6446 14.9713 15.6512 14.9677 15.6569C14.9641 15.6626 14.9589 15.6671 14.9528 15.6699L14.9411 15.6752L14.9305 15.6825C14.926 15.6856 14.9206 15.6872 14.9152 15.6872C14.9103 15.6872 14.9055 15.6859 14.9013 15.6835L10.4371 12.3353L10.4361 12.3346C10.176 12.1429 9.86139 12.0395 9.53829 12.0395C9.21519 12.0395 8.90058 12.1429 8.64047 12.3346L8.63968 12.3351L4.13682 15.6988C4.13262 15.7013 4.12782 15.7027 4.12291 15.7027C4.11743 15.7027 4.11208 15.701 4.10755 15.6979L4.09695 15.6906L4.08527 15.6853C4.07915 15.6825 4.07398 15.678 4.07037 15.6723L3.94382 15.7528L4.07037 15.6723C4.06676 15.6666 4.06487 15.66 4.06492 15.6533ZM15.1231 15.6368V2.55665L14.815 15.8062C14.8445 15.8264 14.8794 15.8372 14.9152 15.8372C14.9509 15.8372 14.9858 15.8264 15.0153 15.8062C15.0477 15.7914 15.0751 15.7675 15.0942 15.7374C15.1134 15.7074 15.1234 15.6724 15.1231 15.6368Z" fill="white" stroke="white" stroke-width="0.3"/>
</g>
<defs>
<clipPath id="clip0_351_1211">
<rect width="19" height="19" fill="white" transform="translate(0 0.000244141)"/>
</clipPath>
</defs>
</svg>
