<svg width="778" height="579" viewBox="0 0 778 579" fill="none" xmlns="http://www.w3.org/2000/svg">
<path d="M538.5 577C613.887 577 675 569.165 675 559.5C675 549.835 613.887 542 538.5 542C463.113 542 402 549.835 402 559.5C402 569.165 463.113 577 538.5 577Z" fill="#F5F5F5" fill-opacity="0.1"/>
<path d="M525.461 404.336H192.322C184.853 404.336 178.162 398.121 177.695 390.662L161.357 163.63C160.89 156.171 166.492 149.956 174.116 149.956H507.412C514.88 149.956 521.571 156.171 522.038 163.63L538.376 390.662C538.687 398.121 533.086 404.336 525.461 404.336Z" fill="#625DF5"/>
<path d="M526.706 404.336H193.567C186.098 404.336 179.407 398.121 178.94 390.662L162.602 163.63C162.136 156.171 167.737 149.956 175.362 149.956H508.657C516.126 149.956 522.816 156.171 523.283 163.63L539.621 390.662C540.088 398.121 534.331 404.336 526.706 404.336Z" fill="#625DF5"/>
<path opacity="0.5" d="M526.706 404.336H193.567C186.098 404.336 179.407 398.121 178.94 390.662L162.602 163.63C162.136 156.171 167.737 149.956 175.362 149.956H508.657C516.126 149.956 522.816 156.171 523.283 163.63L539.621 390.662C540.088 398.121 534.331 404.336 526.706 404.336Z" fill="white"/>
<path d="M508.968 156.793H175.673C175.362 156.793 174.895 156.793 174.584 156.793C166.026 157.57 167.738 170.468 176.451 170.468H510.213C518.771 170.468 518.616 157.57 510.058 156.793C509.591 156.793 509.28 156.793 508.968 156.793Z" fill="#625DF5"/>
<path d="M184.387 163.63C184.542 165.34 183.142 166.738 181.43 166.738C179.719 166.738 178.163 165.34 178.007 163.63C177.851 161.921 179.252 160.522 180.963 160.522C182.675 160.522 184.231 161.921 184.387 163.63Z" fill="#FAFAFA"/>
<path d="M194.968 163.63C195.123 165.34 193.723 166.738 192.011 166.738C190.3 166.738 188.744 165.34 188.588 163.63C188.432 161.921 189.833 160.522 191.544 160.522C193.412 160.522 194.968 161.921 194.968 163.63Z" fill="#FAFAFA"/>
<path d="M205.704 163.63C205.86 165.34 204.459 166.738 202.748 166.738C201.036 166.738 199.48 165.34 199.324 163.63C199.169 161.921 200.569 160.522 202.281 160.522C203.992 160.522 205.548 161.921 205.704 163.63Z" fill="#FAFAFA"/>
<path d="M517.992 381.649H199.168C196.367 381.649 194.033 379.473 193.878 376.676L180.34 189.892C180.185 187.095 182.208 184.919 185.008 184.919H503.833C506.634 184.919 508.968 187.095 509.123 189.892L522.66 376.676C522.66 379.473 520.638 381.649 517.992 381.649Z" fill="white"/>
<path d="M383.554 310.478L378.42 238.53L362.704 229.051H319.447L325.36 310.478H383.554Z" fill="white"/>
<path d="M383.554 311.255H325.204C324.738 311.255 324.426 310.944 324.426 310.634L318.514 229.207C318.514 229.051 318.514 228.741 318.669 228.585C318.825 228.43 318.98 228.274 319.292 228.274H362.548C362.704 228.274 362.86 228.274 362.86 228.43L378.575 237.909C378.731 238.064 378.886 238.22 378.886 238.53L384.021 310.478C384.021 310.634 384.021 310.944 383.866 311.1C384.021 311.255 383.866 311.255 383.554 311.255ZM325.982 309.857H382.776L377.642 239.152L362.393 229.984H320.225L325.982 309.857Z" fill="#625DF5"/>
<path d="M378.42 238.53L362.704 229.051L368.461 241.638L378.42 238.53Z" fill="#EBEBEB"/>
<path d="M368.462 242.415C368.15 242.415 367.839 242.26 367.839 241.949L362.082 229.362C361.926 229.051 362.082 228.741 362.238 228.43C362.549 228.274 362.86 228.119 363.171 228.274L378.887 237.753C379.198 237.909 379.354 238.22 379.198 238.53C379.198 238.841 378.887 238.997 378.731 239.152L368.773 242.26C368.617 242.415 368.462 242.415 368.462 242.415ZM364.416 231.071L368.928 240.706L376.708 238.375L364.416 231.071Z" fill="#625DF5"/>
<path d="M343.876 265.88C344.032 267.745 342.632 269.143 340.764 269.143C338.897 269.143 337.341 267.745 337.186 265.88C337.03 264.015 338.43 262.617 340.298 262.617C342.165 262.617 343.721 264.015 343.876 265.88Z" fill="#625DF5"/>
<path d="M365.193 265.88C365.348 267.745 363.948 269.143 362.081 269.143C360.214 269.143 358.658 267.745 358.502 265.88C358.346 264.015 359.747 262.617 361.614 262.617C363.481 262.461 365.037 264.015 365.193 265.88Z" fill="#625DF5"/>
<path d="M371.262 287.169C370.795 287.169 370.484 286.858 370.484 286.547C370.172 281.264 361.77 276.913 351.967 276.913C345.432 276.913 339.675 278.778 336.718 281.885C335.474 283.284 334.851 284.838 335.007 286.392C335.007 286.858 334.696 287.169 334.384 287.169C333.918 287.169 333.606 286.858 333.606 286.547C333.451 284.527 334.229 282.662 335.785 280.953C338.897 277.534 345.276 275.359 352.123 275.359C362.859 275.359 371.728 280.176 372.195 286.392C372.04 286.703 371.728 287.169 371.262 287.169Z" fill="#625DF5"/>
<path d="M331.739 259.198C331.584 259.198 331.428 259.198 331.272 259.042C330.961 258.732 330.961 258.265 331.272 257.955L334.54 254.381C334.851 254.07 335.318 254.07 335.629 254.381C335.94 254.691 335.94 255.158 335.629 255.468L332.362 259.042C332.05 259.042 331.895 259.198 331.739 259.198Z" fill="#625DF5"/>
<path d="M369.706 259.198C369.551 259.198 369.395 259.198 369.24 259.042L365.35 255.468C365.038 255.158 365.038 254.691 365.35 254.381C365.661 254.07 366.128 254.07 366.439 254.381L370.329 257.955C370.64 258.265 370.64 258.732 370.329 259.042C370.018 259.042 369.862 259.198 369.706 259.198Z" fill="#625DF5"/>
<path d="M314.779 326.639H318.358L323.493 333.321L323.026 326.639H326.605L327.538 338.759H323.648L318.669 332.077L319.136 338.759H315.557L314.779 326.639Z" fill="#625DF5"/>
<path d="M328.783 332.699C328.627 330.679 329.094 329.125 330.183 328.037C331.273 326.95 332.673 326.328 334.696 326.328C336.719 326.328 338.275 326.95 339.519 327.882C340.764 328.97 341.387 330.524 341.542 332.389C341.698 333.787 341.542 335.03 341.075 335.963C340.609 336.895 339.986 337.517 339.208 338.138C338.275 338.604 337.185 338.915 335.941 338.915C334.54 338.915 333.451 338.76 332.517 338.293C331.584 337.827 330.806 337.206 330.183 336.273C329.25 335.341 328.939 334.098 328.783 332.699ZM332.673 332.699C332.829 333.942 332.984 334.875 333.607 335.341C334.073 335.807 334.696 336.118 335.474 336.118C336.252 336.118 336.874 335.807 337.341 335.341C337.808 334.875 337.963 333.942 337.808 332.544C337.652 331.456 337.497 330.524 336.874 330.058C336.407 329.591 335.785 329.281 335.007 329.281C334.229 329.281 333.607 329.591 333.295 330.058C332.673 330.679 332.517 331.456 332.673 332.699Z" fill="#625DF5"/>
<path d="M348.855 326.639H354.457C355.546 326.639 356.48 326.794 357.102 327.105C357.88 327.416 358.347 327.882 358.814 328.348C359.281 328.97 359.592 329.591 359.903 330.368C360.214 331.145 360.37 331.922 360.37 332.699C360.525 333.942 360.37 335.03 360.214 335.652C359.903 336.429 359.592 336.895 359.125 337.516C358.658 337.982 358.036 338.293 357.569 338.449C356.791 338.604 356.013 338.759 355.391 338.759H349.789L348.855 326.639ZM352.745 329.436L353.212 336.118H354.146C354.924 336.118 355.546 335.962 355.857 335.807C356.169 335.652 356.48 335.341 356.635 334.875C356.791 334.408 356.791 333.787 356.791 332.699C356.635 331.456 356.48 330.524 356.013 330.057C355.546 329.591 354.768 329.28 353.835 329.28H352.745V329.436Z" fill="#625DF5"/>
<path d="M369.395 336.739H365.194L364.727 338.759H360.837L364.571 326.639H368.617L374.063 338.759H370.173L369.395 336.739ZM368.461 334.098L366.75 329.747L365.661 334.098H368.461Z" fill="#625DF5"/>
<path d="M372.507 326.639H384.021L384.177 329.591H380.287L380.909 338.759H377.175L376.552 329.591H372.662L372.507 326.639Z" fill="#625DF5"/>
<path d="M392.735 336.739H388.534L388.067 338.759H384.177L387.911 326.639H391.957L397.403 338.759H393.513L392.735 336.739ZM391.646 334.098L389.934 329.747L389 334.098H391.646Z" fill="#625DF5"/>
<path d="M550.357 183.521C551.758 182.899 553.469 181.967 554.87 181.035C556.426 180.102 557.982 179.325 559.538 178.393C562.65 176.528 565.606 174.664 568.563 172.643C574.475 168.603 579.921 164.097 584.901 159.124C585.523 158.503 586.145 157.881 586.768 157.259L587.701 156.327L588.168 155.861L588.324 155.55C588.168 156.016 588.324 155.861 588.324 155.395C588.479 155.084 588.479 154.307 588.479 153.685C588.635 150.888 588.013 147.314 587.39 143.895C585.99 136.903 583.967 129.755 581.789 122.762L587.857 120.12C591.591 126.802 594.859 133.795 597.349 141.254C598.593 144.983 599.683 148.868 599.994 153.53C599.994 154.773 600.149 156.016 599.838 157.415C599.683 158.813 599.216 160.523 597.971 162.543L597.66 162.854L597.504 163.164L597.193 163.475L596.726 164.097L595.793 165.185C595.17 165.961 594.548 166.738 593.77 167.515C588.479 173.42 582.411 178.704 576.031 183.366C572.919 185.697 569.652 187.872 566.229 189.892C564.517 190.98 562.805 191.912 561.094 192.845C559.382 193.777 557.671 194.709 555.648 195.642L550.357 183.521Z" fill="#FFB573"/>
<path d="M536.508 548.853C537.753 548.853 538.998 548.543 539.931 548.387C540.087 548.387 540.087 548.232 540.087 548.076C540.087 547.921 540.087 547.766 539.931 547.766C539.465 547.455 535.575 544.968 534.019 545.59C533.707 545.745 533.552 545.901 533.396 546.522C533.241 547.144 533.396 547.766 533.863 548.232C534.641 548.698 535.419 548.853 536.508 548.853ZM538.998 547.921C536.664 548.387 534.952 548.232 534.33 547.766C534.019 547.455 534.019 547.144 534.019 546.678C534.019 546.367 534.174 546.367 534.33 546.212C535.108 545.901 537.442 546.989 538.998 547.921Z" fill="#625DF5"/>
<path d="M539.932 548.387C540.243 548.232 540.243 548.232 540.243 548.077C540.243 547.921 540.243 544.192 538.843 542.949C538.531 542.638 538.065 542.482 537.598 542.482C536.82 542.638 536.664 543.104 536.509 543.415C536.042 544.813 538.531 547.766 539.932 548.387C539.776 548.387 539.776 548.387 539.932 548.387ZM537.598 543.104C537.909 543.104 538.065 543.259 538.22 543.415C538.998 544.192 539.309 546.212 539.465 547.455C538.22 546.523 536.82 544.347 536.975 543.415C536.975 543.415 537.131 543.259 537.598 543.104Z" fill="#625DF5"/>
<path d="M538.687 144.672C537.131 152.442 534.019 167.982 539.31 173.265C539.31 173.265 537.131 181.035 522.816 181.035C506.945 181.035 515.192 173.265 515.192 173.265C523.75 171.245 523.594 164.874 522.038 158.813L538.687 144.672Z" fill="#FFB573"/>
<path d="M512.39 176.373C509.901 176.684 512.079 170.313 513.013 169.691C515.347 168.137 545.533 165.962 545.222 169.691C545.066 171.245 544.288 174.353 543.043 175.441C541.799 176.218 534.019 173.11 512.39 176.373Z" fill="#263238"/>
<path d="M517.214 174.197C515.191 174.819 515.503 168.448 516.125 167.671C517.681 165.806 542.11 159.59 542.733 163.164C543.044 164.718 543.199 167.671 542.266 168.914C541.488 170.002 534.33 168.137 517.214 174.197Z" fill="#263238"/>
<path d="M508.19 130.842C508.034 130.842 507.878 130.842 507.723 130.687C506.011 128.512 503.677 128.822 503.677 128.822C503.366 128.822 503.055 128.667 503.055 128.201C503.055 127.89 503.21 127.579 503.677 127.579C503.833 127.579 506.634 127.268 508.812 129.91C508.968 130.221 508.967 130.532 508.656 130.842C508.501 130.687 508.345 130.842 508.19 130.842Z" fill="#263238"/>
<path d="M505.233 138.301C505.233 138.301 503.833 142.963 502.121 145.294C503.677 146.382 505.855 145.605 505.855 145.605L505.233 138.301Z" fill="#FF5652"/>
<path d="M506.011 136.436C506.166 137.524 505.699 138.457 504.921 138.457C504.299 138.457 503.677 137.68 503.521 136.747C503.365 135.659 503.832 134.727 504.61 134.727C505.233 134.727 505.855 135.504 506.011 136.436Z" fill="#263238"/>
<path d="M504.766 134.727L502.121 134.261C502.277 134.261 503.677 136.125 504.766 134.727Z" fill="#263238"/>
<path d="M555.026 548.077H541.955L543.044 517.93H556.115L555.026 548.077Z" fill="#FFB573"/>
<path d="M541.021 546.678H555.647C556.114 546.678 556.581 546.989 556.736 547.61L558.448 559.109C558.604 560.352 557.514 561.44 556.425 561.44C551.29 561.285 548.801 561.129 542.421 561.129C538.531 561.129 532.618 561.596 527.172 561.596C521.882 561.596 521.415 556.157 523.749 555.691C534.019 553.515 535.575 550.407 538.998 547.61C539.465 546.833 540.243 546.678 541.021 546.678Z" fill="#263238"/>
<g opacity="0.2">
<path d="M556.115 517.93H543.044L542.422 533.47H555.492L556.115 517.93Z" fill="black"/>
</g>
<path d="M503.21 191.291C495.119 188.183 487.495 184.764 479.87 180.724C472.246 176.839 464.621 172.643 457.464 167.049C455.597 165.651 453.885 164.097 452.173 162.232C451.707 161.766 451.24 161.299 450.929 160.833C450.462 160.212 450.151 159.901 449.528 159.124C448.439 157.57 447.661 155.55 447.505 153.53C447.35 151.51 447.661 149.489 448.283 147.936C448.906 146.382 449.684 144.983 450.462 143.895C452.173 141.564 453.885 140.01 455.752 138.456C459.331 135.504 463.221 133.328 467.111 131.153C468.978 130.065 471.001 129.133 473.024 128.356C475.047 127.423 476.914 126.646 479.092 126.025L481.893 132.085C475.047 136.281 468.045 141.098 462.91 146.382C461.665 147.625 460.576 149.023 459.798 150.266C459.02 151.51 459.02 152.442 459.175 152.287C459.175 152.287 459.175 152.287 459.331 152.442L459.953 153.064C460.109 153.374 460.576 153.685 460.731 153.841C461.976 154.928 463.377 156.171 464.933 157.259C468.045 159.435 471.468 161.455 474.891 163.475C478.47 165.495 482.049 167.36 485.627 169.069C492.941 172.643 500.565 175.907 508.034 179.014L503.21 191.291Z" fill="#FFB573"/>
<path d="M485.472 127.734L487.65 123.072L477.847 119.654C477.847 119.654 474.735 128.822 478.47 133.018C481.426 132.552 484.071 130.531 485.472 127.734Z" fill="#FFB573"/>
<path d="M487.65 112.972L479.715 110.796L477.848 119.654L487.65 123.073V112.972Z" fill="#FFB573"/>
<path d="M588.635 123.539L589.724 112.661L579.61 114.992C579.61 114.992 579.454 125.248 584.745 126.802L588.635 123.539Z" fill="#FFB573"/>
<path d="M585.056 105.047L578.365 107.999L579.766 114.992L589.88 112.661L585.056 105.047Z" fill="#FFB573"/>
<path d="M540.71 129.444C541.177 142.342 541.644 147.78 535.887 155.084C527.173 165.962 511.146 163.786 506.789 151.199C502.899 140.011 502.744 120.742 514.881 114.371C526.706 108.155 540.243 116.546 540.71 129.444Z" fill="#FFB573"/>
<path d="M535.109 155.084C547.868 149.645 556.115 137.99 552.692 119.965C549.269 102.716 537.599 101.007 532.775 104.581C527.951 108.155 515.97 102.871 508.657 108.932C496.209 119.499 508.035 130.687 514.103 137.524C517.837 144.983 522.661 160.367 535.109 155.084Z" fill="#263238"/>
<path d="M529.818 116.857C534.175 123.073 542.266 124.782 548.179 120.742C554.092 116.701 555.337 108.465 550.98 102.25C546.623 96.0339 538.532 94.3245 532.619 98.3648C526.862 102.405 525.617 110.641 529.818 116.857Z" fill="#625DF5"/>
<path d="M533.241 105.668C531.374 95.2569 541.332 87.1763 554.403 91.0612C567.629 94.9461 560.627 106.601 557.982 115.924C555.336 125.248 562.338 134.105 565.295 126.957C568.251 119.809 563.272 117.634 563.272 117.634C563.272 117.634 577.276 121.208 564.206 137.058C551.135 152.753 539.465 135.349 542.577 125.093C545.222 117.012 534.953 115.614 533.241 105.668Z" fill="#263238"/>
<path d="M520.015 109.708C513.947 106.601 503.833 103.959 498.075 113.749C495.275 118.411 496.364 124.626 496.364 124.626L514.102 125.869L520.015 109.708Z" fill="#263238"/>
<path d="M494.186 121.519C493.875 121.519 493.719 121.363 493.875 121.052C493.875 120.742 494.341 114.526 498.076 110.641C507.256 101.162 517.837 109.087 520.949 111.729C521.105 111.884 521.105 112.04 520.949 112.35C520.793 112.506 520.638 112.506 520.327 112.35C517.37 109.864 507.101 102.25 498.543 111.263C494.964 114.992 494.497 121.208 494.497 121.208C494.653 121.363 494.341 121.519 494.186 121.519Z" fill="#263238"/>
<path d="M516.436 136.903C516.436 139.389 515.347 141.875 513.791 143.585C511.613 146.071 509.123 144.828 508.656 142.031C508.19 139.544 508.656 135.193 511.302 133.639C513.947 132.241 516.436 133.95 516.436 136.903Z" fill="#FFB573"/>
<path d="M513.636 255.158C513.636 255.158 514.414 345.442 522.349 395.79C528.729 436.503 540.399 530.517 540.399 530.517H558.137C558.137 530.517 559.849 439.766 556.581 399.519C548.49 297.736 569.496 278.778 552.536 255.158H513.636Z" fill="#263238"/>
<path opacity="0.1" d="M513.636 255.158C513.636 255.158 514.414 345.442 522.349 395.79C528.729 436.503 540.399 530.517 540.399 530.517H558.137C558.137 530.517 559.849 439.766 556.581 399.519C548.49 297.736 569.496 278.778 552.536 255.158H513.636Z" fill="white"/>
<path opacity="0.3" d="M522.971 296.027C529.195 323.221 524.216 366.265 520.793 385.223C517.214 356.475 515.347 319.336 514.413 291.986C517.681 286.858 520.637 286.392 522.971 296.027Z" fill="black"/>
<path d="M537.91 530.828H560.472L561.716 522.902L537.754 522.125L537.91 530.828Z" fill="#625DF5"/>
<path d="M544.289 178.859C546.467 174.664 557.826 172.022 564.05 172.022L568.718 192.845C568.718 192.845 556.27 211.337 551.135 209.317C545.067 206.986 539.777 187.872 544.289 178.859Z" fill="#625DF5"/>
<path opacity="0.4" d="M544.289 178.859C546.467 174.664 557.826 172.022 564.05 172.022L568.718 192.845C568.718 192.845 556.27 211.337 551.135 209.317C545.067 206.986 539.777 187.872 544.289 178.859Z" fill="black"/>
<path d="M531.218 525.855C531.218 525.699 531.218 525.699 531.218 525.544C531.218 525.389 531.063 525.389 530.907 525.389C530.285 525.544 524.528 526.476 523.75 528.03C523.594 528.341 523.594 528.652 523.75 528.963C524.061 529.429 524.528 529.74 525.15 529.895C526.862 530.05 529.662 527.409 531.218 525.855C531.063 525.855 531.063 525.855 531.218 525.855ZM524.216 528.186C524.683 527.253 527.795 526.476 529.974 526.166C527.951 528.186 526.083 529.429 524.994 529.274C524.683 529.274 524.372 529.118 524.061 528.652C524.216 528.497 524.216 528.341 524.216 528.186Z" fill="#625DF5"/>
<path d="M531.219 525.855C531.219 525.7 531.219 525.7 531.219 525.855C531.219 525.7 531.219 525.544 531.219 525.544C531.063 525.389 528.885 522.747 526.706 522.592C526.084 522.592 525.461 522.747 524.995 523.213C524.372 523.835 524.372 524.301 524.528 524.612C525.15 526.011 529.351 526.477 531.063 526.01C531.063 525.855 531.063 525.855 531.219 525.855ZM524.995 523.835C524.995 523.68 525.15 523.68 525.306 523.524C525.617 523.213 526.084 523.058 526.551 523.058C527.951 523.213 529.507 524.612 530.285 525.389C528.418 525.544 525.461 524.923 524.995 524.146C524.995 524.146 524.995 523.99 524.995 523.835Z" fill="#625DF5"/>
<path d="M544.756 520.261L532.774 525.544L527.484 514.511L520.482 500.06L519.704 498.35L531.685 493.067L532.619 494.932L539.31 508.917L544.756 520.261Z" fill="#FFB573"/>
<path opacity="0.2" d="M539.309 508.917L527.483 514.511L520.481 500.06L532.618 494.932L539.309 508.917Z" fill="black"/>
<path d="M499.631 255.158C499.631 255.158 461.509 349.638 471.935 394.236C481.271 434.483 522.505 510.626 522.505 510.626L538.376 502.701C538.376 502.701 512.857 410.708 510.057 390.817C504.611 351.969 539.309 297.114 539.309 255.313L499.631 255.158Z" fill="#263238"/>
<path opacity="0.1" d="M499.631 255.158C499.631 255.158 461.509 349.638 471.935 394.236C481.271 434.483 522.505 510.626 522.505 510.626L538.376 502.701C538.376 502.701 512.857 410.708 510.057 390.817C504.611 351.969 539.309 297.114 539.309 255.313L499.631 255.158Z" fill="white"/>
<path d="M530.751 523.99L542.577 515.444C543.043 515.133 543.51 515.133 543.977 515.599L552.068 523.99C552.846 524.923 552.691 526.321 551.757 527.098C547.556 530.051 545.377 531.294 540.243 535.023C536.975 537.354 530.595 542.482 526.239 545.746C521.882 548.853 518.459 544.813 520.015 543.104C527.017 535.334 528.417 530.517 529.506 526.166C529.662 525.078 529.973 524.301 530.751 523.99Z" fill="#263238"/>
<path d="M521.415 513.89L541.954 504.566L539.309 496.175L517.214 506.275L521.415 513.89Z" fill="#625DF5"/>
<path d="M509.745 177.771C508.033 173.42 493.096 168.447 485.627 166.894L482.359 191.446C482.359 191.446 494.496 209.005 499.942 207.452C506.166 205.742 513.324 187.25 509.745 177.771Z" fill="#625DF5"/>
<path opacity="0.4" d="M509.745 177.771C508.033 173.42 493.096 168.447 485.627 166.894L482.359 191.446C482.359 191.446 494.496 209.005 499.942 207.452C506.166 205.742 513.324 187.25 509.745 177.771Z" fill="black"/>
<path d="M493.408 176.528C493.408 176.528 487.184 178.704 499.632 255.158C520.638 255.158 542.422 255.158 552.536 255.158C551.602 233.713 551.602 220.349 561.872 176.217C561.872 176.217 550.824 173.731 539.465 173.265C530.596 172.799 523.283 172.488 515.503 173.265C505.078 174.197 493.408 176.528 493.408 176.528Z" fill="#625DF5"/>
<path opacity="0.4" d="M493.408 176.528C493.408 176.528 487.184 178.704 499.632 255.158C520.638 255.158 542.422 255.158 552.536 255.158C551.602 233.713 551.602 220.349 561.872 176.217C561.872 176.217 550.824 173.731 539.465 173.265C530.596 172.799 523.283 172.488 515.503 173.265C505.078 174.197 493.408 176.528 493.408 176.528Z" fill="black"/>
<path d="M553.314 252.05L555.648 256.712C555.803 257.023 555.337 257.489 554.714 257.489H499.165C498.698 257.489 498.231 257.178 498.231 257.023L497.765 252.361C497.765 252.05 498.076 251.739 498.698 251.739H552.38C552.847 251.584 553.158 251.739 553.314 252.05Z" fill="#625DF5"/>
<path opacity="0.3" d="M553.314 252.05L555.648 256.712C555.803 257.023 555.337 257.489 554.714 257.489H499.165C498.698 257.489 498.231 257.178 498.231 257.023L497.765 252.361C497.765 252.05 498.076 251.739 498.698 251.739H552.38C552.847 251.584 553.158 251.739 553.314 252.05Z" fill="white"/>
<path d="M546.156 257.955H547.556C547.868 257.955 548.023 257.8 548.023 257.644L547.401 251.428C547.401 251.273 547.09 251.118 546.778 251.118H545.378C545.067 251.118 544.911 251.273 544.911 251.428L545.534 257.644C545.534 257.8 545.845 257.955 546.156 257.955Z" fill="#263238"/>
<path d="M511.301 257.955H512.702C513.013 257.955 513.169 257.8 513.169 257.644L512.546 251.428C512.546 251.273 512.235 251.118 511.924 251.118H510.523C510.212 251.118 510.057 251.273 510.057 251.428L510.679 257.644C510.835 257.8 510.99 257.955 511.301 257.955Z" fill="#263238"/>
</svg>
