<svg width="24" height="24" viewBox="0 0 24 24" fill="none" xmlns="http://www.w3.org/2000/svg">
<path d="M12.0002 15.6666C11.8234 15.6666 11.6538 15.5964 11.5288 15.4714C11.4037 15.3464 11.3335 15.1768 11.3335 15V12.6666H9.00016C8.82335 12.6666 8.65378 12.5964 8.52876 12.4714C8.40373 12.3464 8.3335 12.1768 8.3335 12C8.3335 11.8232 8.40373 11.6536 8.52876 11.5286C8.65378 11.4036 8.82335 11.3333 9.00016 11.3333H11.3335V8.99998C11.3335 8.82317 11.4037 8.6536 11.5288 8.52858C11.6538 8.40355 11.8234 8.33331 12.0002 8.33331C12.177 8.33331 12.3465 8.40355 12.4716 8.52858C12.5966 8.6536 12.6668 8.82317 12.6668 8.99998V11.3333H15.0002C15.177 11.3333 15.3465 11.4036 15.4716 11.5286C15.5966 11.6536 15.6668 11.8232 15.6668 12C15.6668 12.1768 15.5966 12.3464 15.4716 12.4714C15.3465 12.5964 15.177 12.6666 15.0002 12.6666H12.6668V15C12.6668 15.1768 12.5966 15.3464 12.4716 15.4714C12.3465 15.5964 12.177 15.6666 12.0002 15.6666Z" fill="white"/>
<path fill-rule="evenodd" clip-rule="evenodd" d="M7.33333 2C4.38767 2 2 4.38767 2 7.33333V16.6667C2 19.6123 4.38767 22 7.33333 22H16.6667C19.6123 22 22 19.6123 22 16.6667V8.20233C22 7.83668 21.9247 7.47494 21.7789 7.1396C21.6332 6.80425 21.42 6.50247 21.1527 6.253L17.3647 2.71733C16.8709 2.25637 16.2205 2 15.545 2H7.33333ZM3.33333 7.33333C3.33333 5.12433 5.12433 3.33333 7.33333 3.33333H15.3333V5.33333C15.3333 6.04058 15.6143 6.71885 16.1144 7.21895C16.6145 7.71905 17.2928 8 18 8H20.6513C20.6613 8.06667 20.6667 8.13433 20.6667 8.20233V16.6667C20.6667 18.8757 18.8757 20.6667 16.6667 20.6667H7.33333C5.12433 20.6667 3.33333 18.8757 3.33333 16.6667V7.33333ZM16.6667 5.33333V3.89L19.642 6.66667H18C17.6464 6.66667 17.3072 6.52619 17.0572 6.27614C16.8071 6.02609 16.6667 5.68696 16.6667 5.33333Z" fill="white"/>
</svg>
