<svg width="512" height="512" viewBox="0 0 512 512" fill="none" xmlns="http://www.w3.org/2000/svg">
<g clip-path="url(#clip0_2013_31)">
<path d="M256 0C114.616 0 0 114.616 0 256C0 397.384 114.616 512 256 512C397.394 512 512 397.384 512 256C512 114.616 397.394 0 256 0ZM256 460.8C143.073 460.8 51.2 368.927 51.2 256C51.2 143.073 143.073 51.2 256 51.2C368.927 51.2 460.8 143.073 460.8 256C460.8 368.927 368.927 460.8 256 460.8Z" fill="white"/>
<path d="M349.113 238.08L224.963 166.4C207.893 156.549 193.926 164.608 193.926 184.32V327.68C193.926 347.392 207.893 355.461 224.963 345.6L349.113 273.92C366.183 264.069 366.183 247.931 349.113 238.08Z" fill="white"/>
</g>
<defs>
<clipPath id="clip0_2013_31">
<rect width="512" height="512" fill="white"/>
</clipPath>
</defs>
</svg>
