<svg width="24" height="24" viewBox="0 0 24 24" fill="none" xmlns="http://www.w3.org/2000/svg">
<path d="M17 2H7C6.20435 2 5.44129 2.31607 4.87868 2.87868C4.31607 3.44129 4 4.20435 4 5V19.42C4.00014 19.8578 4.11525 20.2879 4.3338 20.6672C4.55235 21.0466 4.86669 21.3619 5.24536 21.5816C5.62403 21.8013 6.05376 21.9177 6.49155 21.9192C6.92935 21.9207 7.35985 21.8071 7.74 21.59L11.74 19.29C11.8174 19.2505 11.9031 19.2299 11.99 19.2299C12.0769 19.2299 12.1626 19.2505 12.24 19.29L16.24 21.59C16.6176 21.806 17.045 21.9198 17.48 21.92C17.9196 21.9209 18.3514 21.8034 18.73 21.58C19.1137 21.3643 19.4334 21.0508 19.6565 20.6714C19.8796 20.292 19.9981 19.8602 20 19.42V5C20 4.20435 19.6839 3.44129 19.1213 2.87868C18.5587 2.31607 17.7956 2 17 2ZM14 9H10C9.73478 9 9.48043 8.89464 9.29289 8.70711C9.10536 8.51957 9 8.26522 9 8C9 7.73478 9.10536 7.48043 9.29289 7.29289C9.48043 7.10536 9.73478 7 10 7H14C14.2652 7 14.5196 7.10536 14.7071 7.29289C14.8946 7.48043 15 7.73478 15 8C15 8.26522 14.8946 8.51957 14.7071 8.70711C14.5196 8.89464 14.2652 9 14 9Z" fill="white"/>
</svg>
