<svg width="16" height="16" viewBox="0 0 16 16" fill="none" xmlns="http://www.w3.org/2000/svg">
<path fill-rule="evenodd" clip-rule="evenodd" d="M12.2664 1.06667C12.5609 1.06667 12.7997 1.30545 12.7997 1.6V14.4C12.7997 14.6945 12.5609 14.9333 12.2664 14.9333C11.9719 14.9333 11.7331 14.6945 11.7331 14.4V1.6C11.7331 1.30545 11.9719 1.06667 12.2664 1.06667ZM10.1331 3.2C10.4276 3.2 10.6664 3.43878 10.6664 3.73333V14.4C10.6664 14.6945 10.4276 14.9333 10.1331 14.9333C9.83852 14.9333 9.59974 14.6945 9.59974 14.4V3.73333C9.59974 3.43878 9.83852 3.2 10.1331 3.2ZM14.3997 3.2C14.6942 3.2 14.9331 3.43878 14.9331 3.73333V14.4C14.9331 14.6945 14.6942 14.9333 14.3997 14.9333C14.1052 14.9333 13.8664 14.6945 13.8664 14.4V3.73333C13.8664 3.43878 14.1052 3.2 14.3997 3.2ZM5.86641 4.26667C6.16096 4.26667 6.39974 4.50545 6.39974 4.8V14.4C6.39974 14.6945 6.16096 14.9333 5.86641 14.9333C5.57186 14.9333 5.33307 14.6945 5.33307 14.4V4.8C5.33307 4.50545 5.57186 4.26667 5.86641 4.26667ZM1.59974 5.33333C1.89429 5.33333 2.13307 5.57212 2.13307 5.86667V14.4C2.13307 14.6945 1.89429 14.9333 1.59974 14.9333C1.30519 14.9333 1.06641 14.6945 1.06641 14.4V5.86667C1.06641 5.57212 1.30519 5.33333 1.59974 5.33333ZM7.99974 5.33333C8.29429 5.33333 8.53307 5.57212 8.53307 5.86667V14.4C8.53307 14.6945 8.29429 14.9333 7.99974 14.9333C7.70519 14.9333 7.46641 14.6945 7.46641 14.4V5.86667C7.46641 5.57212 7.70519 5.33333 7.99974 5.33333ZM3.73307 7.46667C4.02762 7.46667 4.26641 7.70545 4.26641 8V14.4C4.26641 14.6945 4.02762 14.9333 3.73307 14.9333C3.43852 14.9333 3.19974 14.6945 3.19974 14.4V8C3.19974 7.70545 3.43852 7.46667 3.73307 7.46667Z" fill="white"/>
</svg>
