<svg width="22" height="22" viewBox="0 0 22 22" fill="none" xmlns="http://www.w3.org/2000/svg">
<path d="M18.1355 5.56713L18.1355 5.56712C17.9254 5.36118 17.6422 5.24709 17.348 5.24993C17.0539 5.25277 16.7729 5.37231 16.5669 5.58226L16.5668 5.58233L8.58671 13.7203L5.08175 10.2153C5.08173 10.2153 5.08172 10.2153 5.0817 10.2153C4.97871 10.1122 4.85645 10.0305 4.72188 9.97469C4.58729 9.9189 4.44302 9.89015 4.29732 9.89011C4.15162 9.89007 4.00734 9.91872 3.87271 9.97444C3.73809 10.0302 3.61575 10.1118 3.5127 10.2148C3.40964 10.3178 3.32788 10.4401 3.27208 10.5747L3.50172 10.6699L3.27208 10.5747C3.21629 10.7093 3.18754 10.8536 3.1875 10.9993C3.18746 11.145 3.21611 11.2892 3.27183 11.4239C3.32754 11.5585 3.40923 11.6808 3.51222 11.7839L3.51228 11.7839L7.80961 16.0813L7.80965 16.0813C7.9133 16.1849 8.03645 16.267 8.17199 16.3227L8.26708 16.0915L8.17199 16.3227C8.30752 16.3784 8.45276 16.4068 8.59931 16.4061C8.74586 16.4054 8.89082 16.3756 9.02581 16.3186C9.16081 16.2616 9.28316 16.1783 9.38581 16.0737L9.38588 16.0737L18.1505 7.13599C18.5805 6.69839 18.5727 5.99583 18.1355 5.56713Z" fill="#00EA33" stroke="#00EA33" stroke-width="0.5"/>
</svg>
