<svg width="22" height="27" viewBox="0 0 22 27" fill="none" xmlns="http://www.w3.org/2000/svg">
<g clip-path="url(#clip0_280_332)">
<path d="M21.7479 12.5161L21.7472 12.5151L17.2568 7.13283C16.9204 6.72962 16.3762 6.73112 16.0414 7.13635C15.7066 7.54152 15.7079 8.19687 16.0443 8.60013L19.0591 12.2137H0.859375C0.384742 12.2137 0 12.6771 0 13.2488C0 13.8204 0.384742 14.2838 0.859375 14.2838H19.0591L16.0443 17.8974C15.7079 18.3007 15.7066 18.956 16.0414 19.3612C16.3763 19.7665 16.9205 19.7679 17.2568 19.3647L21.7472 13.9824L21.748 13.9815C22.0846 13.5768 22.0835 12.9194 21.7479 12.5161Z" fill="white"/>
</g>
<defs>
<clipPath id="clip0_280_332">
<rect width="22" height="26.4975" fill="white"/>
</clipPath>
</defs>
</svg>
