<svg width="33" height="34" viewBox="0 0 33 34" fill="none" xmlns="http://www.w3.org/2000/svg">
<g opacity="0.85" clip-path="url(#clip0_415_1397)">
<path d="M24.3587 8.72569L24.3575 8.72566L17.8298 8.74144C17.3407 8.74263 16.9452 9.13998 16.9464 9.6291C16.9475 10.1182 17.3449 10.5137 17.834 10.5125L22.2166 10.5019L8.9561 23.7624C8.61028 24.1082 8.61028 24.6689 8.9561 25.0147C9.30192 25.3605 9.86258 25.3605 10.2084 25.0147L23.4689 11.7542L23.4583 16.1368C23.4572 16.6259 23.8527 17.0232 24.3417 17.0244C24.8309 17.0256 25.2282 16.63 25.2294 16.141L25.2452 9.61326L25.2451 9.6121C25.2456 9.1221 24.8471 8.72516 24.3587 8.72569Z" fill="white"/>
</g>
<defs>
<clipPath id="clip0_415_1397">
<rect width="22.669" height="22.669" fill="white" transform="translate(0.941406 17) rotate(-45)"/>
</clipPath>
</defs>
</svg>
