<svg width="16" height="16" viewBox="0 0 16 16" fill="none" xmlns="http://www.w3.org/2000/svg">
<g clip-path="url(#clip0_2579_744)">
<path d="M7.99972 1.04307C4.16235 1.04307 1.04258 4.16284 1.04258 8.00021C1.04258 11.8376 4.16235 14.9574 7.99972 14.9574C11.8371 14.9574 14.9569 11.8376 14.9569 8.00021C14.9569 4.16284 11.8371 1.04307 7.99972 1.04307ZM7.99972 13.9002C4.74691 13.9002 2.09972 11.253 2.09972 8.00021C2.09972 4.7474 4.74691 2.10021 7.99972 2.10021C11.2525 2.10021 13.8997 4.7474 13.8997 8.00021C13.8997 11.253 11.2525 13.9002 7.99972 13.9002ZM11.3865 6.36467C11.5915 6.15965 11.5916 5.82334 11.3868 5.61819C11.1816 5.41002 10.8447 5.40999 10.6395 5.61811C10.6394 5.61823 10.6393 5.61834 10.6392 5.61846L6.99526 9.26236L5.35972 7.62682C5.15459 7.4217 4.81806 7.4217 4.61294 7.62682C4.40781 7.83194 4.40781 8.16847 4.61294 8.3736L6.62187 10.3825C6.7241 10.4848 6.85955 10.5377 6.99526 10.5377C7.13097 10.5377 7.26641 10.4848 7.36865 10.3825L11.3865 6.36467Z" fill="white" stroke="white" stroke-width="0.2"/>
</g>
<defs>
<clipPath id="clip0_2579_744">
<rect width="16" height="16" fill="white"/>
</clipPath>
</defs>
</svg>
