<svg width="22" height="22" viewBox="0 0 22 22" fill="none" xmlns="http://www.w3.org/2000/svg">
<g clip-path="url(#clip0_2079_726)">
<path d="M10.3401 19.9211C12.2353 19.9211 14.088 19.3591 15.6638 18.3062C17.2396 17.2533 18.4678 15.7567 19.193 14.0058C19.9183 12.2548 20.1081 10.3282 19.7383 8.46938C19.3686 6.61059 18.456 4.90318 17.1159 3.56307C15.7757 2.22296 14.0683 1.31033 12.2096 0.940596C10.3508 0.57086 8.42408 0.760622 6.67314 1.48588C4.9222 2.21115 3.42564 3.43934 2.37272 5.01514C1.31981 6.59095 0.757813 8.44359 0.757812 10.3388C0.757813 12.8802 1.76738 15.3175 3.56441 17.1145C5.36144 18.9116 7.79874 19.9211 10.3401 19.9211Z" stroke="#F0F0F2" stroke-width="1.5" stroke-linecap="round" stroke-linejoin="round"/>
<path d="M20.9314 20.9298L18.9141 18.9125" stroke="#F0F0F2" stroke-width="1.5" stroke-linecap="round" stroke-linejoin="round"/>
</g>
<defs>
<clipPath id="clip0_2079_726">
<rect width="22" height="22" fill="white"/>
</clipPath>
</defs>
</svg>
