<svg width="110" height="110" viewBox="0 0 110 110" fill="none" xmlns="http://www.w3.org/2000/svg">
<path opacity="0.5" d="M108.658 102.187L81.3364 74.8649C88.7818 65.7591 92.4424 54.1399 91.5612 42.4107C90.6799 30.6815 85.3242 19.7398 76.6018 11.8487C67.8794 3.95756 56.4577 -0.279169 44.6991 0.0148262C32.9406 0.308821 21.7449 5.11105 13.4277 13.4282C5.11056 21.7453 0.308333 32.9411 0.0143379 44.6996C-0.279657 56.4582 3.95707 67.8799 11.8482 76.6023C19.7393 85.3247 30.6811 90.6804 42.4102 91.5617C54.1394 92.4429 65.7586 88.7823 74.8644 81.3369L102.185 108.658C102.61 109.083 103.115 109.42 103.67 109.65C104.226 109.88 104.821 109.998 105.422 109.998C106.023 109.998 106.618 109.88 107.173 109.65C107.729 109.42 108.233 109.083 108.658 108.658C109.083 108.233 109.421 107.728 109.651 107.173C109.881 106.618 109.999 106.022 109.999 105.421C109.999 104.82 109.881 104.225 109.651 103.67C109.421 103.114 109.083 102.61 108.658 102.185V102.187ZM45.9184 82.5319C38.6756 82.5329 31.5952 80.386 25.5727 76.3627C19.5501 72.3395 14.8559 66.6206 12.0837 59.9293C9.31159 53.238 8.58601 45.875 9.99877 38.7713C11.4115 31.6676 14.8992 25.1425 20.0206 20.0211C25.142 14.8996 31.6672 11.412 38.7708 9.99926C45.8745 8.5865 53.2375 9.31208 59.9288 12.0842C66.6201 14.8564 72.339 19.5506 76.3623 25.5731C80.3855 31.5957 82.5324 38.6761 82.5314 45.9189C82.5301 55.6289 78.6722 64.9408 71.8062 71.8067C64.9403 78.6727 55.6284 82.5306 45.9184 82.5319Z" fill="white"/>
</svg>
