<svg width="14" height="14" viewBox="0 0 14 14" fill="none" xmlns="http://www.w3.org/2000/svg">
<g clip-path="url(#clip0_1457_1001)">
<path d="M0.223828 4.6532L6.45972 10.889C6.60382 11.0331 6.79595 11.1122 7.00526 11.1122C7.21037 11.1122 7.40261 11.0331 7.54648 10.889L13.7766 4.65912C13.9207 4.51491 14 4.32267 14 4.11756C14 3.91246 13.9208 3.7201 13.7766 3.576L13.3178 3.11719C13.1737 2.97309 12.9813 2.89353 12.7762 2.89353C12.5711 2.89353 12.3789 2.97309 12.2346 3.11719L7.0031 8.34873L1.76576 3.11116C1.62166 2.96718 1.42942 2.88773 1.2242 2.88773C1.01909 2.88773 0.826963 2.96718 0.682752 3.11116L0.223828 3.5702C-0.0746101 3.86875 -0.0746101 4.35465 0.223828 4.6532Z" fill="white" fill-opacity="0.6"/>
</g>
<defs>
<clipPath id="clip0_1457_1001">
<rect width="14" height="14" fill="white" transform="translate(14 14) rotate(-180)"/>
</clipPath>
</defs>
</svg>
