<svg width="33" height="28" viewBox="0 0 33 28" fill="none" xmlns="http://www.w3.org/2000/svg">
<g clip-path="url(#clip0_2079_748)">
<path fill-rule="evenodd" clip-rule="evenodd" d="M0.449219 24.4219C0.470869 20.3397 1.81794 16.395 4.25561 13.2758C6.69328 10.1565 10.0669 8.06036 13.7884 7.35283V3.60949C13.7883 2.93491 13.9635 2.27383 14.294 1.70153C14.6246 1.12922 15.0972 0.668669 15.6581 0.372301C16.2191 0.0759335 16.8457 -0.0443454 17.4668 0.025156C18.0879 0.0946574 18.6784 0.351147 19.1712 0.765428L31.5365 11.156C31.9375 11.4928 32.2619 11.9241 32.485 12.417C32.7082 12.9099 32.8242 13.4514 32.8242 14C32.8242 14.5487 32.7082 15.0902 32.485 15.5831C32.2619 16.076 31.9375 16.5073 31.5365 16.8441L19.1712 27.2347C18.6784 27.6487 18.088 27.9049 17.467 27.9743C16.8461 28.0436 16.2196 27.9233 15.6588 27.627C15.0981 27.3306 14.6255 26.8702 14.295 26.298C13.9645 25.7259 13.7893 25.065 13.7893 24.3906V21.236C12.2862 21.4948 10.8464 22.0767 9.55513 22.9472C8.26383 23.8177 7.14727 24.9591 6.2715 26.3041C5.89575 26.9186 5.34683 27.3861 4.70599 27.6374C4.06515 27.8887 3.36645 27.9104 2.71332 27.6992C2.06019 27.4881 1.48735 27.0554 1.07957 26.4651C0.6718 25.8749 0.450776 25.1585 0.449219 24.4219ZM17.3509 3.29327C17.2961 3.24752 17.2305 3.21927 17.1616 3.21171C17.0927 3.20414 17.0232 3.21758 16.961 3.25049C16.8988 3.2834 16.8463 3.33447 16.8096 3.39792C16.7729 3.46137 16.7533 3.53466 16.7532 3.60949V9.86358C16.7521 9.97009 16.7126 10.072 16.6433 10.1476C16.5739 10.2233 16.48 10.2668 16.3814 10.2691C13.8118 10.3329 11.3141 11.1974 9.18857 12.7586C7.06305 14.3198 5.40025 16.5111 4.40018 19.069C3.76571 20.7173 3.43117 22.4822 3.41485 24.2672C3.41485 24.3184 3.41485 24.37 3.41485 24.4219C3.41687 24.4695 3.43267 24.5151 3.46002 24.5524C3.48736 24.5897 3.52487 24.6168 3.56724 24.6298C3.60961 24.6429 3.65469 24.6412 3.69612 24.625C3.73754 24.6088 3.77321 24.579 3.79808 24.5397L3.87104 24.4219C4.35627 23.6467 4.91382 22.9272 5.53492 22.2749C5.95912 21.827 6.41045 21.4102 6.8859 21.0271C9.65624 18.8899 12.9746 17.7394 16.3787 17.7358C16.4273 17.735 16.4756 17.7448 16.5207 17.7644C16.5658 17.784 16.6068 17.8132 16.6413 17.8501C16.6759 17.8871 16.7032 17.9311 16.7218 17.9796C16.7404 18.0282 16.7499 18.0802 16.7497 18.1327V24.3868C16.7498 24.4616 16.7694 24.5349 16.8061 24.5984C16.8428 24.6618 16.8953 24.7129 16.9575 24.7458C17.0197 24.7787 17.0892 24.7922 17.1581 24.7846C17.227 24.777 17.2926 24.7488 17.3474 24.703L29.7188 14.3163C29.7634 14.2789 29.7994 14.231 29.8242 14.1763C29.849 14.1216 29.8619 14.0615 29.8619 14.0005C29.8619 13.9396 29.849 13.8795 29.8242 13.8247C29.7994 13.77 29.7634 13.7222 29.7188 13.6848L17.3509 3.29327Z" fill="white"/>
</g>
<defs>
<clipPath id="clip0_2079_748">
<rect width="32.375" height="28" fill="white" transform="translate(0.449219)"/>
</clipPath>
</defs>
</svg>
