<svg width="24" height="24" viewBox="0 0 24 24" fill="none" xmlns="http://www.w3.org/2000/svg">
<path d="M16.9998 1.99982C18.3248 2.00378 19.5943 2.53187 20.5312 3.46876C21.4681 4.40566 21.9962 5.67522 22.0002 7.00018V16.9998C21.9962 18.3248 21.4681 19.5943 20.5312 20.5312C19.5943 21.4681 18.3248 21.9962 16.9998 22.0002H7.00018C5.67522 21.9962 4.40566 21.4681 3.46876 20.5312C2.53187 19.5943 2.00378 18.3248 1.99982 16.9998V7.00018C2.00378 5.67522 2.53187 4.40566 3.46876 3.46876C4.40566 2.53187 5.67522 2.00378 7.00018 1.99982H16.9998ZM16.9998 0H7.00018C3.15 0 0 3.15 0 7.00018V16.9998C0 20.85 3.15 24 7.00018 24H16.9998C20.85 24 24 20.85 24 16.9998V7.00018C24 3.15 20.85 0 16.9998 0Z" fill="#E4E4E4"/>
<path d="M18.4999 7.00049C18.2032 7.00049 17.9132 6.91252 17.6665 6.74769C17.4199 6.58287 17.2276 6.3486 17.1141 6.07451C17.0005 5.80042 16.9708 5.49883 17.0287 5.20785C17.0866 4.91688 17.2294 4.64961 17.4392 4.43983C17.649 4.23005 17.9163 4.08719 18.2072 4.02931C18.4982 3.97143 18.7998 4.00114 19.0739 4.11467C19.348 4.2282 19.5823 4.42046 19.7471 4.66713C19.9119 4.91381 19.9999 5.20382 19.9999 5.50049C20.0003 5.69759 19.9618 5.89284 19.8866 6.07502C19.8113 6.25719 19.7009 6.42272 19.5615 6.56209C19.4221 6.70147 19.2566 6.81194 19.0744 6.88717C18.8922 6.9624 18.697 7.00091 18.4999 7.00049ZM12.0001 8.00013C12.7912 8.00013 13.5646 8.23474 14.2224 8.67428C14.8803 9.11383 15.393 9.73857 15.6957 10.4695C15.9985 11.2004 16.0777 12.0047 15.9234 12.7807C15.769 13.5567 15.388 14.2694 14.8286 14.8289C14.2692 15.3883 13.5564 15.7693 12.7805 15.9236C12.0045 16.078 11.2002 15.9988 10.4693 15.696C9.73832 15.3932 9.11358 14.8805 8.67404 14.2227C8.23449 13.5649 7.99988 12.7915 7.99988 12.0003C8.00102 10.9397 8.42283 9.92294 9.17276 9.17301C9.9227 8.42308 10.9395 8.00127 12.0001 8.00013ZM12.0001 6.00031C10.8134 6.00031 9.65334 6.3522 8.66664 7.01149C7.67995 7.67078 6.91091 8.60785 6.45679 9.70421C6.00266 10.8006 5.88384 12.007 6.11535 13.1709C6.34686 14.3347 6.91831 15.4038 7.75742 16.243C8.59654 17.0821 9.66563 17.6535 10.8295 17.885C11.9934 18.1165 13.1998 17.9977 14.2962 17.5436C15.3925 17.0895 16.3296 16.3204 16.9889 15.3337C17.6482 14.347 18.0001 13.187 18.0001 12.0003C18.0001 10.409 17.3679 8.88289 16.2427 7.75767C15.1175 6.63245 13.5914 6.00031 12.0001 6.00031Z" fill="#E4E4E4"/>
</svg>
