<svg width="24" height="24" viewBox="0 0 24 24" fill="none" xmlns="http://www.w3.org/2000/svg">
<g clip-path="url(#clip0_1288_1852)">
<path d="M21.4067 24H2.59333C1.16109 24 0 22.8389 0 21.4067V2.59333C0 1.16109 1.16109 0 2.59333 0H21.4066C22.8389 0 24 1.16109 24 2.59333V21.4066C24 22.8389 22.8389 24 21.4067 24Z" fill="black"/>
<path d="M21.4067 24H2.59333C1.16109 24 0 22.8389 0 21.4067V2.59333C0 1.16109 1.16109 0 2.59333 0H21.4066C22.8389 0 24 1.16109 24 2.59333V21.4066C24 22.8389 22.8389 24 21.4067 24Z" fill="#E4E4E4"/>
<path d="M13.5049 4.36328H6.54492V19.636H9.42493V15.0542H13.5049C16.2885 15.0542 18.5449 12.661 18.5449 9.70874C18.5449 6.75658 16.2885 4.36328 13.5049 4.36328ZM13.5049 11.9996L9.42493 11.9997V7.4179H13.5049C14.6978 7.4179 15.6648 8.44359 15.6648 9.70881C15.6648 10.974 14.6978 11.9996 13.5049 11.9996Z" fill="#060520"/>
</g>
<defs>
<clipPath id="clip0_1288_1852">
<rect width="24" height="24" fill="white"/>
</clipPath>
</defs>
</svg>
