<svg width="60" height="60" viewBox="0 0 60 60" fill="none" xmlns="http://www.w3.org/2000/svg">
<circle cx="30" cy="30" r="30" fill="#27A844" fill-opacity="0.13"/>
<path d="M30 15C21.735 15 15 21.735 15 30C15 38.265 21.735 45 30 45C38.265 45 45 38.265 45 30C45 21.735 38.265 15 30 15ZM37.17 26.55L28.665 35.055C28.455 35.265 28.17 35.385 27.87 35.385C27.57 35.385 27.285 35.265 27.075 35.055L22.83 30.81C22.395 30.375 22.395 29.655 22.83 29.22C23.265 28.785 23.985 28.785 24.42 29.22L27.87 32.67L35.58 24.96C36.015 24.525 36.735 24.525 37.17 24.96C37.605 25.395 37.605 26.1 37.17 26.55Z" fill="#27A844"/>
</svg>
