<svg width="25" height="18" viewBox="0 0 25 18" fill="none" xmlns="http://www.w3.org/2000/svg">
<g clip-path="url(#clip0_1440_151)">
<path d="M20.3334 6.24236C20.9528 4.71887 21.8238 3.31513 22.9084 2.09223C23.0875 1.88753 23.1959 1.62851 23.217 1.35489C23.2381 1.08127 23.1706 0.808144 23.025 0.577393C22.9156 0.398892 22.7631 0.252005 22.5822 0.150762C22.4013 0.0495193 22.198 -0.00269819 21.9917 -0.000902876C21.8729 -0.00417877 21.7544 0.0138104 21.6417 0.0522493C19.1938 0.783624 13.4646 3.37745 13.3084 11.6926C13.2598 13.2156 13.769 14.7025 14.7366 15.8631C15.7042 17.0237 17.0608 17.7748 18.5417 17.9699C19.3569 18.0582 20.1812 17.9704 20.961 17.7122C21.7408 17.4541 22.4586 17.0313 23.0678 16.4714C23.6769 15.9115 24.1638 15.227 24.4967 14.4625C24.8296 13.6979 25.0011 12.8704 25 12.0338C25.0015 10.6658 24.5367 9.33988 23.6853 8.28325C22.8339 7.22662 21.6489 6.5051 20.3334 6.24236ZM5.24169 17.9699C6.05629 18.0571 6.87976 17.9685 7.65862 17.7098C8.43748 17.4511 9.15431 17.0281 9.76258 16.4683C10.3708 15.9085 10.8569 15.2244 11.1893 14.4605C11.5216 13.6965 11.6928 12.8697 11.6917 12.0338C11.6937 10.6655 11.2291 9.33901 10.3777 8.28194C9.52621 7.22487 8.34091 6.50304 7.02502 6.24023C7.64466 4.71749 8.51562 3.31449 9.60002 2.09223C9.77919 1.88753 9.88762 1.62851 9.90869 1.35489C9.92976 1.08127 9.86232 0.808144 9.71669 0.577393C9.60726 0.398892 9.45481 0.252005 9.2739 0.150762C9.09299 0.0495193 8.88967 -0.00269819 8.68336 -0.000902876C8.56454 -0.00417877 8.44609 0.0138104 8.33336 0.0522493C5.88544 0.783624 0.156274 3.37745 2.3685e-05 11.6926V11.8116C-0.020342 13.316 0.502796 14.7754 1.4696 15.9113C2.43641 17.0472 3.77919 17.78 5.24169 17.9699Z" fill="#625DF5"/>
</g>
<defs>
<clipPath id="clip0_1440_151">
<rect width="25" height="18" fill="white"/>
</clipPath>
</defs>
</svg>
