<svg width="36" height="36" viewBox="0 0 36 36" fill="none" xmlns="http://www.w3.org/2000/svg">
<path d="M29.5556 2H6.44438C3.99088 2.00294 2.00288 3.99094 2 6.44438V29.5556C2.00294 32.0091 3.99094 33.9971 6.44438 34H29.5556C32.0091 33.9971 33.9971 32.0091 34 29.5556V6.44438C33.9971 3.99088 32.0091 2.00288 29.5556 2ZM32.2222 29.5556C32.2207 31.0276 31.0276 32.2207 29.5557 32.2222H6.44431C4.97244 32.2207 3.77931 31.0276 3.77781 29.5557V6.44431C3.77937 4.9725 4.9725 3.77937 6.44438 3.77781H29.5557C31.0276 3.77931 32.2208 4.97244 32.2222 6.44431L32.2222 29.5556Z" fill="#FFCD2E"/>
<path d="M25 10.0001H11C10.4477 10.0001 10.0001 10.4477 10.0001 11V13.0002C10.0001 13.5522 10.4477 13.9999 11 13.9999C11.5521 13.9999 12.0001 13.5522 12.0001 13.0002V12.0001H17V23.9999H14.9999C14.4478 23.9999 13.9999 24.4479 13.9999 25C13.9999 25.5523 14.4478 26 14.9999 26H21.0001C21.5522 26 22.0002 25.5523 22.0002 25C22.0002 24.4479 21.5522 23.9999 21.0001 23.9999H19.0001V12.0001H23.9999V13.0002C23.9999 13.5522 24.4479 13.9999 25 13.9999C25.5523 13.9999 26 13.5522 26 13.0002V11C26 10.4477 25.5523 10.0001 25 10.0001Z" fill="#FFCD2E"/>
</svg>
