<svg width="64" height="64" viewBox="0 0 64 64" fill="none" xmlns="http://www.w3.org/2000/svg">
<circle cx="32" cy="32" r="31" stroke="url(#paint0_linear_368_1273)" stroke-width="2"/>
<g clip-path="url(#clip0_368_1273)">
<path d="M19.779 30.4231C19.3542 30.4231 19.0099 30.7675 19.0099 31.1923V42.489C19.0099 42.9138 19.3543 43.2581 19.779 43.2581H24.413V30.4231H19.779ZM44.9901 34.6704C44.9901 33.6941 44.4655 32.8379 43.6834 32.369C43.9935 31.9218 44.1594 31.3905 44.1588 30.8463C44.1588 29.3679 42.956 28.1651 41.4776 28.1651H35.8176C35.9911 27.379 36.2283 26.1994 36.3935 24.9646C36.8234 21.7511 36.5296 19.9689 35.469 19.356C34.8077 18.974 34.0947 18.8965 33.4614 19.1376C32.9721 19.324 32.3113 19.7822 31.9348 20.9067L30.4472 24.8017C29.693 26.6642 27.3836 28.6195 25.9513 29.7007V43.5984C28.6058 44.5285 31.3758 45 34.2018 45H40.369C41.8474 45 43.0502 43.7972 43.0502 42.3188C43.0508 41.8197 42.9113 41.3305 42.6475 40.9069C43.5413 40.4716 44.1587 39.5538 44.1587 38.4946C44.1593 37.9504 43.9934 37.4191 43.6833 36.9719C44.4655 36.503 44.9901 35.6468 44.9901 34.6704Z" fill="white"/>
</g>
<defs>
<linearGradient id="paint0_linear_368_1273" x1="2" y1="32" x2="62" y2="32" gradientUnits="userSpaceOnUse">
<stop stop-color="#F65C54"/>
<stop offset="0.51141" stop-color="#AB57A5"/>
<stop offset="1" stop-color="#5C52FB"/>
</linearGradient>
<clipPath id="clip0_368_1273">
<rect width="26" height="26" fill="white" transform="translate(19 19)"/>
</clipPath>
</defs>
</svg>
