<svg width="64" height="64" viewBox="0 0 64 64" fill="none" xmlns="http://www.w3.org/2000/svg">
<circle cx="30" cy="30" r="31" transform="matrix(1 0 0 -1 2 62)" stroke="url(#paint0_linear_368_1277)" stroke-width="2"/>
<g clip-path="url(#clip0_368_1277)">
<path d="M19.7789 33.5769C19.3541 33.5769 19.0098 33.2325 19.0098 32.8077V21.511C19.0098 21.0862 19.3542 20.7419 19.7789 20.7419H24.4128V33.5769H19.7789ZM44.99 29.3296C44.99 30.3059 44.4654 31.1621 43.6833 31.631C43.9934 32.0782 44.1593 32.6095 44.1587 33.1537C44.1587 34.6321 42.9559 35.8349 41.4775 35.8349H35.8175C35.991 36.621 36.2282 37.8006 36.3934 39.0354C36.8233 42.2489 36.5295 44.0311 35.4688 44.644C34.8076 45.026 34.0946 45.1035 33.4612 44.8624C32.972 44.676 32.3112 44.2178 31.9347 43.0933L30.4471 39.1983C29.6929 37.3358 27.3834 35.3805 25.9512 34.2993V20.4016C28.6057 19.4715 31.3757 19 34.2017 19H40.3689C41.8473 19 43.0501 20.2028 43.0501 21.6812C43.0507 22.1803 42.9112 22.6695 42.6474 23.0931C43.5412 23.5284 44.1586 24.4462 44.1586 25.5054C44.1592 26.0496 43.9933 26.5809 43.6832 27.0281C44.4654 27.497 44.99 28.3532 44.99 29.3296Z" fill="white"/>
</g>
<defs>
<linearGradient id="paint0_linear_368_1277" x1="4.47035e-07" y1="30" x2="60" y2="30" gradientUnits="userSpaceOnUse">
<stop stop-color="#F65C54"/>
<stop offset="0.51141" stop-color="#AB57A5"/>
<stop offset="1" stop-color="#5C52FB"/>
</linearGradient>
<clipPath id="clip0_368_1277">
<rect width="26" height="26" fill="white" transform="matrix(1 0 0 -1 19 45)"/>
</clipPath>
</defs>
</svg>
