<svg width="18" height="18" viewBox="0 0 18 18" fill="none" xmlns="http://www.w3.org/2000/svg">
<g clip-path="url(#clip0_2079_745)">
<path d="M17.0376 0L9.93568 0.0163162C9.68582 0.0247137 9.44901 0.129872 9.27523 0.309589C9.10145 0.489307 9.00431 0.729519 9.00431 0.979514C9.00431 1.22951 9.10145 1.46972 9.27523 1.64944C9.44901 1.82916 9.68582 1.93431 9.93568 1.94271L14.7076 1.92966L0.283029 16.3553C0.114137 16.5382 0.0225787 16.7794 0.027535 17.0283C0.0324913 17.2772 0.133578 17.5146 0.309617 17.6906C0.485657 17.8666 0.722991 17.9677 0.971899 17.9727C1.22081 17.9776 1.46198 17.8861 1.64489 17.7172L16.0695 3.29369L16.0575 8.06128C16.0659 8.31113 16.1711 8.54794 16.3508 8.72172C16.5305 8.8955 16.7707 8.99265 17.0207 8.99265C17.2707 8.99265 17.5109 8.8955 17.6906 8.72172C17.8703 8.54794 17.9755 8.31113 17.9839 8.06128L18.0013 0.960479C18.0004 0.705444 17.8985 0.46115 17.7179 0.281119C17.5372 0.101087 17.2926 -1.46198e-06 17.0376 0Z" fill="white"/>
</g>
<defs>
<clipPath id="clip0_2079_745">
<rect width="18" height="18" fill="white"/>
</clipPath>
</defs>
</svg>
