<svg width="18" height="18" viewBox="0 0 18 18" fill="none" xmlns="http://www.w3.org/2000/svg">
<g clip-path="url(#clip0_2848_19)">
<path d="M13.1482 4.35415L13.1476 4.35413L9.48238 4.36299C9.20781 4.36366 8.98572 4.58676 8.98637 4.86139C8.98702 5.13598 9.21015 5.35805 9.48474 5.3574L11.9455 5.35142L4.50003 12.7969C4.30586 12.9911 4.30586 13.3059 4.50003 13.5C4.6942 13.6942 5.009 13.6942 5.20317 13.5L12.6486 6.05458L12.6427 8.51531C12.642 8.7899 12.8641 9.01302 13.1387 9.01367C13.4133 9.01434 13.6364 8.7922 13.6371 8.51766L13.646 4.8525L13.6459 4.85185C13.6462 4.57673 13.4224 4.35385 13.1482 4.35415Z" fill="white" fill-opacity="0.8"/>
</g>
<defs>
<clipPath id="clip0_2848_19">
<rect width="12.7281" height="12.7281" fill="white" transform="translate(0 9) rotate(-45)"/>
</clipPath>
</defs>
</svg>
