<svg width="119" height="100" viewBox="0 0 119 100" fill="none" xmlns="http://www.w3.org/2000/svg">
<path d="M34.6348 87.4208C27.8762 86.9838 21.4543 84.7597 16.2862 81.0661C11.1181 77.3725 7.46797 72.3982 5.85701 66.8535C4.24605 61.3089 4.75665 55.4773 7.3159 50.1916C9.87514 44.9059 14.3522 40.4362 20.1077 37.4208C21.3324 29.3795 25.9947 21.9896 33.2223 16.634C40.4498 11.2784 49.7471 8.32416 59.3744 8.32416C69.0016 8.32416 78.299 11.2784 85.5265 16.634C92.754 21.9896 97.4164 29.3795 98.6411 37.4208C104.397 40.4362 108.874 44.9059 111.433 50.1916C113.992 55.4773 114.503 61.3089 112.892 66.8535C111.281 72.3982 107.631 77.3725 102.463 81.0661C97.2944 84.7597 90.8726 86.9838 84.114 87.4208V87.5H34.6348V87.4208ZM64.3223 54.1667H79.1661L59.3744 33.3333L39.5827 54.1667H54.4265V70.8333H64.3223V54.1667Z" fill="white" fill-opacity="0.16"/>
</svg>
