<svg width="19" height="19" viewBox="0 0 19 19" fill="none" xmlns="http://www.w3.org/2000/svg">
<g opacity="0.94" clip-path="url(#clip0_351_1205)">
<path d="M5.96225 9.50024C5.96225 8.68699 5.99123 7.87229 6.04864 7.07574H0.311162C0.106281 7.85749 0 8.67066 0 9.50024C0 10.3298 0.106281 11.143 0.311162 11.9247H6.04861C5.99123 11.1282 5.96225 10.3135 5.96225 9.50024ZM7.07553 9.50024C7.07553 10.3295 7.10552 11.1424 7.16363 11.9247H11.8364C11.8945 11.1424 11.9245 10.3295 11.9245 9.50024C11.9245 8.671 11.8945 7.85812 11.8364 7.07574H7.16363C7.10552 7.85812 7.07553 8.671 7.07553 9.50024ZM18.6888 7.07574H12.9514C13.0088 7.87229 13.0377 8.68699 13.0377 9.50024C13.0377 10.3135 13.0088 11.1282 12.9514 11.9247H18.6888C18.8937 11.143 19 10.3298 19 9.50024C19 8.67066 18.8937 7.85749 18.6888 7.07574ZM7.26765 13.038C7.41148 14.3064 7.63362 15.4678 7.92571 16.4531C8.44732 18.2126 9.09224 19.0002 9.5 19.0002C9.90776 19.0002 10.5527 18.2126 11.0743 16.4531C11.3664 15.4677 11.5885 14.3064 11.7324 13.038H7.26765ZM11.7324 5.96246C11.5885 4.69402 11.3664 3.53269 11.0743 2.54732C10.5527 0.787816 9.90776 0.000244141 9.5 0.000244141C9.09224 0.000244141 8.44732 0.787816 7.92571 2.54732C7.63362 3.53272 7.41148 4.69406 7.26765 5.96246H11.7324ZM18.3215 5.96246C17.8499 4.78598 17.1408 3.70595 16.2175 2.78271C14.8499 1.41504 13.1384 0.516361 11.2781 0.166012C12.0635 1.44963 12.5916 3.57495 12.851 5.96242H18.3215V5.96246ZM11.2781 18.8344C13.1384 18.4841 14.8498 17.5854 16.2175 16.2177C17.1408 15.2945 17.8499 14.2145 18.3215 13.038H12.851C12.5916 15.4255 12.0635 17.5508 11.2781 18.8344ZM0.678508 13.038C1.15009 14.2145 1.85925 15.2945 2.78246 16.2177C4.15016 17.5854 5.86161 18.4841 7.72183 18.8345C6.93645 17.5509 6.40842 15.4255 6.14899 13.0381L0.678508 13.038ZM7.72183 0.166049C5.86161 0.516361 4.15016 1.41504 2.78246 2.78274C1.85925 3.70599 1.15009 4.78598 0.678508 5.9625H6.14899C6.40842 3.57499 6.93645 1.44966 7.72183 0.166049Z" fill="white"/>
</g>
<defs>
<clipPath id="clip0_351_1205">
<rect width="19" height="19" fill="white" transform="translate(0 0.000244141)"/>
</clipPath>
</defs>
</svg>
